STARTFONT 2.1
COMMENT
COMMENT Converted from OpenType font "AsimovNar.otf" by "otf2bdf 3.0".
COMMENT
FONT -FreeType-Asimov-Medium-R-Normal--17-120-100-100-P-82-ISO10646-1
SIZE 12 100 100
FONTBOUNDINGBOX 23 22 0 -4
STARTPROPERTIES 19
FOUNDRY "FreeType"
FAMILY_NAME "Asimov"
WEIGHT_NAME "Medium"
SLANT "R"
SETWIDTH_NAME "Normal"
ADD_STYLE_NAME ""
PIXEL_SIZE 17
POINT_SIZE 120
RESOLUTION_X 100
RESOLUTION_Y 100
SPACING "P"
AVERAGE_WIDTH 82
CHARSET_REGISTRY "ISO10646"
CHARSET_ENCODING "1"
FONT_ASCENT 15
FONT_DESCENT 4
COPYRIGHT "Font data copyright Google 2014, Design modifications and new weights 2015, Cannot Into Space Fonts"
_OTF_FONTFILE "AsimovNar.otf"
_OTF_PSNAME "AsimovNar"
ENDPROPERTIES
CHARS 904
STARTCHAR 0000
ENCODING 0
SWIDTH 180 0
DWIDTH 3 0
BBX 0 0 0 0
BITMAP
ENDCHAR
STARTCHAR 0002
ENCODING 2
SWIDTH 180 0
DWIDTH 3 0
BBX 0 0 0 0
BITMAP
ENDCHAR
STARTCHAR 000D
ENCODING 13
SWIDTH 180 0
DWIDTH 3 0
BBX 0 0 0 0
BITMAP
ENDCHAR
STARTCHAR 0020
ENCODING 32
SWIDTH 180 0
DWIDTH 3 0
BBX 0 0 0 0
BITMAP
ENDCHAR
STARTCHAR 0021
ENCODING 33
SWIDTH 300 0
DWIDTH 5 0
BBX 2 12 1 0
BITMAP
C0
C0
C0
C0
C0
C0
C0
C0
00
40
C0
C0
ENDCHAR
STARTCHAR 0022
ENCODING 34
SWIDTH 360 0
DWIDTH 6 0
BBX 4 4 1 8
BITMAP
F0
B0
B0
B0
ENDCHAR
STARTCHAR 0023
ENCODING 35
SWIDTH 600 0
DWIDTH 10 0
BBX 8 12 1 0
BITMAP
12
16
16
FF
FF
24
24
FE
FE
68
68
48
ENDCHAR
STARTCHAR 0024
ENCODING 36
SWIDTH 540 0
DWIDTH 9 0
BBX 7 15 1 -2
BITMAP
10
10
7C
7E
C6
C6
E0
78
3C
0E
C6
C6
FE
7C
10
ENDCHAR
STARTCHAR 0025
ENCODING 37
SWIDTH 660 0
DWIDTH 11 0
BBX 10 12 1 0
BITMAP
7000
F000
9B00
9200
F400
2C00
0900
1F80
14C0
24C0
2780
0380
ENDCHAR
STARTCHAR 0026
ENCODING 38
SWIDTH 660 0
DWIDTH 11 0
BBX 9 12 1 0
BITMAP
3800
7C00
6400
6400
7C00
3800
7800
DD80
CF00
C700
FF00
7B80
ENDCHAR
STARTCHAR 0027
ENCODING 39
SWIDTH 240 0
DWIDTH 4 0
BBX 2 4 1 8
BITMAP
C0
80
80
80
ENDCHAR
STARTCHAR 0028
ENCODING 40
SWIDTH 360 0
DWIDTH 6 0
BBX 4 17 1 -4
BITMAP
10
30
60
40
C0
C0
C0
C0
C0
C0
C0
C0
40
60
60
30
10
ENDCHAR
STARTCHAR 0029
ENCODING 41
SWIDTH 360 0
DWIDTH 6 0
BBX 4 17 1 -4
BITMAP
80
C0
60
60
20
30
30
30
30
30
30
30
60
60
C0
C0
80
ENDCHAR
STARTCHAR 002A
ENCODING 42
SWIDTH 480 0
DWIDTH 8 0
BBX 6 7 1 5
BITMAP
30
30
F4
FC
30
78
48
ENDCHAR
STARTCHAR 002B
ENCODING 43
SWIDTH 540 0
DWIDTH 9 0
BBX 7 9 1 1
BITMAP
18
18
18
FE
FE
18
18
18
18
ENDCHAR
STARTCHAR 002C
ENCODING 44
SWIDTH 300 0
DWIDTH 5 0
BBX 2 5 1 -3
BITMAP
40
40
40
C0
80
ENDCHAR
STARTCHAR 002D
ENCODING 45
SWIDTH 360 0
DWIDTH 6 0
BBX 4 2 1 4
BITMAP
F0
F0
ENDCHAR
STARTCHAR 002E
ENCODING 46
SWIDTH 300 0
DWIDTH 5 0
BBX 2 3 1 0
BITMAP
40
C0
C0
ENDCHAR
STARTCHAR 002F
ENCODING 47
SWIDTH 420 0
DWIDTH 7 0
BBX 5 13 1 -1
BITMAP
08
18
10
10
30
30
20
60
60
40
C0
C0
80
ENDCHAR
STARTCHAR 0030
ENCODING 48
SWIDTH 540 0
DWIDTH 9 0
BBX 7 12 1 0
BITMAP
38
7C
E6
C6
C6
C6
C6
C6
C6
E6
7C
38
ENDCHAR
STARTCHAR 0031
ENCODING 49
SWIDTH 420 0
DWIDTH 7 0
BBX 4 12 1 0
BITMAP
30
70
F0
B0
30
30
30
30
30
30
30
30
ENDCHAR
STARTCHAR 0032
ENCODING 50
SWIDTH 540 0
DWIDTH 9 0
BBX 7 12 1 0
BITMAP
3C
7E
C6
C6
06
0E
1C
38
30
60
FE
FE
ENDCHAR
STARTCHAR 0033
ENCODING 51
SWIDTH 540 0
DWIDTH 9 0
BBX 7 12 1 0
BITMAP
3C
FE
C6
06
06
3C
3E
06
06
C6
FE
3C
ENDCHAR
STARTCHAR 0034
ENCODING 52
SWIDTH 540 0
DWIDTH 9 0
BBX 8 12 1 0
BITMAP
0C
1C
1C
3C
2C
6C
CC
FF
FF
0C
0C
0C
ENDCHAR
STARTCHAR 0035
ENCODING 53
SWIDTH 540 0
DWIDTH 9 0
BBX 7 12 1 0
BITMAP
7E
7E
40
C0
FC
FE
06
06
C6
C6
7C
38
ENDCHAR
STARTCHAR 0036
ENCODING 54
SWIDTH 540 0
DWIDTH 9 0
BBX 7 12 1 0
BITMAP
1C
3C
70
E0
DC
FE
C6
C6
C6
E6
7E
3C
ENDCHAR
STARTCHAR 0037
ENCODING 55
SWIDTH 540 0
DWIDTH 9 0
BBX 7 12 1 0
BITMAP
FE
FE
06
06
0C
0C
18
18
38
30
30
60
ENDCHAR
STARTCHAR 0038
ENCODING 56
SWIDTH 540 0
DWIDTH 9 0
BBX 7 12 1 0
BITMAP
38
7C
E6
C6
E6
7C
7C
C6
C6
C6
FE
3C
ENDCHAR
STARTCHAR 0039
ENCODING 57
SWIDTH 540 0
DWIDTH 9 0
BBX 7 12 1 0
BITMAP
38
7C
CE
C6
C6
C6
FE
76
06
0C
78
70
ENDCHAR
STARTCHAR 003A
ENCODING 58
SWIDTH 300 0
DWIDTH 5 0
BBX 2 10 1 0
BITMAP
40
C0
C0
00
00
00
00
40
C0
C0
ENDCHAR
STARTCHAR 003B
ENCODING 59
SWIDTH 300 0
DWIDTH 5 0
BBX 3 12 1 -3
BITMAP
C0
E0
40
00
00
00
00
40
40
40
C0
C0
ENDCHAR
STARTCHAR 003C
ENCODING 60
SWIDTH 480 0
DWIDTH 8 0
BBX 6 8 1 1
BITMAP
04
1C
7C
F0
F0
7C
1C
04
ENDCHAR
STARTCHAR 003D
ENCODING 61
SWIDTH 540 0
DWIDTH 9 0
BBX 7 5 1 3
BITMAP
FE
FE
00
FE
FE
ENDCHAR
STARTCHAR 003E
ENCODING 62
SWIDTH 540 0
DWIDTH 9 0
BBX 7 8 1 1
BITMAP
80
E0
FC
1E
1E
FC
E0
80
ENDCHAR
STARTCHAR 003F
ENCODING 63
SWIDTH 480 0
DWIDTH 8 0
BBX 6 12 1 0
BITMAP
78
FC
CC
0C
0C
18
38
30
00
30
30
30
ENDCHAR
STARTCHAR 0040
ENCODING 64
SWIDTH 840 0
DWIDTH 14 0
BBX 12 16 1 -4
BITMAP
0F80
1FC0
3060
6230
4F90
CD90
D990
9990
9910
9930
DFE0
CEE0
6000
7000
3F80
0600
ENDCHAR
STARTCHAR 0041
ENCODING 65
SWIDTH 720 0
DWIDTH 12 0
BBX 10 12 1 0
BITMAP
0C00
1C00
1E00
1E00
3600
3300
3300
7F00
7F80
6180
C180
C1C0
ENDCHAR
STARTCHAR 0042
ENCODING 66
SWIDTH 600 0
DWIDTH 10 0
BBX 8 12 1 0
BITMAP
FC
FE
C7
C3
C7
FE
FE
C3
C3
C3
FF
FE
ENDCHAR
STARTCHAR 0043
ENCODING 67
SWIDTH 660 0
DWIDTH 11 0
BBX 9 12 1 0
BITMAP
3E00
7F00
6300
C380
C000
C000
C000
C000
C380
6300
7F00
3E00
ENDCHAR
STARTCHAR 0044
ENCODING 68
SWIDTH 600 0
DWIDTH 10 0
BBX 8 12 1 0
BITMAP
FC
FE
C7
C3
C3
C3
C3
C3
C3
C7
FE
FC
ENDCHAR
STARTCHAR 0045
ENCODING 69
SWIDTH 540 0
DWIDTH 9 0
BBX 7 12 1 0
BITMAP
FE
FE
C0
C0
C0
FE
FE
C0
C0
C0
FE
FE
ENDCHAR
STARTCHAR 0046
ENCODING 70
SWIDTH 540 0
DWIDTH 9 0
BBX 7 12 1 0
BITMAP
FE
FE
C0
C0
C0
FE
FE
C0
C0
C0
C0
C0
ENDCHAR
STARTCHAR 0047
ENCODING 71
SWIDTH 660 0
DWIDTH 11 0
BBX 9 12 1 0
BITMAP
3E00
7F00
6300
E380
C000
C000
CF80
CF80
C380
6380
7F80
3E00
ENDCHAR
STARTCHAR 0048
ENCODING 72
SWIDTH 660 0
DWIDTH 11 0
BBX 9 12 1 0
BITMAP
C180
C180
C180
C180
C180
FF80
FF80
C180
C180
C180
C180
C180
ENDCHAR
STARTCHAR 0049
ENCODING 73
SWIDTH 300 0
DWIDTH 5 0
BBX 2 12 1 0
BITMAP
C0
C0
C0
C0
C0
C0
C0
C0
C0
C0
C0
C0
ENDCHAR
STARTCHAR 004A
ENCODING 74
SWIDTH 540 0
DWIDTH 9 0
BBX 7 12 1 0
BITMAP
06
06
06
06
06
06
06
06
C6
CE
FC
78
ENDCHAR
STARTCHAR 004B
ENCODING 75
SWIDTH 660 0
DWIDTH 11 0
BBX 9 12 1 0
BITMAP
C380
C700
CE00
CC00
DC00
F800
FC00
EC00
CE00
C700
C700
C380
ENDCHAR
STARTCHAR 004C
ENCODING 76
SWIDTH 540 0
DWIDTH 9 0
BBX 7 12 1 0
BITMAP
C0
C0
C0
C0
C0
C0
C0
C0
C0
C0
FE
FE
ENDCHAR
STARTCHAR 004D
ENCODING 77
SWIDTH 840 0
DWIDTH 14 0
BBX 11 12 1 0
BITMAP
E0E0
F0E0
F0E0
F1E0
D1E0
D9E0
D960
CB60
CF60
CE60
C660
C660
ENDCHAR
STARTCHAR 004E
ENCODING 78
SWIDTH 660 0
DWIDTH 11 0
BBX 9 12 1 0
BITMAP
E180
E180
F180
F180
D980
D980
CD80
CF80
C780
C780
C380
C380
ENDCHAR
STARTCHAR 004F
ENCODING 79
SWIDTH 660 0
DWIDTH 11 0
BBX 9 12 1 0
BITMAP
1E00
7F00
6300
E380
C180
C180
C180
C180
E380
6300
7F00
1E00
ENDCHAR
STARTCHAR 0050
ENCODING 80
SWIDTH 600 0
DWIDTH 10 0
BBX 8 12 1 0
BITMAP
FC
FF
C7
C3
C3
C3
FF
FE
C0
C0
C0
C0
ENDCHAR
STARTCHAR 0051
ENCODING 81
SWIDTH 660 0
DWIDTH 11 0
BBX 9 14 1 -2
BITMAP
1E00
7F00
6300
E380
C180
C180
C180
C180
E380
6300
7F00
1F00
0380
0100
ENDCHAR
STARTCHAR 0052
ENCODING 82
SWIDTH 600 0
DWIDTH 10 0
BBX 8 12 1 0
BITMAP
FC
FE
C7
C3
C3
C7
FE
FC
CE
C6
C7
C3
ENDCHAR
STARTCHAR 0053
ENCODING 83
SWIDTH 600 0
DWIDTH 10 0
BBX 8 12 1 0
BITMAP
3C
7E
E7
C3
E0
7C
3E
07
C3
E3
7F
3C
ENDCHAR
STARTCHAR 0054
ENCODING 84
SWIDTH 600 0
DWIDTH 10 0
BBX 8 12 1 0
BITMAP
FF
FF
18
18
18
18
18
18
18
18
18
18
ENDCHAR
STARTCHAR 0055
ENCODING 85
SWIDTH 660 0
DWIDTH 11 0
BBX 8 12 1 0
BITMAP
C3
C3
C3
C3
C3
C3
C3
C3
C3
E7
7E
3C
ENDCHAR
STARTCHAR 0056
ENCODING 86
SWIDTH 660 0
DWIDTH 11 0
BBX 9 12 1 0
BITMAP
C180
E180
E380
6300
6300
7300
3600
3600
3600
1C00
1C00
1C00
ENDCHAR
STARTCHAR 0057
ENCODING 87
SWIDTH 840 0
DWIDTH 14 0
BBX 12 12 1 0
BITMAP
C630
C630
C630
CF30
6F60
6F60
6960
6960
79E0
39C0
39C0
30C0
ENDCHAR
STARTCHAR 0058
ENCODING 88
SWIDTH 660 0
DWIDTH 11 0
BBX 9 12 1 0
BITMAP
E380
6300
7700
3600
3E00
1C00
1C00
3E00
3600
7700
E300
E380
ENDCHAR
STARTCHAR 0059
ENCODING 89
SWIDTH 660 0
DWIDTH 11 0
BBX 9 12 1 0
BITMAP
C380
E300
6300
7600
3600
3C00
1C00
1800
1800
1800
1800
1800
ENDCHAR
STARTCHAR 005A
ENCODING 90
SWIDTH 600 0
DWIDTH 10 0
BBX 8 12 1 0
BITMAP
FF
FF
06
0E
0C
1C
38
30
70
60
FF
FF
ENDCHAR
STARTCHAR 005B
ENCODING 91
SWIDTH 300 0
DWIDTH 5 0
BBX 3 17 1 -3
BITMAP
E0
E0
C0
C0
C0
C0
C0
C0
C0
C0
C0
C0
C0
C0
C0
E0
E0
ENDCHAR
STARTCHAR 005C
ENCODING 92
SWIDTH 480 0
DWIDTH 8 0
BBX 6 13 1 -1
BITMAP
C0
C0
60
60
60
30
30
30
18
18
1C
0C
0C
ENDCHAR
STARTCHAR 005D
ENCODING 93
SWIDTH 300 0
DWIDTH 5 0
BBX 3 17 1 -3
BITMAP
E0
E0
60
60
60
60
60
60
60
60
60
60
60
60
60
E0
E0
ENDCHAR
STARTCHAR 005E
ENCODING 94
SWIDTH 480 0
DWIDTH 8 0
BBX 6 6 1 6
BITMAP
30
30
70
58
C8
CC
ENDCHAR
STARTCHAR 005F
ENCODING 95
SWIDTH 540 0
DWIDTH 9 0
BBX 7 2 1 -2
BITMAP
FE
FE
ENDCHAR
STARTCHAR 0060
ENCODING 96
SWIDTH 360 0
DWIDTH 6 0
BBX 4 3 1 10
BITMAP
E0
60
30
ENDCHAR
STARTCHAR 0061
ENCODING 97
SWIDTH 540 0
DWIDTH 9 0
BBX 7 9 1 0
BITMAP
38
7C
CE
1E
7E
C6
CE
FE
76
ENDCHAR
STARTCHAR 0062
ENCODING 98
SWIDTH 540 0
DWIDTH 9 0
BBX 7 13 1 0
BITMAP
C0
C0
C0
C0
DC
FE
E6
C6
C6
C6
E6
FE
DC
ENDCHAR
STARTCHAR 0063
ENCODING 99
SWIDTH 540 0
DWIDTH 9 0
BBX 7 9 1 0
BITMAP
38
7C
E6
C6
C0
C0
E6
7C
38
ENDCHAR
STARTCHAR 0064
ENCODING 100
SWIDTH 540 0
DWIDTH 9 0
BBX 7 13 1 0
BITMAP
06
06
06
06
36
7E
E6
C6
C6
C6
E6
7E
76
ENDCHAR
STARTCHAR 0065
ENCODING 101
SWIDTH 540 0
DWIDTH 9 0
BBX 7 9 1 0
BITMAP
38
7C
C6
FE
FE
C0
E4
7E
3C
ENDCHAR
STARTCHAR 0066
ENCODING 102
SWIDTH 420 0
DWIDTH 7 0
BBX 5 13 1 0
BITMAP
38
78
60
60
F8
F8
60
60
60
60
60
60
60
ENDCHAR
STARTCHAR 0067
ENCODING 103
SWIDTH 540 0
DWIDTH 9 0
BBX 7 12 1 -3
BITMAP
3E
7E
E6
C6
C6
C6
E6
7E
3E
46
FE
78
ENDCHAR
STARTCHAR 0068
ENCODING 104
SWIDTH 540 0
DWIDTH 9 0
BBX 7 13 1 0
BITMAP
C0
C0
C0
C0
DC
FE
E6
C6
C6
C6
C6
C6
C6
ENDCHAR
STARTCHAR 0069
ENCODING 105
SWIDTH 300 0
DWIDTH 5 0
BBX 2 12 1 0
BITMAP
C0
C0
40
C0
C0
C0
C0
C0
C0
C0
C0
C0
ENDCHAR
STARTCHAR 006A
ENCODING 106
SWIDTH 360 0
DWIDTH 6 0
BBX 3 15 1 -3
BITMAP
60
60
20
60
60
60
60
60
60
60
60
60
60
E0
C0
ENDCHAR
STARTCHAR 006B
ENCODING 107
SWIDTH 540 0
DWIDTH 9 0
BBX 7 13 1 0
BITMAP
C0
C0
C0
C0
CE
CC
D8
F8
F8
FC
CC
CE
C6
ENDCHAR
STARTCHAR 006C
ENCODING 108
SWIDTH 300 0
DWIDTH 5 0
BBX 2 13 1 0
BITMAP
C0
C0
C0
C0
C0
C0
C0
C0
C0
C0
C0
C0
C0
ENDCHAR
STARTCHAR 006D
ENCODING 109
SWIDTH 840 0
DWIDTH 14 0
BBX 12 9 1 0
BITMAP
DDE0
FFE0
E660
C670
C670
C670
C670
C670
C670
ENDCHAR
STARTCHAR 006E
ENCODING 110
SWIDTH 540 0
DWIDTH 9 0
BBX 7 9 1 0
BITMAP
DC
FE
C6
C6
C6
C6
C6
C6
C6
ENDCHAR
STARTCHAR 006F
ENCODING 111
SWIDTH 600 0
DWIDTH 10 0
BBX 7 9 1 0
BITMAP
3C
7E
E6
C6
C6
C6
E6
7E
3C
ENDCHAR
STARTCHAR 0070
ENCODING 112
SWIDTH 540 0
DWIDTH 9 0
BBX 7 12 1 -3
BITMAP
DC
FE
C6
C6
C6
C6
C6
FE
DC
C0
C0
C0
ENDCHAR
STARTCHAR 0071
ENCODING 113
SWIDTH 540 0
DWIDTH 9 0
BBX 7 12 1 -3
BITMAP
3E
7E
E6
C6
C6
C6
E6
7E
7E
06
06
06
ENDCHAR
STARTCHAR 0072
ENCODING 114
SWIDTH 420 0
DWIDTH 7 0
BBX 5 9 1 0
BITMAP
D8
F8
F8
C0
C0
C0
C0
C0
C0
ENDCHAR
STARTCHAR 0073
ENCODING 115
SWIDTH 540 0
DWIDTH 9 0
BBX 7 9 1 0
BITMAP
78
FC
CE
E0
7C
1E
C6
FC
78
ENDCHAR
STARTCHAR 0074
ENCODING 116
SWIDTH 420 0
DWIDTH 7 0
BBX 5 11 1 0
BITMAP
60
60
F0
F0
60
60
60
60
60
78
38
ENDCHAR
STARTCHAR 0075
ENCODING 117
SWIDTH 540 0
DWIDTH 9 0
BBX 7 9 1 0
BITMAP
C6
C6
C6
C6
C6
C6
C6
FE
76
ENDCHAR
STARTCHAR 0076
ENCODING 118
SWIDTH 540 0
DWIDTH 9 0
BBX 7 9 1 0
BITMAP
C6
C6
EC
6C
6C
6C
38
38
38
ENDCHAR
STARTCHAR 0077
ENCODING 119
SWIDTH 720 0
DWIDTH 12 0
BBX 10 9 1 0
BITMAP
CCC0
CCC0
CCC0
5EC0
7E80
7380
7380
7380
3300
ENDCHAR
STARTCHAR 0078
ENCODING 120
SWIDTH 540 0
DWIDTH 9 0
BBX 7 9 1 0
BITMAP
C6
6C
6C
38
38
38
6C
6C
C6
ENDCHAR
STARTCHAR 0079
ENCODING 121
SWIDTH 540 0
DWIDTH 9 0
BBX 7 12 1 -3
BITMAP
C6
C6
6C
6C
6C
38
38
38
10
30
70
60
ENDCHAR
STARTCHAR 007A
ENCODING 122
SWIDTH 540 0
DWIDTH 9 0
BBX 7 9 1 0
BITMAP
FC
FC
1C
18
30
70
60
FE
FE
ENDCHAR
STARTCHAR 007B
ENCODING 123
SWIDTH 360 0
DWIDTH 6 0
BBX 4 16 1 -3
BITMAP
10
30
60
60
60
60
60
C0
C0
60
60
60
60
60
30
10
ENDCHAR
STARTCHAR 007C
ENCODING 124
SWIDTH 240 0
DWIDTH 4 0
BBX 2 14 1 -2
BITMAP
C0
C0
C0
C0
C0
C0
C0
C0
C0
C0
C0
C0
C0
C0
ENDCHAR
STARTCHAR 007D
ENCODING 125
SWIDTH 360 0
DWIDTH 6 0
BBX 4 16 1 -3
BITMAP
80
C0
60
60
60
60
60
30
70
60
60
60
60
60
C0
80
ENDCHAR
STARTCHAR 007E
ENCODING 126
SWIDTH 600 0
DWIDTH 10 0
BBX 8 4 1 3
BITMAP
71
FB
DF
CE
ENDCHAR
STARTCHAR 00A0
ENCODING 160
SWIDTH 180 0
DWIDTH 3 0
BBX 0 0 0 0
BITMAP
ENDCHAR
STARTCHAR 00A1
ENCODING 161
SWIDTH 300 0
DWIDTH 5 0
BBX 2 12 1 -3
BITMAP
C0
C0
40
00
C0
C0
C0
C0
C0
C0
C0
C0
ENDCHAR
STARTCHAR 00A2
ENCODING 162
SWIDTH 540 0
DWIDTH 9 0
BBX 7 13 1 -2
BITMAP
10
10
38
7C
C6
C6
C0
C0
C6
7C
7C
10
10
ENDCHAR
STARTCHAR 00A3
ENCODING 163
SWIDTH 600 0
DWIDTH 10 0
BBX 8 12 1 0
BITMAP
1C
3E
77
60
60
FC
FC
60
60
60
FF
FF
ENDCHAR
STARTCHAR 00A4
ENCODING 164
SWIDTH 660 0
DWIDTH 11 0
BBX 9 11 1 0
BITMAP
1C80
FF80
6300
C180
C180
C080
C180
C180
6300
FF80
9C80
ENDCHAR
STARTCHAR 00A5
ENCODING 165
SWIDTH 600 0
DWIDTH 10 0
BBX 8 12 1 0
BITMAP
C3
E3
66
76
3C
7F
7F
18
7F
7F
18
18
ENDCHAR
STARTCHAR 00A6
ENCODING 166
SWIDTH 240 0
DWIDTH 4 0
BBX 2 14 1 -2
BITMAP
C0
C0
C0
C0
C0
C0
00
00
C0
C0
C0
C0
C0
C0
ENDCHAR
STARTCHAR 00A7
ENCODING 167
SWIDTH 600 0
DWIDTH 10 0
BBX 8 16 1 -4
BITMAP
3C
7E
E7
C3
F0
7C
FE
C7
C3
FF
7E
0F
C3
C7
FE
3C
ENDCHAR
STARTCHAR 00A8
ENCODING 168
SWIDTH 480 0
DWIDTH 8 0
BBX 6 2 1 10
BITMAP
CC
CC
ENDCHAR
STARTCHAR 00A9
ENCODING 169
SWIDTH 720 0
DWIDTH 12 0
BBX 10 12 1 0
BITMAP
1E00
3300
4080
DE40
9240
B040
B040
9240
DE40
4080
3100
1E00
ENDCHAR
STARTCHAR 00AA
ENCODING 170
SWIDTH 420 0
DWIDTH 7 0
BBX 5 6 1 6
BITMAP
70
D0
18
F8
98
F8
ENDCHAR
STARTCHAR 00AB
ENCODING 171
SWIDTH 480 0
DWIDTH 8 0
BBX 6 7 1 1
BITMAP
24
6C
58
D8
D8
68
24
ENDCHAR
STARTCHAR 00AC
ENCODING 172
SWIDTH 480 0
DWIDTH 8 0
BBX 6 4 1 3
BITMAP
FC
FC
04
04
ENDCHAR
STARTCHAR 00AD
ENCODING 173
SWIDTH 360 0
DWIDTH 6 0
BBX 4 2 1 4
BITMAP
F0
F0
ENDCHAR
STARTCHAR 00AE
ENCODING 174
SWIDTH 720 0
DWIDTH 12 0
BBX 10 12 1 0
BITMAP
1E00
3100
4080
DE40
9240
9240
9E40
9240
9240
4080
2180
1E00
ENDCHAR
STARTCHAR 00AF
ENCODING 175
SWIDTH 480 0
DWIDTH 8 0
BBX 5 2 1 10
BITMAP
F8
F8
ENDCHAR
STARTCHAR 00B0
ENCODING 176
SWIDTH 360 0
DWIDTH 6 0
BBX 4 4 1 8
BITMAP
60
F0
90
F0
ENDCHAR
STARTCHAR 00B1
ENCODING 177
SWIDTH 540 0
DWIDTH 9 0
BBX 7 11 1 0
BITMAP
30
30
30
FE
FE
30
30
30
00
FC
FC
ENDCHAR
STARTCHAR 00B2
ENCODING 178
SWIDTH 420 0
DWIDTH 7 0
BBX 5 7 1 5
BITMAP
70
F0
10
30
60
F8
F8
ENDCHAR
STARTCHAR 00B3
ENCODING 179
SWIDTH 420 0
DWIDTH 7 0
BBX 5 7 1 5
BITMAP
70
F8
10
30
98
F0
20
ENDCHAR
STARTCHAR 00B4
ENCODING 180
SWIDTH 360 0
DWIDTH 6 0
BBX 4 3 1 10
BITMAP
70
60
C0
ENDCHAR
STARTCHAR 00B5
ENCODING 181
SWIDTH 540 0
DWIDTH 9 0
BBX 7 12 1 -3
BITMAP
C6
C6
C6
C6
C6
C6
E6
FE
FE
C0
C0
C0
ENDCHAR
STARTCHAR 00B6
ENCODING 182
SWIDTH 480 0
DWIDTH 8 0
BBX 6 12 1 0
BITMAP
3C
7C
FC
FC
FC
FC
7C
3C
0C
0C
0C
0C
ENDCHAR
STARTCHAR 00B7
ENCODING 183
SWIDTH 300 0
DWIDTH 5 0
BBX 2 3 1 4
BITMAP
C0
C0
40
ENDCHAR
STARTCHAR 00B8
ENCODING 184
SWIDTH 300 0
DWIDTH 5 0
BBX 3 4 1 -4
BITMAP
C0
60
E0
80
ENDCHAR
STARTCHAR 00B9
ENCODING 185
SWIDTH 300 0
DWIDTH 5 0
BBX 3 7 1 5
BITMAP
60
E0
60
60
60
60
60
ENDCHAR
STARTCHAR 00BA
ENCODING 186
SWIDTH 420 0
DWIDTH 7 0
BBX 5 6 1 6
BITMAP
70
D8
88
88
88
70
ENDCHAR
STARTCHAR 00BB
ENCODING 187
SWIDTH 480 0
DWIDTH 8 0
BBX 6 7 1 1
BITMAP
D0
58
6C
24
6C
48
D8
ENDCHAR
STARTCHAR 00BC
ENCODING 188
SWIDTH 660 0
DWIDTH 11 0
BBX 9 12 1 0
BITMAP
6000
E300
6200
6600
6400
6980
1B80
1380
3580
2780
2780
0180
ENDCHAR
STARTCHAR 00BD
ENCODING 189
SWIDTH 720 0
DWIDTH 12 0
BBX 10 12 1 0
BITMAP
6000
E200
6200
6400
6C00
6900
7BC0
16C0
30C0
2180
63C0
07C0
ENDCHAR
STARTCHAR 00BE
ENCODING 190
SWIDTH 720 0
DWIDTH 12 0
BBX 11 12 1 0
BITMAP
7000
F000
1180
3100
9A00
F6C0
24C0
0DC0
0BC0
1BE0
13E0
00C0
ENDCHAR
STARTCHAR 00BF
ENCODING 191
SWIDTH 480 0
DWIDTH 8 0
BBX 6 12 1 -3
BITMAP
30
38
10
00
30
30
70
E0
C0
CC
FC
78
ENDCHAR
STARTCHAR 00C0
ENCODING 192
SWIDTH 720 0
DWIDTH 12 0
BBX 10 16 1 0
BITMAP
3000
1800
0C00
0000
0C00
1C00
1E00
1E00
3600
3300
3300
7F00
7F80
6180
C180
C1C0
ENDCHAR
STARTCHAR 00C1
ENCODING 193
SWIDTH 720 0
DWIDTH 12 0
BBX 10 16 1 0
BITMAP
0600
0600
0C00
0000
0C00
1C00
1E00
1E00
3600
3300
3300
7F00
7F80
6180
C180
C1C0
ENDCHAR
STARTCHAR 00C2
ENCODING 194
SWIDTH 720 0
DWIDTH 12 0
BBX 10 16 1 0
BITMAP
0800
1C00
3600
0000
0C00
1C00
1E00
1E00
3600
3300
3300
7F00
7F80
6180
C180
C1C0
ENDCHAR
STARTCHAR 00C3
ENCODING 195
SWIDTH 720 0
DWIDTH 12 0
BBX 10 15 1 0
BITMAP
3E00
3E00
0000
0C00
1C00
1E00
1E00
3600
3300
3300
7F00
7F80
6180
C180
C1C0
ENDCHAR
STARTCHAR 00C4
ENCODING 196
SWIDTH 720 0
DWIDTH 12 0
BBX 10 15 1 0
BITMAP
3200
3300
0000
0C00
1C00
1E00
1E00
3600
3300
3300
7F00
7F80
6180
C180
C1C0
ENDCHAR
STARTCHAR 00C5
ENCODING 197
SWIDTH 720 0
DWIDTH 12 0
BBX 10 16 1 0
BITMAP
0C00
1400
0C00
0000
0C00
1C00
1E00
1E00
3600
3300
3300
7F00
7F80
6180
C180
C1C0
ENDCHAR
STARTCHAR 00C6
ENCODING 198
SWIDTH 900 0
DWIDTH 15 0
BBX 13 12 1 0
BITMAP
07F8
07F8
0F80
0F80
1DF0
19F0
3980
3F80
7F80
6180
E1F8
C1F8
ENDCHAR
STARTCHAR 00C7
ENCODING 199
SWIDTH 660 0
DWIDTH 11 0
BBX 9 15 1 -4
BITMAP
3E00
7F00
6300
C380
C000
C000
C000
C000
C380
6300
7F00
3E00
1C00
0C00
0C00
ENDCHAR
STARTCHAR 00C8
ENCODING 200
SWIDTH 540 0
DWIDTH 9 0
BBX 7 16 1 0
BITMAP
70
30
18
00
FE
FE
C0
C0
C0
FE
FE
C0
C0
C0
FE
FE
ENDCHAR
STARTCHAR 00C9
ENCODING 201
SWIDTH 540 0
DWIDTH 9 0
BBX 7 16 1 0
BITMAP
0E
0C
18
00
FE
FE
C0
C0
C0
FE
FE
C0
C0
C0
FE
FE
ENDCHAR
STARTCHAR 00CA
ENCODING 202
SWIDTH 540 0
DWIDTH 9 0
BBX 7 16 1 0
BITMAP
18
3C
64
00
FE
FE
C0
C0
C0
FE
FE
C0
C0
C0
FE
FE
ENDCHAR
STARTCHAR 00CB
ENCODING 203
SWIDTH 540 0
DWIDTH 9 0
BBX 7 15 1 0
BITMAP
66
66
00
FE
FE
C0
C0
C0
FE
FE
C0
C0
C0
FE
FE
ENDCHAR
STARTCHAR 00CC
ENCODING 204
SWIDTH 360 0
DWIDTH 6 0
BBX 3 16 1 0
BITMAP
C0
E0
60
00
60
60
60
60
60
60
60
60
60
60
60
60
ENDCHAR
STARTCHAR 00CD
ENCODING 205
SWIDTH 360 0
DWIDTH 6 0
BBX 4 16 1 0
BITMAP
30
60
C0
00
C0
C0
C0
C0
C0
C0
C0
C0
C0
C0
C0
C0
ENDCHAR
STARTCHAR 00CE
ENCODING 206
SWIDTH 420 0
DWIDTH 7 0
BBX 5 16 1 0
BITMAP
20
70
D8
00
60
60
60
60
60
60
60
60
60
60
60
60
ENDCHAR
STARTCHAR 00CF
ENCODING 207
SWIDTH 420 0
DWIDTH 7 0
BBX 5 15 1 0
BITMAP
98
D8
00
70
70
70
70
70
70
70
70
70
70
70
70
ENDCHAR
STARTCHAR 00D0
ENCODING 208
SWIDTH 660 0
DWIDTH 11 0
BBX 9 12 1 0
BITMAP
7C00
7F00
6300
6380
6180
F980
F980
6180
6380
6300
7F00
7C00
ENDCHAR
STARTCHAR 00D1
ENCODING 209
SWIDTH 660 0
DWIDTH 11 0
BBX 9 15 1 0
BITMAP
3E00
3E00
0000
E180
E180
F180
F180
D980
D980
CD80
CF80
C780
C780
C380
C380
ENDCHAR
STARTCHAR 00D2
ENCODING 210
SWIDTH 660 0
DWIDTH 11 0
BBX 9 16 1 0
BITMAP
3000
1800
1800
0400
1E00
7F00
6300
E380
C180
C180
C180
C180
E380
6300
7F00
1E00
ENDCHAR
STARTCHAR 00D3
ENCODING 211
SWIDTH 660 0
DWIDTH 11 0
BBX 9 16 1 0
BITMAP
0600
0C00
0C00
0000
1E00
7F00
6300
E380
C180
C180
C180
C180
E380
6300
7F00
1E00
ENDCHAR
STARTCHAR 00D4
ENCODING 212
SWIDTH 660 0
DWIDTH 11 0
BBX 9 16 1 0
BITMAP
0800
1C00
3600
0000
1E00
7F00
6300
E380
C180
C180
C180
C180
E380
6300
7F00
1E00
ENDCHAR
STARTCHAR 00D5
ENCODING 213
SWIDTH 660 0
DWIDTH 11 0
BBX 9 15 1 0
BITMAP
3E00
3E00
0000
1E00
7F00
6300
E380
C180
C180
C180
C180
E380
6300
7F00
1E00
ENDCHAR
STARTCHAR 00D6
ENCODING 214
SWIDTH 660 0
DWIDTH 11 0
BBX 9 15 1 0
BITMAP
3600
3600
0000
1E00
7F00
6300
E380
C180
C180
C180
C180
E380
6300
7F00
1E00
ENDCHAR
STARTCHAR 00D7
ENCODING 215
SWIDTH 540 0
DWIDTH 9 0
BBX 7 8 1 2
BITMAP
04
C6
EC
78
38
7C
EE
C4
ENDCHAR
STARTCHAR 00D8
ENCODING 216
SWIDTH 660 0
DWIDTH 11 0
BBX 9 13 1 -1
BITMAP
1D80
7F00
6300
E780
C580
CD80
C980
D980
F380
6300
7F00
5E00
C000
ENDCHAR
STARTCHAR 00D9
ENCODING 217
SWIDTH 660 0
DWIDTH 11 0
BBX 8 16 1 0
BITMAP
70
30
18
00
C3
C3
C3
C3
C3
C3
C3
C3
C3
E7
7E
3C
ENDCHAR
STARTCHAR 00DA
ENCODING 218
SWIDTH 660 0
DWIDTH 11 0
BBX 8 16 1 0
BITMAP
0E
0C
18
00
C3
C3
C3
C3
C3
C3
C3
C3
C3
E7
7E
3C
ENDCHAR
STARTCHAR 00DB
ENCODING 219
SWIDTH 660 0
DWIDTH 11 0
BBX 8 16 1 0
BITMAP
08
1C
26
00
C3
C3
C3
C3
C3
C3
C3
C3
C3
E7
7E
3C
ENDCHAR
STARTCHAR 00DC
ENCODING 220
SWIDTH 660 0
DWIDTH 11 0
BBX 8 15 1 0
BITMAP
26
66
00
C3
C3
C3
C3
C3
C3
C3
C3
C3
E7
7E
3C
ENDCHAR
STARTCHAR 00DD
ENCODING 221
SWIDTH 660 0
DWIDTH 11 0
BBX 9 16 1 0
BITMAP
0600
0C00
1800
0000
C380
E300
6300
7600
3600
3C00
1C00
1800
1800
1800
1800
1800
ENDCHAR
STARTCHAR 00DE
ENCODING 222
SWIDTH 600 0
DWIDTH 10 0
BBX 8 12 1 0
BITMAP
C0
C0
FC
FE
C7
C3
C3
C7
FE
FC
C0
C0
ENDCHAR
STARTCHAR 00DF
ENCODING 223
SWIDTH 600 0
DWIDTH 10 0
BBX 8 13 1 0
BITMAP
38
7C
EE
C6
CC
CC
CC
CE
C7
C3
C3
DF
DE
ENDCHAR
STARTCHAR 00E0
ENCODING 224
SWIDTH 540 0
DWIDTH 9 0
BBX 7 13 1 0
BITMAP
60
30
30
08
38
FC
CE
1E
7E
C6
CE
FE
76
ENDCHAR
STARTCHAR 00E1
ENCODING 225
SWIDTH 540 0
DWIDTH 9 0
BBX 7 13 1 0
BITMAP
0C
18
18
00
38
FC
CE
1E
7E
C6
CE
FE
76
ENDCHAR
STARTCHAR 00E2
ENCODING 226
SWIDTH 540 0
DWIDTH 9 0
BBX 7 13 1 0
BITMAP
30
38
6C
00
38
FC
CE
1E
7E
C6
CE
FE
76
ENDCHAR
STARTCHAR 00E3
ENCODING 227
SWIDTH 540 0
DWIDTH 9 0
BBX 7 13 1 0
BITMAP
24
7C
48
00
38
FC
CE
1E
7E
C6
CE
FE
76
ENDCHAR
STARTCHAR 00E4
ENCODING 228
SWIDTH 540 0
DWIDTH 9 0
BBX 7 12 1 0
BITMAP
6C
6C
00
38
FC
CE
1E
7E
C6
CE
FE
76
ENDCHAR
STARTCHAR 00E5
ENCODING 229
SWIDTH 540 0
DWIDTH 9 0
BBX 7 13 1 0
BITMAP
38
28
38
00
38
FC
CE
1E
7E
C6
CE
FE
76
ENDCHAR
STARTCHAR 00E6
ENCODING 230
SWIDTH 840 0
DWIDTH 14 0
BBX 12 9 1 0
BITMAP
39C0
7FE0
C670
3FF0
FFF0
C600
C600
FFE0
79F0
ENDCHAR
STARTCHAR 00E7
ENCODING 231
SWIDTH 540 0
DWIDTH 9 0
BBX 7 13 1 -4
BITMAP
38
7C
E6
C6
C0
C0
C6
7C
38
18
08
18
10
ENDCHAR
STARTCHAR 00E8
ENCODING 232
SWIDTH 540 0
DWIDTH 9 0
BBX 7 13 1 0
BITMAP
60
30
30
00
38
7C
C6
FE
FE
C0
E4
7E
3C
ENDCHAR
STARTCHAR 00E9
ENCODING 233
SWIDTH 540 0
DWIDTH 9 0
BBX 7 13 1 0
BITMAP
0C
18
10
00
38
7C
C6
FE
FE
C0
E4
7E
3C
ENDCHAR
STARTCHAR 00EA
ENCODING 234
SWIDTH 540 0
DWIDTH 9 0
BBX 7 13 1 0
BITMAP
30
38
6C
00
38
7C
C6
FE
FE
C0
E4
7E
3C
ENDCHAR
STARTCHAR 00EB
ENCODING 235
SWIDTH 540 0
DWIDTH 9 0
BBX 7 12 1 0
BITMAP
4C
6C
00
38
7C
C6
FE
FE
C0
E4
7E
3C
ENDCHAR
STARTCHAR 00EC
ENCODING 236
SWIDTH 360 0
DWIDTH 6 0
BBX 3 13 1 0
BITMAP
C0
E0
60
00
60
60
60
60
60
60
60
60
60
ENDCHAR
STARTCHAR 00ED
ENCODING 237
SWIDTH 360 0
DWIDTH 6 0
BBX 4 13 1 0
BITMAP
30
60
C0
00
C0
C0
C0
C0
C0
C0
C0
C0
C0
ENDCHAR
STARTCHAR 00EE
ENCODING 238
SWIDTH 420 0
DWIDTH 7 0
BBX 5 13 1 0
BITMAP
20
70
D8
00
60
60
60
60
60
60
60
60
60
ENDCHAR
STARTCHAR 00EF
ENCODING 239
SWIDTH 420 0
DWIDTH 7 0
BBX 5 12 1 0
BITMAP
D8
D8
00
70
70
70
70
70
70
70
70
70
ENDCHAR
STARTCHAR 00F0
ENCODING 240
SWIDTH 600 0
DWIDTH 10 0
BBX 7 12 1 1
BITMAP
74
3C
3C
2E
7E
7E
C6
C6
C6
E6
7C
38
ENDCHAR
STARTCHAR 00F1
ENCODING 241
SWIDTH 540 0
DWIDTH 9 0
BBX 7 13 1 0
BITMAP
24
7C
48
00
DC
FE
C6
C6
C6
C6
C6
C6
C6
ENDCHAR
STARTCHAR 00F2
ENCODING 242
SWIDTH 600 0
DWIDTH 10 0
BBX 7 13 1 0
BITMAP
70
30
18
00
3C
7E
E6
C6
C6
C6
E6
7E
3C
ENDCHAR
STARTCHAR 00F3
ENCODING 243
SWIDTH 600 0
DWIDTH 10 0
BBX 7 13 1 0
BITMAP
0C
18
18
00
3C
7E
E6
C6
C6
C6
E6
7E
3C
ENDCHAR
STARTCHAR 00F4
ENCODING 244
SWIDTH 600 0
DWIDTH 10 0
BBX 7 13 1 0
BITMAP
18
3C
6C
00
3C
7E
E6
C6
C6
C6
E6
7E
3C
ENDCHAR
STARTCHAR 00F5
ENCODING 245
SWIDTH 600 0
DWIDTH 10 0
BBX 7 13 1 0
BITMAP
24
7C
48
00
3C
7E
E6
C6
C6
C6
E6
7E
3C
ENDCHAR
STARTCHAR 00F6
ENCODING 246
SWIDTH 600 0
DWIDTH 10 0
BBX 7 12 1 0
BITMAP
64
6C
00
3C
7E
E6
C6
C6
C6
E6
7E
3C
ENDCHAR
STARTCHAR 00F7
ENCODING 247
SWIDTH 600 0
DWIDTH 10 0
BBX 7 10 1 1
BITMAP
10
18
18
00
FE
FE
00
10
18
18
ENDCHAR
STARTCHAR 00F8
ENCODING 248
SWIDTH 600 0
DWIDTH 10 0
BBX 7 11 1 -1
BITMAP
06
3C
7E
EE
CE
D6
D6
E6
7E
7C
40
ENDCHAR
STARTCHAR 00F9
ENCODING 249
SWIDTH 540 0
DWIDTH 9 0
BBX 7 13 1 0
BITMAP
60
30
10
08
C6
C6
C6
C6
C6
C6
C6
FE
76
ENDCHAR
STARTCHAR 00FA
ENCODING 250
SWIDTH 540 0
DWIDTH 9 0
BBX 7 13 1 0
BITMAP
0C
18
10
00
C6
C6
C6
C6
C6
C6
C6
FE
76
ENDCHAR
STARTCHAR 00FB
ENCODING 251
SWIDTH 540 0
DWIDTH 9 0
BBX 7 13 1 0
BITMAP
38
28
6C
00
C6
C6
C6
C6
C6
C6
C6
FE
76
ENDCHAR
STARTCHAR 00FC
ENCODING 252
SWIDTH 540 0
DWIDTH 9 0
BBX 7 12 1 0
BITMAP
6C
6C
00
C6
C6
C6
C6
C6
C6
C6
FE
76
ENDCHAR
STARTCHAR 00FD
ENCODING 253
SWIDTH 540 0
DWIDTH 9 0
BBX 7 16 1 -3
BITMAP
0C
18
18
00
C6
C6
6C
6C
6C
38
38
38
10
30
70
60
ENDCHAR
STARTCHAR 00FE
ENCODING 254
SWIDTH 540 0
DWIDTH 9 0
BBX 7 16 1 -3
BITMAP
C0
C0
C0
C0
DC
FE
E6
C6
C6
C6
E6
FE
DC
C0
C0
C0
ENDCHAR
STARTCHAR 00FF
ENCODING 255
SWIDTH 540 0
DWIDTH 9 0
BBX 7 15 1 -3
BITMAP
6C
6C
00
C6
C6
6C
6C
6C
38
38
38
10
30
70
60
ENDCHAR
STARTCHAR 0100
ENCODING 256
SWIDTH 720 0
DWIDTH 12 0
BBX 10 15 1 0
BITMAP
3E00
3E00
0000
0C00
1C00
1E00
1E00
3600
3300
3300
7F00
7F80
6180
C180
C1C0
ENDCHAR
STARTCHAR 0101
ENCODING 257
SWIDTH 540 0
DWIDTH 9 0
BBX 7 12 1 0
BITMAP
7C
7C
00
38
FC
CE
1E
7E
C6
CE
FE
76
ENDCHAR
STARTCHAR 0102
ENCODING 258
SWIDTH 720 0
DWIDTH 12 0
BBX 10 16 1 0
BITMAP
3200
3E00
1C00
0000
0C00
1C00
1E00
1E00
3600
3300
3300
7F00
7F80
6180
C180
C1C0
ENDCHAR
STARTCHAR 0103
ENCODING 259
SWIDTH 540 0
DWIDTH 9 0
BBX 7 13 1 0
BITMAP
4C
7C
38
00
38
FC
CE
1E
7E
C6
CE
FE
76
ENDCHAR
STARTCHAR 0104
ENCODING 260
SWIDTH 720 0
DWIDTH 12 0
BBX 10 15 1 -3
BITMAP
0C00
1C00
1E00
1E00
3600
3300
3300
7F00
7F80
6180
C180
C1C0
0100
0380
0180
ENDCHAR
STARTCHAR 0105
ENCODING 261
SWIDTH 540 0
DWIDTH 9 0
BBX 7 12 1 -3
BITMAP
38
FC
CE
1E
7E
C6
CE
FE
76
0C
0E
0E
ENDCHAR
STARTCHAR 0106
ENCODING 262
SWIDTH 660 0
DWIDTH 11 0
BBX 9 16 1 0
BITMAP
0600
0C00
0800
0000
3E00
7F00
6300
C380
C000
C000
C000
C000
C380
6300
7F00
3E00
ENDCHAR
STARTCHAR 0107
ENCODING 263
SWIDTH 540 0
DWIDTH 9 0
BBX 7 13 1 0
BITMAP
0C
18
10
00
38
7C
E6
C6
C0
C0
E6
7C
38
ENDCHAR
STARTCHAR 0108
ENCODING 264
SWIDTH 660 0
DWIDTH 11 0
BBX 9 16 1 0
BITMAP
0800
1C00
3600
0000
3E00
7F00
6300
C380
C000
C000
C000
C000
C380
6300
7F00
3E00
ENDCHAR
STARTCHAR 0109
ENCODING 265
SWIDTH 540 0
DWIDTH 9 0
BBX 7 13 1 0
BITMAP
30
38
6C
00
38
7C
E6
C6
C0
C0
E6
7C
38
ENDCHAR
STARTCHAR 010A
ENCODING 266
SWIDTH 660 0
DWIDTH 11 0
BBX 9 15 1 0
BITMAP
0800
1800
0000
3E00
7F00
6300
C380
C000
C000
C000
C000
C380
6300
7F00
3E00
ENDCHAR
STARTCHAR 010B
ENCODING 267
SWIDTH 540 0
DWIDTH 9 0
BBX 7 12 1 0
BITMAP
30
30
00
38
7C
E6
C6
C0
C0
E6
7C
38
ENDCHAR
STARTCHAR 010C
ENCODING 268
SWIDTH 660 0
DWIDTH 11 0
BBX 9 15 1 0
BITMAP
3600
1C00
0800
3E00
7F00
6300
C380
C000
C000
C000
C000
C380
6300
7F00
3E00
ENDCHAR
STARTCHAR 010D
ENCODING 269
SWIDTH 540 0
DWIDTH 9 0
BBX 7 13 1 0
BITMAP
6C
38
30
00
38
7C
E6
C6
C0
C0
E6
7C
38
ENDCHAR
STARTCHAR 010E
ENCODING 270
SWIDTH 600 0
DWIDTH 10 0
BBX 8 16 1 0
BITMAP
CC
78
30
00
FC
FE
C7
C3
C3
C3
C3
C3
C3
C7
FE
FC
ENDCHAR
STARTCHAR 010F
ENCODING 271
SWIDTH 720 0
DWIDTH 12 0
BBX 10 13 1 0
BITMAP
0640
0640
06C0
06C0
3680
7E00
E600
C600
C600
C600
E600
7E00
7600
ENDCHAR
STARTCHAR 0110
ENCODING 272
SWIDTH 660 0
DWIDTH 11 0
BBX 9 12 1 0
BITMAP
7C00
7F00
6300
6380
6180
F980
F980
6180
6380
6300
7F00
7C00
ENDCHAR
STARTCHAR 0111
ENCODING 273
SWIDTH 600 0
DWIDTH 10 0
BBX 8 13 1 0
BITMAP
06
1F
1F
06
36
7E
E6
C6
C6
C6
E6
7E
76
ENDCHAR
STARTCHAR 0112
ENCODING 274
SWIDTH 540 0
DWIDTH 9 0
BBX 7 15 1 0
BITMAP
7E
7E
00
FE
FE
C0
C0
C0
FE
FE
C0
C0
C0
FE
FE
ENDCHAR
STARTCHAR 0113
ENCODING 275
SWIDTH 540 0
DWIDTH 9 0
BBX 7 12 1 0
BITMAP
7C
7C
00
38
7C
C6
FE
FE
C0
E4
7E
3C
ENDCHAR
STARTCHAR 0114
ENCODING 276
SWIDTH 540 0
DWIDTH 9 0
BBX 7 16 1 0
BITMAP
64
3C
3C
00
FE
FE
C0
C0
C0
FE
FE
C0
C0
C0
FE
FE
ENDCHAR
STARTCHAR 0115
ENCODING 277
SWIDTH 540 0
DWIDTH 9 0
BBX 7 13 1 0
BITMAP
4C
7C
38
00
38
7C
C6
FE
FE
C0
E4
7E
3C
ENDCHAR
STARTCHAR 0116
ENCODING 278
SWIDTH 540 0
DWIDTH 9 0
BBX 7 15 1 0
BITMAP
18
18
00
FE
FE
C0
C0
C0
FE
FE
C0
C0
C0
FE
FE
ENDCHAR
STARTCHAR 0117
ENCODING 279
SWIDTH 540 0
DWIDTH 9 0
BBX 7 12 1 0
BITMAP
30
30
00
38
7C
C6
FE
FE
C0
E4
7E
3C
ENDCHAR
STARTCHAR 0118
ENCODING 280
SWIDTH 540 0
DWIDTH 9 0
BBX 7 15 1 -3
BITMAP
FE
FE
C0
C0
C0
FE
FE
C0
C0
C0
FE
FE
08
0C
0C
ENDCHAR
STARTCHAR 0119
ENCODING 281
SWIDTH 540 0
DWIDTH 9 0
BBX 7 12 1 -3
BITMAP
38
7C
E6
C6
FE
FE
C0
7E
3C
18
1C
1C
ENDCHAR
STARTCHAR 011A
ENCODING 282
SWIDTH 540 0
DWIDTH 9 0
BBX 7 16 1 0
BITMAP
66
3C
18
00
FE
FE
C0
C0
C0
FE
FE
C0
C0
C0
FE
FE
ENDCHAR
STARTCHAR 011B
ENCODING 283
SWIDTH 540 0
DWIDTH 9 0
BBX 7 13 1 0
BITMAP
6C
38
30
00
38
7C
C6
FE
FE
C0
E4
7E
3C
ENDCHAR
STARTCHAR 011C
ENCODING 284
SWIDTH 660 0
DWIDTH 11 0
BBX 9 16 1 0
BITMAP
0800
1C00
3600
0000
3E00
7F00
6300
E380
C000
C000
CF80
CF80
C380
6380
7F80
3E00
ENDCHAR
STARTCHAR 011D
ENCODING 285
SWIDTH 540 0
DWIDTH 9 0
BBX 7 16 1 -3
BITMAP
30
38
6C
00
3E
7E
E6
C6
C6
C6
E6
7E
3E
46
FE
78
ENDCHAR
STARTCHAR 011E
ENCODING 286
SWIDTH 660 0
DWIDTH 11 0
BBX 9 15 1 0
BITMAP
2600
3E00
0800
3E00
7F00
6300
E380
C000
C000
CF80
CF80
C380
6380
7F80
3E00
ENDCHAR
STARTCHAR 011F
ENCODING 287
SWIDTH 540 0
DWIDTH 9 0
BBX 7 16 1 -3
BITMAP
4C
7C
38
00
3E
7E
E6
C6
C6
C6
E6
7E
3E
46
FE
78
ENDCHAR
STARTCHAR 0120
ENCODING 288
SWIDTH 660 0
DWIDTH 11 0
BBX 9 15 1 0
BITMAP
1800
1800
0000
3E00
7F00
6300
E380
C000
C000
CF80
CF80
C380
6380
7F80
3E00
ENDCHAR
STARTCHAR 0121
ENCODING 289
SWIDTH 540 0
DWIDTH 9 0
BBX 7 15 1 -3
BITMAP
38
10
00
3E
7E
E6
C6
C6
C6
E6
7E
3E
46
FE
78
ENDCHAR
STARTCHAR 0122
ENCODING 290
SWIDTH 660 0
DWIDTH 11 0
BBX 9 16 1 -4
BITMAP
3E00
7F00
6300
E380
C000
C000
CF80
CF80
C380
6380
7F80
3E00
0800
0800
0800
1800
ENDCHAR
STARTCHAR 0123
ENCODING 291
SWIDTH 540 0
DWIDTH 9 0
BBX 7 17 1 -3
BITMAP
18
10
10
10
00
3E
7E
E6
C6
C6
C6
E6
7E
3E
46
FE
78
ENDCHAR
STARTCHAR 0124
ENCODING 292
SWIDTH 660 0
DWIDTH 11 0
BBX 9 16 1 0
BITMAP
0800
1C00
3600
0000
C180
C180
C180
C180
C180
FF80
FF80
C180
C180
C180
C180
C180
ENDCHAR
STARTCHAR 0125
ENCODING 293
SWIDTH 540 0
DWIDTH 9 0
BBX 7 16 1 0
BITMAP
30
68
04
C0
C0
C0
C0
DC
FE
E6
C6
C6
C6
C6
C6
C6
ENDCHAR
STARTCHAR 0126
ENCODING 294
SWIDTH 720 0
DWIDTH 12 0
BBX 10 12 1 0
BITMAP
6180
6180
FFC0
FFC0
6180
7F80
7F80
6180
6180
6180
6180
6180
ENDCHAR
STARTCHAR 0127
ENCODING 295
SWIDTH 600 0
DWIDTH 10 0
BBX 8 13 1 0
BITMAP
60
F8
F8
60
6E
7E
67
63
63
63
63
63
63
ENDCHAR
STARTCHAR 0128
ENCODING 296
SWIDTH 420 0
DWIDTH 7 0
BBX 5 15 1 0
BITMAP
F8
F8
00
60
60
60
60
60
60
60
60
60
60
60
60
ENDCHAR
STARTCHAR 0129
ENCODING 297
SWIDTH 420 0
DWIDTH 7 0
BBX 5 12 1 0
BITMAP
F8
F8
00
70
70
70
70
70
70
70
70
70
ENDCHAR
STARTCHAR 012A
ENCODING 298
SWIDTH 420 0
DWIDTH 7 0
BBX 5 15 1 0
BITMAP
F8
F8
00
60
60
60
60
60
60
60
60
60
60
60
60
ENDCHAR
STARTCHAR 012B
ENCODING 299
SWIDTH 420 0
DWIDTH 7 0
BBX 5 12 1 0
BITMAP
F8
F8
00
60
60
60
60
60
60
60
60
60
ENDCHAR
STARTCHAR 012C
ENCODING 300
SWIDTH 360 0
DWIDTH 6 0
BBX 5 16 1 0
BITMAP
98
F0
70
00
60
60
60
60
60
60
60
60
60
60
60
60
ENDCHAR
STARTCHAR 012D
ENCODING 301
SWIDTH 360 0
DWIDTH 6 0
BBX 5 12 1 0
BITMAP
98
F0
00
60
60
60
60
60
60
60
60
60
ENDCHAR
STARTCHAR 012E
ENCODING 302
SWIDTH 300 0
DWIDTH 5 0
BBX 3 15 1 -3
BITMAP
60
60
60
60
60
60
60
60
60
60
60
E0
80
C0
C0
ENDCHAR
STARTCHAR 012F
ENCODING 303
SWIDTH 300 0
DWIDTH 5 0
BBX 3 15 1 -3
BITMAP
60
E0
40
60
60
60
60
60
60
60
60
E0
80
C0
C0
ENDCHAR
STARTCHAR 0130
ENCODING 304
SWIDTH 300 0
DWIDTH 5 0
BBX 2 15 1 0
BITMAP
C0
C0
00
C0
C0
C0
C0
C0
C0
C0
C0
C0
C0
C0
C0
ENDCHAR
STARTCHAR 0131
ENCODING 305
SWIDTH 300 0
DWIDTH 5 0
BBX 2 9 1 0
BITMAP
C0
C0
C0
C0
C0
C0
C0
C0
C0
ENDCHAR
STARTCHAR 0132
ENCODING 306
SWIDTH 780 0
DWIDTH 13 0
BBX 11 12 1 0
BITMAP
C060
C060
C060
C060
C060
C060
C060
C060
CC60
CCE0
CFC0
C780
ENDCHAR
STARTCHAR 0133
ENCODING 307
SWIDTH 540 0
DWIDTH 9 0
BBX 6 15 1 -3
BITMAP
CC
CC
44
CC
CC
CC
CC
CC
CC
CC
CC
CC
0C
1C
18
ENDCHAR
STARTCHAR 0134
ENCODING 308
SWIDTH 600 0
DWIDTH 10 0
BBX 8 16 1 0
BITMAP
04
0E
1B
00
06
06
06
06
06
06
06
06
C6
CE
FC
78
ENDCHAR
STARTCHAR 0135
ENCODING 309
SWIDTH 420 0
DWIDTH 7 0
BBX 5 15 1 -3
BITMAP
70
D8
00
70
70
70
70
70
70
70
70
70
70
E0
C0
ENDCHAR
STARTCHAR 0136
ENCODING 310
SWIDTH 660 0
DWIDTH 11 0
BBX 9 16 1 -4
BITMAP
C380
C700
CE00
CC00
DC00
F800
FC00
EC00
CE00
C700
C700
C380
1800
1800
1000
1000
ENDCHAR
STARTCHAR 0137
ENCODING 311
SWIDTH 540 0
DWIDTH 9 0
BBX 7 17 1 -4
BITMAP
C0
C0
C0
C0
CE
CC
D8
F8
F8
FC
CC
CE
C6
10
10
30
10
ENDCHAR
STARTCHAR 0138
ENCODING 312
SWIDTH 600 0
DWIDTH 10 0
BBX 8 9 1 0
BITMAP
C6
CE
DC
F8
F8
FC
CC
CE
C7
ENDCHAR
STARTCHAR 0139
ENCODING 313
SWIDTH 540 0
DWIDTH 9 0
BBX 7 16 1 0
BITMAP
30
60
40
00
C0
C0
C0
C0
C0
C0
C0
C0
C0
C0
FE
FE
ENDCHAR
STARTCHAR 013A
ENCODING 314
SWIDTH 360 0
DWIDTH 6 0
BBX 4 16 1 0
BITMAP
70
60
C0
C0
C0
C0
C0
C0
C0
C0
C0
C0
C0
C0
C0
C0
ENDCHAR
STARTCHAR 013B
ENCODING 315
SWIDTH 540 0
DWIDTH 9 0
BBX 7 16 1 -4
BITMAP
C0
C0
C0
C0
C0
C0
C0
C0
C0
C0
FE
FE
10
10
10
30
ENDCHAR
STARTCHAR 013C
ENCODING 316
SWIDTH 300 0
DWIDTH 5 0
BBX 2 17 1 -4
BITMAP
C0
C0
C0
C0
C0
C0
C0
C0
C0
C0
C0
C0
C0
C0
C0
C0
80
ENDCHAR
STARTCHAR 013D
ENCODING 317
SWIDTH 540 0
DWIDTH 9 0
BBX 7 12 1 0
BITMAP
C4
C4
C4
CC
C0
C0
C0
C0
C0
C0
FE
FE
ENDCHAR
STARTCHAR 013E
ENCODING 318
SWIDTH 420 0
DWIDTH 7 0
BBX 5 13 1 0
BITMAP
C8
C8
C8
D8
C0
C0
C0
C0
C0
C0
C0
C0
C0
ENDCHAR
STARTCHAR 013F
ENCODING 319
SWIDTH 540 0
DWIDTH 9 0
BBX 7 12 1 0
BITMAP
C0
C0
C0
C0
CC
CC
C0
C0
C0
C0
FE
FE
ENDCHAR
STARTCHAR 0140
ENCODING 320
SWIDTH 420 0
DWIDTH 7 0
BBX 5 13 1 0
BITMAP
C0
C0
C0
C0
C0
D8
D8
C0
C0
C0
C0
C0
C0
ENDCHAR
STARTCHAR 0141
ENCODING 321
SWIDTH 600 0
DWIDTH 10 0
BBX 8 12 1 0
BITMAP
60
60
60
60
78
F8
E0
60
60
60
7F
7F
ENDCHAR
STARTCHAR 0142
ENCODING 322
SWIDTH 360 0
DWIDTH 6 0
BBX 4 13 1 0
BITMAP
60
60
60
60
60
70
F0
E0
60
60
60
60
60
ENDCHAR
STARTCHAR 0143
ENCODING 323
SWIDTH 660 0
DWIDTH 11 0
BBX 9 16 1 0
BITMAP
0600
0C00
0C00
0000
E180
E180
F180
F180
D980
D980
CD80
CF80
C780
C780
C380
C380
ENDCHAR
STARTCHAR 0144
ENCODING 324
SWIDTH 540 0
DWIDTH 9 0
BBX 7 13 1 0
BITMAP
0C
18
18
00
DC
FE
C6
C6
C6
C6
C6
C6
C6
ENDCHAR
STARTCHAR 0145
ENCODING 325
SWIDTH 660 0
DWIDTH 11 0
BBX 9 16 1 -4
BITMAP
E180
E180
F180
F180
D980
D980
CD80
CF80
C780
C780
C380
C380
0000
0800
0800
1800
ENDCHAR
STARTCHAR 0146
ENCODING 326
SWIDTH 540 0
DWIDTH 9 0
BBX 7 13 1 -4
BITMAP
DC
FE
C6
C6
C6
C6
C6
C6
C6
10
10
10
30
ENDCHAR
STARTCHAR 0147
ENCODING 327
SWIDTH 660 0
DWIDTH 11 0
BBX 9 16 1 0
BITMAP
3200
3600
1C00
0000
E180
E180
F180
F180
D980
D980
CD80
CF80
C780
C780
C380
C380
ENDCHAR
STARTCHAR 0148
ENCODING 328
SWIDTH 540 0
DWIDTH 9 0
BBX 7 13 1 0
BITMAP
6C
38
10
00
DC
FE
C6
C6
C6
C6
C6
C6
C6
ENDCHAR
STARTCHAR 0149
ENCODING 329
SWIDTH 600 0
DWIDTH 10 0
BBX 8 13 1 0
BITMAP
C0
C0
C0
C0
EE
7F
63
63
63
63
63
63
63
ENDCHAR
STARTCHAR 014A
ENCODING 330
SWIDTH 660 0
DWIDTH 11 0
BBX 9 15 1 -3
BITMAP
E180
E180
F180
F180
D980
D980
CD80
CD80
C780
C780
C380
C380
0180
0780
0700
ENDCHAR
STARTCHAR 014B
ENCODING 331
SWIDTH 540 0
DWIDTH 9 0
BBX 7 12 1 -3
BITMAP
DC
FE
E6
C6
C6
C6
C6
C6
C6
06
1E
1C
ENDCHAR
STARTCHAR 014C
ENCODING 332
SWIDTH 660 0
DWIDTH 11 0
BBX 9 15 1 0
BITMAP
3E00
3E00
0000
1E00
7F00
6300
E380
C180
C180
C180
C180
E380
6300
7F00
1E00
ENDCHAR
STARTCHAR 014D
ENCODING 333
SWIDTH 600 0
DWIDTH 10 0
BBX 7 12 1 0
BITMAP
7C
7C
00
3C
7E
E6
C6
C6
C6
E6
7E
3C
ENDCHAR
STARTCHAR 014E
ENCODING 334
SWIDTH 660 0
DWIDTH 11 0
BBX 9 15 1 0
BITMAP
3600
3E00
0800
1E00
7F00
6300
E380
C180
C180
C180
C180
E380
6300
7F00
1E00
ENDCHAR
STARTCHAR 014F
ENCODING 335
SWIDTH 600 0
DWIDTH 10 0
BBX 7 13 1 0
BITMAP
64
7C
38
00
3C
7E
E6
C6
C6
C6
E6
7E
3C
ENDCHAR
STARTCHAR 0150
ENCODING 336
SWIDTH 660 0
DWIDTH 11 0
BBX 9 16 1 0
BITMAP
0F00
1B00
3600
0000
1E00
7F00
6300
E380
C180
C180
C180
C180
E380
6300
7F00
1E00
ENDCHAR
STARTCHAR 0151
ENCODING 337
SWIDTH 600 0
DWIDTH 10 0
BBX 7 13 1 0
BITMAP
16
36
2C
00
3C
7E
E6
C6
C6
C6
E6
7E
3C
ENDCHAR
STARTCHAR 0152
ENCODING 338
SWIDTH 900 0
DWIDTH 15 0
BBX 13 12 1 0
BITMAP
3FF8
7FF8
6300
C300
C300
C3F0
C3F0
C300
C300
E300
7FF8
3FF8
ENDCHAR
STARTCHAR 0153
ENCODING 339
SWIDTH 840 0
DWIDTH 14 0
BBX 12 9 1 0
BITMAP
3DE0
7FF0
C730
C7F0
C7F0
C700
E710
7FF0
3DE0
ENDCHAR
STARTCHAR 0154
ENCODING 340
SWIDTH 600 0
DWIDTH 10 0
BBX 8 16 1 0
BITMAP
0C
1C
18
00
FC
FE
C7
C3
C3
C7
FE
FC
CE
C6
C7
C3
ENDCHAR
STARTCHAR 0155
ENCODING 341
SWIDTH 420 0
DWIDTH 7 0
BBX 5 13 1 0
BITMAP
18
30
20
00
D8
F8
F8
C0
C0
C0
C0
C0
C0
ENDCHAR
STARTCHAR 0156
ENCODING 342
SWIDTH 600 0
DWIDTH 10 0
BBX 8 16 1 -4
BITMAP
FC
FE
C7
C3
C3
C7
FE
FC
CE
C6
C7
C3
18
18
10
30
ENDCHAR
STARTCHAR 0157
ENCODING 343
SWIDTH 420 0
DWIDTH 7 0
BBX 5 13 1 -4
BITMAP
D8
F8
F8
C0
C0
C0
C0
C0
C0
40
40
C0
80
ENDCHAR
STARTCHAR 0158
ENCODING 344
SWIDTH 600 0
DWIDTH 10 0
BBX 8 16 1 0
BITMAP
66
3C
18
00
FC
FE
C7
C3
C3
C7
FE
FC
CE
C6
C7
C3
ENDCHAR
STARTCHAR 0159
ENCODING 345
SWIDTH 420 0
DWIDTH 7 0
BBX 5 13 1 0
BITMAP
D8
70
30
00
D8
F8
F8
C0
C0
C0
C0
C0
C0
ENDCHAR
STARTCHAR 015A
ENCODING 346
SWIDTH 600 0
DWIDTH 10 0
BBX 8 16 1 0
BITMAP
0E
0C
18
00
3C
7E
E7
C3
E0
7C
3E
07
C3
E3
7F
3C
ENDCHAR
STARTCHAR 015B
ENCODING 347
SWIDTH 540 0
DWIDTH 9 0
BBX 7 13 1 0
BITMAP
0C
18
30
00
78
FC
CE
E0
7C
1E
C6
FC
78
ENDCHAR
STARTCHAR 015C
ENCODING 348
SWIDTH 600 0
DWIDTH 10 0
BBX 8 16 1 0
BITMAP
18
3C
26
00
3C
7E
E7
C3
E0
7C
3E
07
C3
E3
7F
3C
ENDCHAR
STARTCHAR 015D
ENCODING 349
SWIDTH 540 0
DWIDTH 9 0
BBX 7 13 1 0
BITMAP
30
78
6C
00
78
FC
CE
E0
7C
1C
C6
FC
78
ENDCHAR
STARTCHAR 015E
ENCODING 350
SWIDTH 600 0
DWIDTH 10 0
BBX 8 16 1 -4
BITMAP
3C
7E
E7
C3
E0
7C
3E
07
C3
E3
7F
3C
1C
0C
1C
10
ENDCHAR
STARTCHAR 015F
ENCODING 351
SWIDTH 540 0
DWIDTH 9 0
BBX 7 12 1 -4
BITMAP
78
FC
CE
E0
7C
1E
C6
FC
78
38
18
18
ENDCHAR
STARTCHAR 0160
ENCODING 352
SWIDTH 600 0
DWIDTH 10 0
BBX 8 16 1 0
BITMAP
66
3C
18
00
3C
7E
E7
C3
E0
7C
3E
07
C3
E3
7F
3C
ENDCHAR
STARTCHAR 0161
ENCODING 353
SWIDTH 540 0
DWIDTH 9 0
BBX 7 13 1 0
BITMAP
6C
78
30
00
78
FC
CE
E0
7C
1C
C6
FC
78
ENDCHAR
STARTCHAR 0162
ENCODING 354
SWIDTH 600 0
DWIDTH 10 0
BBX 8 16 1 -4
BITMAP
FF
FF
18
18
18
18
18
18
18
18
18
18
18
0C
1C
10
ENDCHAR
STARTCHAR 0163
ENCODING 355
SWIDTH 420 0
DWIDTH 7 0
BBX 5 15 1 -4
BITMAP
60
60
F0
F0
60
60
60
60
60
78
38
30
18
38
20
ENDCHAR
STARTCHAR 0164
ENCODING 356
SWIDTH 600 0
DWIDTH 10 0
BBX 8 16 1 0
BITMAP
66
3C
18
00
FF
FF
18
18
18
18
18
18
18
18
18
18
ENDCHAR
STARTCHAR 0165
ENCODING 357
SWIDTH 480 0
DWIDTH 8 0
BBX 6 14 1 0
BITMAP
04
04
04
6C
60
F0
F0
60
60
60
60
60
78
38
ENDCHAR
STARTCHAR 0166
ENCODING 358
SWIDTH 600 0
DWIDTH 10 0
BBX 8 12 1 0
BITMAP
FF
FF
18
18
7E
7E
18
18
18
18
18
18
ENDCHAR
STARTCHAR 0167
ENCODING 359
SWIDTH 420 0
DWIDTH 7 0
BBX 5 11 1 0
BITMAP
60
60
F8
F8
60
F8
F8
60
60
78
38
ENDCHAR
STARTCHAR 0168
ENCODING 360
SWIDTH 660 0
DWIDTH 11 0
BBX 8 15 1 0
BITMAP
3E
7C
00
C3
C3
C3
C3
C3
C3
C3
C3
C3
E7
7E
3C
ENDCHAR
STARTCHAR 0169
ENCODING 361
SWIDTH 540 0
DWIDTH 9 0
BBX 7 13 1 0
BITMAP
64
7C
48
00
C6
C6
C6
C6
C6
C6
C6
FE
76
ENDCHAR
STARTCHAR 016A
ENCODING 362
SWIDTH 660 0
DWIDTH 11 0
BBX 8 15 1 0
BITMAP
3E
3E
00
C3
C3
C3
C3
C3
C3
C3
C3
C3
E7
7E
3C
ENDCHAR
STARTCHAR 016B
ENCODING 363
SWIDTH 540 0
DWIDTH 9 0
BBX 7 12 1 0
BITMAP
7C
7C
00
C6
C6
C6
C6
C6
C6
C6
FE
76
ENDCHAR
STARTCHAR 016C
ENCODING 364
SWIDTH 660 0
DWIDTH 11 0
BBX 8 16 1 0
BITMAP
26
3E
1C
00
C3
C3
C3
C3
C3
C3
C3
C3
C3
E7
7E
3C
ENDCHAR
STARTCHAR 016D
ENCODING 365
SWIDTH 540 0
DWIDTH 9 0
BBX 7 13 1 0
BITMAP
44
7C
38
00
C6
C6
C6
C6
C6
C6
C6
FE
76
ENDCHAR
STARTCHAR 016E
ENCODING 366
SWIDTH 660 0
DWIDTH 11 0
BBX 8 16 1 0
BITMAP
18
24
18
00
C3
C3
C3
C3
C3
C3
C3
C3
C3
E7
7E
3C
ENDCHAR
STARTCHAR 016F
ENCODING 367
SWIDTH 540 0
DWIDTH 9 0
BBX 7 13 1 0
BITMAP
38
28
38
00
C6
C6
C6
C6
C6
C6
C6
FE
76
ENDCHAR
STARTCHAR 0170
ENCODING 368
SWIDTH 660 0
DWIDTH 11 0
BBX 8 16 1 0
BITMAP
1B
16
34
00
C3
C3
C3
C3
C3
C3
C3
C3
C3
E7
7E
3C
ENDCHAR
STARTCHAR 0171
ENCODING 369
SWIDTH 540 0
DWIDTH 9 0
BBX 7 13 1 0
BITMAP
36
34
6C
00
C6
C6
C6
C6
C6
C6
C6
FE
76
ENDCHAR
STARTCHAR 0172
ENCODING 370
SWIDTH 660 0
DWIDTH 11 0
BBX 8 15 1 -3
BITMAP
C3
C3
C3
C3
C3
C3
C3
C3
C3
E7
7E
3C
0C
0E
04
ENDCHAR
STARTCHAR 0173
ENCODING 371
SWIDTH 540 0
DWIDTH 9 0
BBX 7 12 1 -3
BITMAP
C6
C6
C6
C6
C6
C6
C6
FE
76
0C
0E
0E
ENDCHAR
STARTCHAR 0174
ENCODING 372
SWIDTH 840 0
DWIDTH 14 0
BBX 12 16 1 0
BITMAP
0600
0F00
1980
0000
C630
C630
C630
CF30
6F60
6F60
6960
6960
79E0
39C0
39C0
30C0
ENDCHAR
STARTCHAR 0175
ENCODING 373
SWIDTH 720 0
DWIDTH 12 0
BBX 10 13 1 0
BITMAP
0C00
1E00
3300
0000
CCC0
CCC0
CCC0
5EC0
7E80
7380
7380
7380
3300
ENDCHAR
STARTCHAR 0176
ENCODING 374
SWIDTH 660 0
DWIDTH 11 0
BBX 9 16 1 0
BITMAP
0800
1C00
3600
0000
C380
E300
6300
7600
3600
3C00
1C00
1800
1800
1800
1800
1800
ENDCHAR
STARTCHAR 0177
ENCODING 375
SWIDTH 540 0
DWIDTH 9 0
BBX 7 16 1 -3
BITMAP
38
38
6C
00
C6
C6
6C
6C
6C
38
38
38
10
30
70
60
ENDCHAR
STARTCHAR 0178
ENCODING 376
SWIDTH 660 0
DWIDTH 11 0
BBX 9 15 1 0
BITMAP
2600
2600
0000
C380
E300
6300
7600
3600
3C00
1C00
1800
1800
1800
1800
1800
ENDCHAR
STARTCHAR 0179
ENCODING 377
SWIDTH 600 0
DWIDTH 10 0
BBX 8 16 1 0
BITMAP
0E
0C
18
00
FF
FF
06
0E
0C
1C
38
30
70
60
FF
FF
ENDCHAR
STARTCHAR 017A
ENCODING 378
SWIDTH 540 0
DWIDTH 9 0
BBX 7 13 1 0
BITMAP
1C
18
30
00
FC
FC
1C
18
30
70
60
FE
FE
ENDCHAR
STARTCHAR 017B
ENCODING 379
SWIDTH 600 0
DWIDTH 10 0
BBX 8 15 1 0
BITMAP
18
18
00
FF
FF
06
0E
0C
1C
38
30
70
60
FF
FF
ENDCHAR
STARTCHAR 017C
ENCODING 380
SWIDTH 540 0
DWIDTH 9 0
BBX 7 12 1 0
BITMAP
30
30
00
FC
FC
1C
18
30
70
60
FE
FE
ENDCHAR
STARTCHAR 017D
ENCODING 381
SWIDTH 600 0
DWIDTH 10 0
BBX 8 16 1 0
BITMAP
66
3C
18
00
FF
FF
06
0E
0C
1C
38
30
70
60
FF
FF
ENDCHAR
STARTCHAR 017E
ENCODING 382
SWIDTH 540 0
DWIDTH 9 0
BBX 7 13 1 0
BITMAP
6C
78
30
00
FC
FC
1C
18
30
70
60
FE
FE
ENDCHAR
STARTCHAR 017F
ENCODING 383
SWIDTH 360 0
DWIDTH 6 0
BBX 4 13 1 0
BITMAP
70
70
C0
C0
C0
C0
C0
C0
C0
C0
C0
C0
C0
ENDCHAR
STARTCHAR 0192
ENCODING 402
SWIDTH 420 0
DWIDTH 7 0
BBX 5 16 1 -3
BITMAP
38
38
70
60
F8
F8
60
60
60
60
60
60
60
60
E0
C0
ENDCHAR
STARTCHAR 01A0
ENCODING 416
SWIDTH 720 0
DWIDTH 12 0
BBX 10 13 1 0
BITMAP
0040
1E40
7FC0
6380
E380
C180
C180
C180
C180
E380
6300
7F00
1E00
ENDCHAR
STARTCHAR 01A1
ENCODING 417
SWIDTH 600 0
DWIDTH 10 0
BBX 8 10 1 0
BITMAP
01
3D
7F
E6
C6
C6
C6
E6
7E
3C
ENDCHAR
STARTCHAR 01AF
ENCODING 431
SWIDTH 780 0
DWIDTH 13 0
BBX 11 13 1 0
BITMAP
0020
C320
C360
C3C0
C300
C300
C300
C300
C300
C300
E700
7E00
3C00
ENDCHAR
STARTCHAR 01B0
ENCODING 432
SWIDTH 660 0
DWIDTH 11 0
BBX 9 10 1 0
BITMAP
0080
C680
C780
C600
C600
C600
C600
C600
FE00
7600
ENDCHAR
STARTCHAR 01F0
ENCODING 496
SWIDTH 420 0
DWIDTH 7 0
BBX 5 15 1 -3
BITMAP
D8
70
00
30
30
30
30
30
30
30
30
30
70
E0
E0
ENDCHAR
STARTCHAR 01FA
ENCODING 506
SWIDTH 720 0
DWIDTH 12 0
BBX 10 16 1 0
BITMAP
0600
0C00
0C00
1400
0C00
1C00
1E00
1E00
3600
3300
3300
7F00
7F80
6180
C180
C1C0
ENDCHAR
STARTCHAR 01FB
ENCODING 507
SWIDTH 540 0
DWIDTH 9 0
BBX 7 14 1 0
BITMAP
0C
18
00
30
28
38
FC
CE
1E
7E
C6
CE
FE
76
ENDCHAR
STARTCHAR 01FC
ENCODING 508
SWIDTH 900 0
DWIDTH 15 0
BBX 13 16 1 0
BITMAP
0180
0300
0300
0000
07F8
07F8
0F80
0F80
1DF0
19F0
3980
3F80
7F80
6180
E1F8
C1F8
ENDCHAR
STARTCHAR 01FD
ENCODING 509
SWIDTH 840 0
DWIDTH 14 0
BBX 12 13 1 0
BITMAP
0300
0700
0600
0000
39C0
7FE0
C670
3FF0
FFF0
C600
C600
FFE0
79F0
ENDCHAR
STARTCHAR 01FE
ENCODING 510
SWIDTH 660 0
DWIDTH 11 0
BBX 9 17 1 -1
BITMAP
0600
0C00
0C00
0000
1D80
7F00
6300
E780
C580
CD80
C980
D980
F380
6300
7F00
5E00
C000
ENDCHAR
STARTCHAR 01FF
ENCODING 511
SWIDTH 600 0
DWIDTH 10 0
BBX 7 14 1 -1
BITMAP
0C
18
18
06
3C
7E
EE
CE
D6
D6
E6
7E
7C
40
ENDCHAR
STARTCHAR 0218
ENCODING 536
SWIDTH 600 0
DWIDTH 10 0
BBX 8 16 1 -4
BITMAP
3C
7E
E7
C3
E0
7C
3E
07
C3
E3
7F
3C
18
18
18
10
ENDCHAR
STARTCHAR 0219
ENCODING 537
SWIDTH 540 0
DWIDTH 9 0
BBX 7 13 1 -4
BITMAP
78
FC
CE
E0
7C
1E
C6
FC
78
10
10
30
20
ENDCHAR
STARTCHAR 021A
ENCODING 538
SWIDTH 600 0
DWIDTH 10 0
BBX 8 16 1 -4
BITMAP
FF
FF
18
18
18
18
18
18
18
18
18
18
00
18
18
10
ENDCHAR
STARTCHAR 021B
ENCODING 539
SWIDTH 420 0
DWIDTH 7 0
BBX 5 15 1 -4
BITMAP
60
60
F0
F0
60
60
60
60
60
78
38
30
30
20
20
ENDCHAR
STARTCHAR 0237
ENCODING 567
SWIDTH 360 0
DWIDTH 6 0
BBX 3 12 1 -3
BITMAP
60
60
60
60
60
60
60
60
60
60
E0
C0
ENDCHAR
STARTCHAR 0259
ENCODING 601
SWIDTH 540 0
DWIDTH 9 0
BBX 7 9 1 0
BITMAP
78
FC
0E
06
FE
FE
CE
FC
78
ENDCHAR
STARTCHAR 02BC
ENCODING 700
SWIDTH 240 0
DWIDTH 4 0
BBX 2 4 1 9
BITMAP
40
40
C0
C0
ENDCHAR
STARTCHAR 02C6
ENCODING 710
SWIDTH 480 0
DWIDTH 8 0
BBX 6 3 1 10
BITMAP
30
78
CC
ENDCHAR
STARTCHAR 02C7
ENCODING 711
SWIDTH 480 0
DWIDTH 8 0
BBX 5 3 1 10
BITMAP
D8
78
30
ENDCHAR
STARTCHAR 02C9
ENCODING 713
SWIDTH 480 0
DWIDTH 8 0
BBX 5 2 1 10
BITMAP
F8
F8
ENDCHAR
STARTCHAR 02D8
ENCODING 728
SWIDTH 420 0
DWIDTH 7 0
BBX 5 3 1 10
BITMAP
C8
F8
70
ENDCHAR
STARTCHAR 02D9
ENCODING 729
SWIDTH 240 0
DWIDTH 4 0
BBX 2 2 1 10
BITMAP
C0
C0
ENDCHAR
STARTCHAR 02DA
ENCODING 730
SWIDTH 300 0
DWIDTH 5 0
BBX 3 4 1 9
BITMAP
60
A0
A0
60
ENDCHAR
STARTCHAR 02DB
ENCODING 731
SWIDTH 300 0
DWIDTH 5 0
BBX 3 4 1 -3
BITMAP
60
C0
E0
E0
ENDCHAR
STARTCHAR 02DC
ENCODING 732
SWIDTH 480 0
DWIDTH 8 0
BBX 6 3 1 10
BITMAP
6C
F8
98
ENDCHAR
STARTCHAR 02DD
ENCODING 733
SWIDTH 480 0
DWIDTH 8 0
BBX 6 3 1 10
BITMAP
6C
58
D0
ENDCHAR
STARTCHAR 02F3
ENCODING 755
SWIDTH 300 0
DWIDTH 5 0
BBX 3 3 1 -3
BITMAP
60
A0
60
ENDCHAR
STARTCHAR 0300
ENCODING 768
SWIDTH 300 0
DWIDTH 5 0
BBX 3 3 1 10
BITMAP
C0
40
60
ENDCHAR
STARTCHAR 0301
ENCODING 769
SWIDTH 300 0
DWIDTH 5 0
BBX 2 3 1 10
BITMAP
40
C0
80
ENDCHAR
STARTCHAR 0303
ENCODING 771
SWIDTH 480 0
DWIDTH 8 0
BBX 6 3 1 10
BITMAP
6C
F8
98
ENDCHAR
STARTCHAR 0309
ENCODING 777
SWIDTH 300 0
DWIDTH 5 0
BBX 3 4 1 10
BITMAP
C0
60
60
C0
ENDCHAR
STARTCHAR 030F
ENCODING 783
SWIDTH 480 0
DWIDTH 8 0
BBX 6 2 1 10
BITMAP
D8
7C
ENDCHAR
STARTCHAR 0323
ENCODING 803
SWIDTH 300 0
DWIDTH 5 0
BBX 3 2 1 -3
BITMAP
E0
40
ENDCHAR
STARTCHAR 0384
ENCODING 900
SWIDTH 240 0
DWIDTH 4 0
BBX 2 3 1 10
BITMAP
40
C0
80
ENDCHAR
STARTCHAR 0385
ENCODING 901
SWIDTH 540 0
DWIDTH 9 0
BBX 7 4 1 10
BITMAP
18
10
D4
C6
ENDCHAR
STARTCHAR 0386
ENCODING 902
SWIDTH 660 0
DWIDTH 11 0
BBX 10 13 1 0
BITMAP
6000
4C00
DC00
1E00
1E00
3600
3300
3300
7F00
7F80
6180
C180
C1C0
ENDCHAR
STARTCHAR 0387
ENCODING 903
SWIDTH 240 0
DWIDTH 4 0
BBX 2 3 1 4
BITMAP
C0
C0
40
ENDCHAR
STARTCHAR 0388
ENCODING 904
SWIDTH 720 0
DWIDTH 12 0
BBX 10 13 1 0
BITMAP
C000
FFC0
BFC0
3800
3800
3800
3F80
3F80
3800
3800
3800
3FC0
3FC0
ENDCHAR
STARTCHAR 0389
ENCODING 905
SWIDTH 780 0
DWIDTH 13 0
BBX 11 13 1 0
BITMAP
C000
F860
B860
3860
3860
3860
3FE0
3FE0
3860
3860
3860
3860
3860
ENDCHAR
STARTCHAR 038A
ENCODING 906
SWIDTH 420 0
DWIDTH 7 0
BBX 5 13 1 0
BITMAP
C0
98
98
18
18
18
18
18
18
18
18
18
18
ENDCHAR
STARTCHAR 038C
ENCODING 908
SWIDTH 720 0
DWIDTH 12 0
BBX 10 13 1 0
BITMAP
C000
CF00
BF80
3180
71C0
60C0
60C0
60C0
60C0
71C0
3180
3F80
0F00
ENDCHAR
STARTCHAR 038E
ENCODING 910
SWIDTH 780 0
DWIDTH 13 0
BBX 11 13 1 0
BITMAP
C000
F860
98E0
1CC0
0CC0
0D80
0780
0700
0300
0300
0300
0300
0300
ENDCHAR
STARTCHAR 038F
ENCODING 911
SWIDTH 660 0
DWIDTH 11 0
BBX 9 13 1 0
BITMAP
C000
DE00
BF00
7380
7180
6180
6180
6180
6180
3180
3300
7B80
7B80
ENDCHAR
STARTCHAR 0390
ENCODING 912
SWIDTH 480 0
DWIDTH 8 0
BBX 6 14 1 0
BITMAP
10
10
FC
CC
00
30
30
30
30
30
30
30
38
18
ENDCHAR
STARTCHAR 0391
ENCODING 913
SWIDTH 720 0
DWIDTH 12 0
BBX 10 12 1 0
BITMAP
0C00
1C00
1E00
1E00
3600
3300
3300
7F00
7F80
6180
C180
C1C0
ENDCHAR
STARTCHAR 0392
ENCODING 914
SWIDTH 600 0
DWIDTH 10 0
BBX 8 12 1 0
BITMAP
FC
FE
C7
C3
C7
FE
FE
C3
C3
C3
FF
FE
ENDCHAR
STARTCHAR 0393
ENCODING 915
SWIDTH 540 0
DWIDTH 9 0
BBX 7 12 1 0
BITMAP
FE
FE
C0
C0
C0
C0
C0
C0
C0
C0
C0
C0
ENDCHAR
STARTCHAR 0394
ENCODING 916
SWIDTH 720 0
DWIDTH 12 0
BBX 10 12 1 0
BITMAP
0C00
0E00
1E00
1F00
3B00
3300
3380
7180
6180
61C0
FFC0
FFC0
ENDCHAR
STARTCHAR 0395
ENCODING 917
SWIDTH 540 0
DWIDTH 9 0
BBX 7 12 1 0
BITMAP
FE
FE
C0
C0
C0
FE
FE
C0
C0
C0
FE
FE
ENDCHAR
STARTCHAR 0396
ENCODING 918
SWIDTH 600 0
DWIDTH 10 0
BBX 8 12 1 0
BITMAP
FF
FF
06
0E
0C
1C
38
30
70
60
FF
FF
ENDCHAR
STARTCHAR 0397
ENCODING 919
SWIDTH 660 0
DWIDTH 11 0
BBX 9 12 1 0
BITMAP
C180
C180
C180
C180
C180
FF80
FF80
C180
C180
C180
C180
C180
ENDCHAR
STARTCHAR 0398
ENCODING 920
SWIDTH 660 0
DWIDTH 11 0
BBX 9 12 1 0
BITMAP
1C00
7F00
6300
E380
C180
DD80
DD80
C180
E380
6300
7F00
1E00
ENDCHAR
STARTCHAR 0399
ENCODING 921
SWIDTH 300 0
DWIDTH 5 0
BBX 2 12 1 0
BITMAP
C0
C0
C0
C0
C0
C0
C0
C0
C0
C0
C0
C0
ENDCHAR
STARTCHAR 039A
ENCODING 922
SWIDTH 660 0
DWIDTH 11 0
BBX 9 12 1 0
BITMAP
C380
C700
CE00
CC00
DC00
F800
FC00
EC00
CE00
C700
C700
C380
ENDCHAR
STARTCHAR 039B
ENCODING 923
SWIDTH 660 0
DWIDTH 11 0
BBX 9 12 1 0
BITMAP
1C00
1C00
1C00
3600
3600
3600
7700
6300
6300
6300
E380
C180
ENDCHAR
STARTCHAR 039C
ENCODING 924
SWIDTH 840 0
DWIDTH 14 0
BBX 11 12 1 0
BITMAP
E0E0
F0E0
F0E0
F1E0
D1E0
D9E0
D960
CB60
CF60
CE60
C660
C660
ENDCHAR
STARTCHAR 039D
ENCODING 925
SWIDTH 660 0
DWIDTH 11 0
BBX 9 12 1 0
BITMAP
E180
E180
F180
F180
D980
D980
CD80
CF80
C780
C780
C380
C380
ENDCHAR
STARTCHAR 039E
ENCODING 926
SWIDTH 540 0
DWIDTH 9 0
BBX 7 12 1 0
BITMAP
FE
FE
00
00
00
7C
7C
00
00
00
FE
FE
ENDCHAR
STARTCHAR 039F
ENCODING 927
SWIDTH 660 0
DWIDTH 11 0
BBX 9 12 1 0
BITMAP
1C00
7F00
6300
E380
C180
C180
C180
C180
E380
6300
7F00
1E00
ENDCHAR
STARTCHAR 03A0
ENCODING 928
SWIDTH 660 0
DWIDTH 11 0
BBX 9 12 1 0
BITMAP
FF80
FF80
C180
C180
C180
C180
C180
C180
C180
C180
C180
C180
ENDCHAR
STARTCHAR 03A1
ENCODING 929
SWIDTH 600 0
DWIDTH 10 0
BBX 8 12 1 0
BITMAP
FC
FF
C7
C3
C3
C3
FF
FE
C0
C0
C0
C0
ENDCHAR
STARTCHAR 03A3
ENCODING 931
SWIDTH 540 0
DWIDTH 9 0
BBX 8 12 1 0
BITMAP
FE
FE
60
70
38
18
18
38
70
60
FF
FF
ENDCHAR
STARTCHAR 03A4
ENCODING 932
SWIDTH 600 0
DWIDTH 10 0
BBX 8 12 1 0
BITMAP
FF
FF
18
18
18
18
18
18
18
18
18
18
ENDCHAR
STARTCHAR 03A5
ENCODING 933
SWIDTH 660 0
DWIDTH 11 0
BBX 9 12 1 0
BITMAP
C380
E300
6300
7600
3600
3C00
1C00
1C00
1800
1800
1800
1800
ENDCHAR
STARTCHAR 03A6
ENCODING 934
SWIDTH 720 0
DWIDTH 12 0
BBX 10 12 1 0
BITMAP
0C00
0C00
3F80
7FC0
ECC0
CCC0
CCC0
CCC0
EDC0
7F80
3F00
0C00
ENDCHAR
STARTCHAR 03A7
ENCODING 935
SWIDTH 660 0
DWIDTH 11 0
BBX 9 12 1 0
BITMAP
E380
6300
7700
3600
3E00
1C00
1C00
3E00
3600
7700
E300
E380
ENDCHAR
STARTCHAR 03A8
ENCODING 936
SWIDTH 720 0
DWIDTH 12 0
BBX 10 12 1 0
BITMAP
CCC0
CCC0
CCC0
CCC0
CCC0
CCC0
6DC0
7F80
3F00
0C00
0C00
0C00
ENDCHAR
STARTCHAR 03A9
ENCODING 937
SWIDTH 660 0
DWIDTH 11 0
BBX 8 12 1 0
BITMAP
3C
7E
E7
C3
C3
C3
C3
C3
E7
66
FF
FF
ENDCHAR
STARTCHAR 03AA
ENCODING 938
SWIDTH 420 0
DWIDTH 7 0
BBX 5 15 1 0
BITMAP
98
D8
00
70
70
70
70
70
70
70
70
70
70
70
70
ENDCHAR
STARTCHAR 03AB
ENCODING 939
SWIDTH 660 0
DWIDTH 11 0
BBX 9 15 1 0
BITMAP
2600
3600
0000
C380
E300
6300
7600
3600
3C00
1C00
1C00
1800
1800
1800
1800
ENDCHAR
STARTCHAR 03AC
ENCODING 940
SWIDTH 600 0
DWIDTH 10 0
BBX 8 13 1 0
BITMAP
08
18
18
00
7E
7E
E6
C6
C6
C6
E6
7F
73
ENDCHAR
STARTCHAR 03AD
ENCODING 941
SWIDTH 540 0
DWIDTH 9 0
BBX 7 13 1 0
BITMAP
18
18
10
00
7C
FE
C6
F8
78
C0
C6
FE
7C
ENDCHAR
STARTCHAR 03AE
ENCODING 942
SWIDTH 540 0
DWIDTH 9 0
BBX 7 16 1 -3
BITMAP
18
18
10
00
DC
FE
E6
C6
C6
C6
C6
C6
C6
06
06
06
ENDCHAR
STARTCHAR 03AF
ENCODING 943
SWIDTH 300 0
DWIDTH 5 0
BBX 4 13 1 0
BITMAP
60
40
40
00
C0
C0
C0
C0
C0
C0
C0
F0
70
ENDCHAR
STARTCHAR 03B0
ENCODING 944
SWIDTH 540 0
DWIDTH 9 0
BBX 7 14 1 0
BITMAP
18
10
D6
C6
00
CC
CE
C6
C6
C6
C6
CE
7C
78
ENDCHAR
STARTCHAR 03B1
ENCODING 945
SWIDTH 600 0
DWIDTH 10 0
BBX 8 9 1 0
BITMAP
3E
7E
E6
C6
C6
C6
E6
7F
73
ENDCHAR
STARTCHAR 03B2
ENCODING 946
SWIDTH 600 0
DWIDTH 10 0
BBX 8 15 1 -3
BITMAP
3C
7E
E6
C6
C6
DC
DE
C6
C7
C6
FE
FC
C0
C0
C0
ENDCHAR
STARTCHAR 03B3
ENCODING 947
SWIDTH 540 0
DWIDTH 9 0
BBX 7 12 1 -3
BITMAP
C6
C6
6C
6C
6C
68
38
38
38
38
38
38
ENDCHAR
STARTCHAR 03B4
ENCODING 948
SWIDTH 540 0
DWIDTH 9 0
BBX 7 13 1 0
BITMAP
3C
7C
60
70
3C
7E
C6
C6
C6
C6
E6
7E
3C
ENDCHAR
STARTCHAR 03B5
ENCODING 949
SWIDTH 540 0
DWIDTH 9 0
BBX 7 9 1 0
BITMAP
7C
FE
C6
78
78
C0
C6
FE
7C
ENDCHAR
STARTCHAR 03B6
ENCODING 950
SWIDTH 480 0
DWIDTH 8 0
BBX 6 15 1 -3
BITMAP
FC
FC
1C
38
30
60
60
C0
C0
E0
78
3C
0C
0C
08
ENDCHAR
STARTCHAR 03B7
ENCODING 951
SWIDTH 540 0
DWIDTH 9 0
BBX 7 12 1 -3
BITMAP
DC
FE
E6
C6
C6
C6
C6
C6
C6
06
06
06
ENDCHAR
STARTCHAR 03B8
ENCODING 952
SWIDTH 540 0
DWIDTH 9 0
BBX 7 12 1 0
BITMAP
38
7C
E6
C6
C6
FE
FE
C6
C6
E6
7C
38
ENDCHAR
STARTCHAR 03B9
ENCODING 953
SWIDTH 360 0
DWIDTH 6 0
BBX 4 9 1 0
BITMAP
C0
C0
C0
C0
C0
C0
C0
F0
70
ENDCHAR
STARTCHAR 03BA
ENCODING 954
SWIDTH 600 0
DWIDTH 10 0
BBX 8 9 1 0
BITMAP
C6
CE
DC
F8
F8
FC
CC
CE
C7
ENDCHAR
STARTCHAR 03BB
ENCODING 955
SWIDTH 600 0
DWIDTH 10 0
BBX 8 13 1 0
BITMAP
60
70
30
38
38
38
3C
3C
6C
6E
66
C7
C3
ENDCHAR
STARTCHAR 03BC
ENCODING 956
SWIDTH 540 0
DWIDTH 9 0
BBX 7 12 1 -3
BITMAP
C6
C6
C6
C6
C6
C6
E6
FE
FE
C0
C0
C0
ENDCHAR
STARTCHAR 03BD
ENCODING 957
SWIDTH 540 0
DWIDTH 9 0
BBX 7 9 1 0
BITMAP
C6
C6
EC
6C
6C
68
38
38
38
ENDCHAR
STARTCHAR 03BE
ENCODING 958
SWIDTH 480 0
DWIDTH 8 0
BBX 7 15 1 -3
BITMAP
3C
7C
60
60
78
78
E0
C0
C0
E0
7C
3C
0E
0C
0C
ENDCHAR
STARTCHAR 03BF
ENCODING 959
SWIDTH 540 0
DWIDTH 9 0
BBX 7 9 1 0
BITMAP
3C
7E
E6
C6
C6
C6
E6
7E
3C
ENDCHAR
STARTCHAR 03C0
ENCODING 960
SWIDTH 660 0
DWIDTH 11 0
BBX 9 9 1 0
BITMAP
FF80
FF80
6600
6600
6600
6600
6600
6780
6380
ENDCHAR
STARTCHAR 03C1
ENCODING 961
SWIDTH 540 0
DWIDTH 9 0
BBX 7 12 1 -3
BITMAP
38
7C
E6
C6
C6
C6
C6
FE
DC
C0
C0
C0
ENDCHAR
STARTCHAR 03C2
ENCODING 962
SWIDTH 540 0
DWIDTH 9 0
BBX 7 12 1 -3
BITMAP
38
7C
E6
C6
C0
C0
E0
78
3C
0C
0C
08
ENDCHAR
STARTCHAR 03C3
ENCODING 963
SWIDTH 600 0
DWIDTH 10 0
BBX 8 9 1 0
BITMAP
3F
7F
E6
C6
C6
C6
E6
7E
3C
ENDCHAR
STARTCHAR 03C4
ENCODING 964
SWIDTH 540 0
DWIDTH 9 0
BBX 7 9 1 0
BITMAP
FE
FE
30
30
30
30
30
1C
1C
ENDCHAR
STARTCHAR 03C5
ENCODING 965
SWIDTH 540 0
DWIDTH 9 0
BBX 7 9 1 0
BITMAP
CC
CE
C6
C6
C6
C6
CE
FC
78
ENDCHAR
STARTCHAR 03C6
ENCODING 966
SWIDTH 720 0
DWIDTH 12 0
BBX 10 13 1 -4
BITMAP
4700
6F80
CCC0
CCC0
CCC0
CCC0
EDC0
7F80
3F00
0C00
0C00
0C00
0C00
ENDCHAR
STARTCHAR 03C7
ENCODING 967
SWIDTH 540 0
DWIDTH 9 0
BBX 7 9 1 0
BITMAP
C6
6C
6C
38
38
38
6C
6E
C6
ENDCHAR
STARTCHAR 03C8
ENCODING 968
SWIDTH 720 0
DWIDTH 12 0
BBX 10 13 1 -4
BITMAP
CD80
CCC0
CCC0
CCC0
CCC0
CCC0
EDC0
7F80
3F00
0C00
0C00
0C00
0C00
ENDCHAR
STARTCHAR 03C9
ENCODING 969
SWIDTH 780 0
DWIDTH 13 0
BBX 11 9 1 0
BITMAP
60C0
E060
CE60
CE60
CE60
CE60
EE60
7BC0
7BC0
ENDCHAR
STARTCHAR 03CA
ENCODING 970
SWIDTH 420 0
DWIDTH 7 0
BBX 5 12 1 0
BITMAP
D8
D8
00
70
70
70
70
70
70
70
38
38
ENDCHAR
STARTCHAR 03CB
ENCODING 971
SWIDTH 540 0
DWIDTH 9 0
BBX 7 12 1 0
BITMAP
4C
6C
00
CC
CC
C6
C6
C6
C6
CC
FC
78
ENDCHAR
STARTCHAR 03CC
ENCODING 972
SWIDTH 540 0
DWIDTH 9 0
BBX 7 13 1 0
BITMAP
18
18
10
00
3C
7E
E6
C6
C6
C6
E6
7E
3C
ENDCHAR
STARTCHAR 03CD
ENCODING 973
SWIDTH 540 0
DWIDTH 9 0
BBX 7 13 1 0
BITMAP
18
10
10
00
CC
CC
C6
C6
C6
C6
CC
FC
78
ENDCHAR
STARTCHAR 03CE
ENCODING 974
SWIDTH 780 0
DWIDTH 13 0
BBX 11 13 1 0
BITMAP
0600
0400
0400
0000
60C0
E0E0
CE60
CE60
CE60
CE60
CE60
7BC0
7BC0
ENDCHAR
STARTCHAR 03D1
ENCODING 977
SWIDTH 600 0
DWIDTH 10 0
BBX 8 12 1 0
BITMAP
1C
3E
36
36
36
3F
DF
C6
C6
CE
7C
38
ENDCHAR
STARTCHAR 03D2
ENCODING 978
SWIDTH 660 0
DWIDTH 11 0
BBX 9 12 1 0
BITMAP
C180
E380
6300
7600
3600
3600
1C00
1C00
1800
1800
1800
1800
ENDCHAR
STARTCHAR 03D6
ENCODING 982
SWIDTH 840 0
DWIDTH 14 0
BBX 12 9 1 0
BITMAP
FFF0
FFF0
6060
E670
E670
E660
6E60
7FE0
39C0
ENDCHAR
STARTCHAR 0400
ENCODING 1024
SWIDTH 540 0
DWIDTH 9 0
BBX 7 16 1 0
BITMAP
70
30
18
00
FE
FE
C0
C0
C0
FE
FE
C0
C0
C0
FE
FE
ENDCHAR
STARTCHAR 0401
ENCODING 1025
SWIDTH 540 0
DWIDTH 9 0
BBX 7 15 1 0
BITMAP
66
66
00
FE
FE
C0
C0
C0
FE
FE
C0
C0
C0
FE
FE
ENDCHAR
STARTCHAR 0402
ENCODING 1026
SWIDTH 720 0
DWIDTH 12 0
BBX 10 12 1 0
BITMAP
FF00
FF00
3800
3800
3800
3F80
3FC0
38C0
38C0
38C0
3BC0
3B80
ENDCHAR
STARTCHAR 0403
ENCODING 1027
SWIDTH 540 0
DWIDTH 9 0
BBX 7 16 1 0
BITMAP
0C
0C
18
00
FE
FE
C0
C0
C0
C0
C0
C0
C0
C0
C0
C0
ENDCHAR
STARTCHAR 0404
ENCODING 1028
SWIDTH 660 0
DWIDTH 11 0
BBX 9 12 1 0
BITMAP
3E00
7F00
6300
C380
C000
F800
F800
C000
C380
6300
7F00
3E00
ENDCHAR
STARTCHAR 0405
ENCODING 1029
SWIDTH 600 0
DWIDTH 10 0
BBX 8 12 1 0
BITMAP
3C
7E
E7
C3
E0
7C
3E
07
C3
E3
7F
3C
ENDCHAR
STARTCHAR 0406
ENCODING 1030
SWIDTH 300 0
DWIDTH 5 0
BBX 2 12 1 0
BITMAP
C0
C0
C0
C0
C0
C0
C0
C0
C0
C0
C0
C0
ENDCHAR
STARTCHAR 0407
ENCODING 1031
SWIDTH 420 0
DWIDTH 7 0
BBX 5 15 1 0
BITMAP
98
D8
00
60
60
60
60
60
60
60
60
60
60
60
60
ENDCHAR
STARTCHAR 0408
ENCODING 1032
SWIDTH 540 0
DWIDTH 9 0
BBX 7 12 1 0
BITMAP
06
06
06
06
06
06
06
06
C6
CE
FC
78
ENDCHAR
STARTCHAR 0409
ENCODING 1033
SWIDTH 1020 0
DWIDTH 17 0
BBX 15 12 1 0
BITMAP
3F80
3F80
3180
3180
31F8
31FC
318E
3186
3186
718E
E1FC
C1F8
ENDCHAR
STARTCHAR 040A
ENCODING 1034
SWIDTH 1020 0
DWIDTH 17 0
BBX 15 12 1 0
BITMAP
C180
C180
C180
C180
C1F8
FFFC
FF8C
C18E
C18E
C18C
C1FC
C1F8
ENDCHAR
STARTCHAR 040B
ENCODING 1035
SWIDTH 720 0
DWIDTH 12 0
BBX 10 12 1 0
BITMAP
FF00
FF00
3000
3000
3F00
3F80
31C0
30C0
30C0
30C0
30C0
30C0
ENDCHAR
STARTCHAR 040C
ENCODING 1036
SWIDTH 660 0
DWIDTH 11 0
BBX 9 16 1 0
BITMAP
0C00
1C00
1800
0000
C380
C700
CE00
CC00
DC00
F800
FC00
EC00
CE00
C700
C700
C380
ENDCHAR
STARTCHAR 040D
ENCODING 1037
SWIDTH 660 0
DWIDTH 11 0
BBX 9 16 1 0
BITMAP
3000
1800
0800
0400
C380
C380
C780
C780
CD80
CD80
D980
D980
F180
F180
E180
E180
ENDCHAR
STARTCHAR 040E
ENCODING 1038
SWIDTH 600 0
DWIDTH 10 0
BBX 9 16 1 0
BITMAP
2600
3E00
1C00
0000
C380
E300
6700
6600
3600
3E00
1C00
1C00
1800
1800
7800
7000
ENDCHAR
STARTCHAR 040F
ENCODING 1039
SWIDTH 660 0
DWIDTH 11 0
BBX 9 15 1 -3
BITMAP
C180
C180
C180
C180
C180
C180
C180
C180
C180
C180
FF80
FF80
0C00
0C00
0C00
ENDCHAR
STARTCHAR 0410
ENCODING 1040
SWIDTH 720 0
DWIDTH 12 0
BBX 10 12 1 0
BITMAP
0C00
1C00
1E00
1E00
3600
3300
3300
7F00
7F80
6180
C180
C1C0
ENDCHAR
STARTCHAR 0411
ENCODING 1041
SWIDTH 600 0
DWIDTH 10 0
BBX 8 12 1 0
BITMAP
FE
FE
C0
C0
FC
FE
C7
C3
C3
C7
FE
FC
ENDCHAR
STARTCHAR 0412
ENCODING 1042
SWIDTH 600 0
DWIDTH 10 0
BBX 8 12 1 0
BITMAP
FC
FE
C7
C3
C7
FE
FE
C3
C3
C3
FF
FE
ENDCHAR
STARTCHAR 0413
ENCODING 1043
SWIDTH 540 0
DWIDTH 9 0
BBX 7 12 1 0
BITMAP
FE
FE
C0
C0
C0
C0
C0
C0
C0
C0
C0
C0
ENDCHAR
STARTCHAR 0414
ENCODING 1044
SWIDTH 780 0
DWIDTH 13 0
BBX 11 15 1 -3
BITMAP
3F80
3F80
3980
3180
3180
3180
3180
3180
3180
7180
FFE0
FFE0
C0E0
C0E0
C0E0
ENDCHAR
STARTCHAR 0415
ENCODING 1045
SWIDTH 540 0
DWIDTH 9 0
BBX 7 12 1 0
BITMAP
FE
FE
C0
C0
C0
FE
FE
C0
C0
C0
FE
FE
ENDCHAR
STARTCHAR 0416
ENCODING 1046
SWIDTH 960 0
DWIDTH 16 0
BBX 14 12 1 0
BITMAP
E30C
631C
7318
3330
1B30
1FE0
3FF0
3B30
7338
7318
E31C
E30C
ENDCHAR
STARTCHAR 0417
ENCODING 1047
SWIDTH 600 0
DWIDTH 10 0
BBX 8 12 1 0
BITMAP
3C
7E
E7
C3
07
1E
1E
07
C3
E7
FE
3C
ENDCHAR
STARTCHAR 0418
ENCODING 1048
SWIDTH 660 0
DWIDTH 11 0
BBX 9 12 1 0
BITMAP
C380
C380
C780
C780
CD80
CD80
D980
D980
F180
F180
E180
E180
ENDCHAR
STARTCHAR 0419
ENCODING 1049
SWIDTH 660 0
DWIDTH 11 0
BBX 9 16 1 0
BITMAP
3200
3E00
1C00
0000
C380
C380
C780
C780
CD80
CD80
D980
D980
F180
F180
E180
E180
ENDCHAR
STARTCHAR 041A
ENCODING 1050
SWIDTH 660 0
DWIDTH 11 0
BBX 9 12 1 0
BITMAP
C300
C700
C600
CE00
DC00
F800
FC00
CE00
C600
C700
C300
C380
ENDCHAR
STARTCHAR 041B
ENCODING 1051
SWIDTH 660 0
DWIDTH 11 0
BBX 9 12 1 0
BITMAP
3F80
3F80
3180
3180
3180
3180
3180
3180
3180
6180
E180
C180
ENDCHAR
STARTCHAR 041C
ENCODING 1052
SWIDTH 840 0
DWIDTH 14 0
BBX 11 12 1 0
BITMAP
E0E0
F0E0
F0E0
F1E0
D1E0
D9E0
D960
CB60
CF60
CE60
C660
C660
ENDCHAR
STARTCHAR 041D
ENCODING 1053
SWIDTH 660 0
DWIDTH 11 0
BBX 9 12 1 0
BITMAP
C180
C180
C180
C180
C180
FF80
FF80
C180
C180
C180
C180
C180
ENDCHAR
STARTCHAR 041E
ENCODING 1054
SWIDTH 660 0
DWIDTH 11 0
BBX 9 12 1 0
BITMAP
3C00
7F00
6300
E380
C180
C180
C180
C180
E380
6300
7F00
1E00
ENDCHAR
STARTCHAR 041F
ENCODING 1055
SWIDTH 660 0
DWIDTH 11 0
BBX 9 12 1 0
BITMAP
FF80
FF80
C180
C180
C180
C180
C180
C180
C180
C180
C180
C180
ENDCHAR
STARTCHAR 0420
ENCODING 1056
SWIDTH 600 0
DWIDTH 10 0
BBX 8 12 1 0
BITMAP
FC
FF
C7
C3
C3
C3
FF
FE
C0
C0
C0
C0
ENDCHAR
STARTCHAR 0421
ENCODING 1057
SWIDTH 660 0
DWIDTH 11 0
BBX 9 12 1 0
BITMAP
3E00
7F00
6300
C380
C000
C000
C000
C000
C380
6300
7F00
3E00
ENDCHAR
STARTCHAR 0422
ENCODING 1058
SWIDTH 600 0
DWIDTH 10 0
BBX 8 12 1 0
BITMAP
FF
FF
18
18
18
18
18
18
18
18
18
18
ENDCHAR
STARTCHAR 0423
ENCODING 1059
SWIDTH 600 0
DWIDTH 10 0
BBX 9 12 1 0
BITMAP
C380
E300
6700
6600
3600
3E00
1C00
1C00
1800
1800
7800
7000
ENDCHAR
STARTCHAR 0424
ENCODING 1060
SWIDTH 780 0
DWIDTH 13 0
BBX 11 13 1 -1
BITMAP
0E00
0E00
3F80
7FC0
EEE0
CE60
CE60
CE60
EEE0
7FC0
3F80
0E00
0E00
ENDCHAR
STARTCHAR 0425
ENCODING 1061
SWIDTH 660 0
DWIDTH 11 0
BBX 9 12 1 0
BITMAP
E380
6300
7700
3600
3E00
1C00
1C00
3E00
3600
6700
E300
C380
ENDCHAR
STARTCHAR 0426
ENCODING 1062
SWIDTH 720 0
DWIDTH 12 0
BBX 10 15 1 -3
BITMAP
C180
C180
C180
C180
C180
C180
C180
C180
C180
C180
FFC0
FFC0
00C0
00C0
00C0
ENDCHAR
STARTCHAR 0427
ENCODING 1063
SWIDTH 660 0
DWIDTH 11 0
BBX 8 12 1 0
BITMAP
C3
C3
C3
C3
C3
E3
7F
3F
03
03
03
03
ENDCHAR
STARTCHAR 0428
ENCODING 1064
SWIDTH 900 0
DWIDTH 15 0
BBX 13 12 1 0
BITMAP
C718
C718
C718
C718
C718
C718
C718
C718
C718
C718
FFF8
FFF8
ENDCHAR
STARTCHAR 0429
ENCODING 1065
SWIDTH 960 0
DWIDTH 16 0
BBX 14 15 1 -3
BITMAP
C718
C718
C718
C718
C718
C718
C718
C718
C718
C718
FFFC
FFFC
000C
000C
000C
ENDCHAR
STARTCHAR 042A
ENCODING 1066
SWIDTH 780 0
DWIDTH 13 0
BBX 11 12 1 0
BITMAP
F800
F800
1800
1800
1F80
1FC0
18C0
18E0
18E0
18C0
1FC0
1F80
ENDCHAR
STARTCHAR 042B
ENCODING 1067
SWIDTH 840 0
DWIDTH 14 0
BBX 11 12 1 0
BITMAP
C060
C060
C060
C060
FC60
FE60
C760
C360
C360
C760
FE60
FC60
ENDCHAR
STARTCHAR 042C
ENCODING 1068
SWIDTH 600 0
DWIDTH 10 0
BBX 8 12 1 0
BITMAP
C0
C0
C0
C0
FC
FE
C7
C3
C3
C7
FE
FC
ENDCHAR
STARTCHAR 042D
ENCODING 1069
SWIDTH 660 0
DWIDTH 11 0
BBX 9 12 1 0
BITMAP
3C00
7E00
E700
C300
0380
1F80
1F80
0380
C300
E300
7E00
3C00
ENDCHAR
STARTCHAR 042E
ENCODING 1070
SWIDTH 900 0
DWIDTH 15 0
BBX 13 12 1 0
BITMAP
C3C0
C7E0
CE70
CC30
CC38
FC38
FC38
CC38
CC30
CE70
C7E0
C3C0
ENDCHAR
STARTCHAR 042F
ENCODING 1071
SWIDTH 600 0
DWIDTH 10 0
BBX 8 12 1 0
BITMAP
3F
7F
63
E3
E3
63
7F
3F
73
63
E3
C3
ENDCHAR
STARTCHAR 0430
ENCODING 1072
SWIDTH 540 0
DWIDTH 9 0
BBX 7 9 1 0
BITMAP
38
7C
CE
1E
7E
C6
CE
FE
76
ENDCHAR
STARTCHAR 0431
ENCODING 1073
SWIDTH 540 0
DWIDTH 9 0
BBX 7 13 1 0
BITMAP
06
3C
78
40
FC
FE
E6
C6
C6
C6
E6
7E
3C
ENDCHAR
STARTCHAR 0432
ENCODING 1074
SWIDTH 540 0
DWIDTH 9 0
BBX 7 9 1 0
BITMAP
FC
FE
C6
FC
FE
C6
C6
FE
FC
ENDCHAR
STARTCHAR 0433
ENCODING 1075
SWIDTH 480 0
DWIDTH 8 0
BBX 6 9 1 0
BITMAP
FC
FC
C0
C0
C0
C0
C0
C0
C0
ENDCHAR
STARTCHAR 0434
ENCODING 1076
SWIDTH 660 0
DWIDTH 11 0
BBX 9 12 1 -3
BITMAP
3F00
3F00
3300
3300
3300
3300
6300
FF80
FF80
C180
C180
C180
ENDCHAR
STARTCHAR 0435
ENCODING 1077
SWIDTH 540 0
DWIDTH 9 0
BBX 7 9 1 0
BITMAP
38
7C
C6
FE
FE
C0
E4
7E
3C
ENDCHAR
STARTCHAR 0436
ENCODING 1078
SWIDTH 840 0
DWIDTH 14 0
BBX 12 9 1 0
BITMAP
E670
6660
76E0
36C0
3FC0
3FC0
76E0
6660
E670
ENDCHAR
STARTCHAR 0437
ENCODING 1079
SWIDTH 540 0
DWIDTH 9 0
BBX 7 9 1 0
BITMAP
78
FC
CC
3C
3C
0E
CE
FC
78
ENDCHAR
STARTCHAR 0438
ENCODING 1080
SWIDTH 540 0
DWIDTH 9 0
BBX 7 9 1 0
BITMAP
C6
CE
CE
DE
D6
F6
E6
E6
E6
ENDCHAR
STARTCHAR 0439
ENCODING 1081
SWIDTH 540 0
DWIDTH 9 0
BBX 7 13 1 0
BITMAP
64
7C
38
00
C6
CE
CE
DE
D6
F6
E6
E6
C6
ENDCHAR
STARTCHAR 043A
ENCODING 1082
SWIDTH 540 0
DWIDTH 9 0
BBX 7 9 1 0
BITMAP
C6
CE
DC
F8
F8
FC
CC
CE
C6
ENDCHAR
STARTCHAR 043B
ENCODING 1083
SWIDTH 600 0
DWIDTH 10 0
BBX 7 9 1 0
BITMAP
7E
7E
66
66
66
66
66
E6
C6
ENDCHAR
STARTCHAR 043C
ENCODING 1084
SWIDTH 720 0
DWIDTH 12 0
BBX 10 9 1 0
BITMAP
E1C0
E3C0
F3C0
F3C0
D7C0
DFC0
DDC0
CDC0
CDC0
ENDCHAR
STARTCHAR 043D
ENCODING 1085
SWIDTH 540 0
DWIDTH 9 0
BBX 7 9 1 0
BITMAP
C6
C6
C6
C6
FE
FE
C6
C6
C6
ENDCHAR
STARTCHAR 043E
ENCODING 1086
SWIDTH 540 0
DWIDTH 9 0
BBX 7 9 1 0
BITMAP
3C
7E
E6
C6
C6
C6
E6
7E
3C
ENDCHAR
STARTCHAR 043F
ENCODING 1087
SWIDTH 540 0
DWIDTH 9 0
BBX 7 9 1 0
BITMAP
FE
FE
C6
C6
C6
C6
C6
C6
C6
ENDCHAR
STARTCHAR 0440
ENCODING 1088
SWIDTH 540 0
DWIDTH 9 0
BBX 7 12 1 -3
BITMAP
DC
FE
E6
C6
C6
C6
E6
FE
DC
C0
C0
C0
ENDCHAR
STARTCHAR 0441
ENCODING 1089
SWIDTH 540 0
DWIDTH 9 0
BBX 7 9 1 0
BITMAP
38
7C
E6
C6
C0
C0
E6
7C
38
ENDCHAR
STARTCHAR 0442
ENCODING 1090
SWIDTH 540 0
DWIDTH 9 0
BBX 7 9 1 0
BITMAP
FE
FE
30
30
30
30
30
30
30
ENDCHAR
STARTCHAR 0443
ENCODING 1091
SWIDTH 540 0
DWIDTH 9 0
BBX 7 12 1 -3
BITMAP
C6
C6
6C
6C
6C
38
38
38
10
30
70
60
ENDCHAR
STARTCHAR 0444
ENCODING 1092
SWIDTH 720 0
DWIDTH 12 0
BBX 10 16 1 -3
BITMAP
0C00
0C00
0C00
0C00
7F00
7F80
EDC0
CCC0
CCC0
CCC0
CDC0
7F80
7F00
0C00
0C00
0C00
ENDCHAR
STARTCHAR 0445
ENCODING 1093
SWIDTH 540 0
DWIDTH 9 0
BBX 7 9 1 0
BITMAP
C6
6C
6C
38
38
38
6C
6C
C6
ENDCHAR
STARTCHAR 0446
ENCODING 1094
SWIDTH 600 0
DWIDTH 10 0
BBX 8 12 1 -3
BITMAP
C6
C6
C6
C6
C6
C6
C6
FF
FF
03
03
03
ENDCHAR
STARTCHAR 0447
ENCODING 1095
SWIDTH 540 0
DWIDTH 9 0
BBX 7 9 1 0
BITMAP
C6
C6
C6
C6
FE
7E
06
06
06
ENDCHAR
STARTCHAR 0448
ENCODING 1096
SWIDTH 780 0
DWIDTH 13 0
BBX 11 9 1 0
BITMAP
CE60
CE60
CE60
CE60
CE60
CE60
CE60
FFE0
FFE0
ENDCHAR
STARTCHAR 0449
ENCODING 1097
SWIDTH 840 0
DWIDTH 14 0
BBX 12 12 1 -3
BITMAP
CE60
CE60
CE60
CE60
CE60
CE60
CE60
FFF0
FFF0
0030
0030
0030
ENDCHAR
STARTCHAR 044A
ENCODING 1098
SWIDTH 660 0
DWIDTH 11 0
BBX 9 9 1 0
BITMAP
F000
F000
3000
3F00
3F80
3180
3180
3F80
3F00
ENDCHAR
STARTCHAR 044B
ENCODING 1099
SWIDTH 780 0
DWIDTH 13 0
BBX 11 9 1 0
BITMAP
C0E0
C0E0
C0E0
FCE0
FEE0
C6E0
C6E0
FEE0
FCE0
ENDCHAR
STARTCHAR 044C
ENCODING 1100
SWIDTH 540 0
DWIDTH 9 0
BBX 7 9 1 0
BITMAP
C0
C0
C0
FC
FE
C6
C6
FE
FC
ENDCHAR
STARTCHAR 044D
ENCODING 1101
SWIDTH 540 0
DWIDTH 9 0
BBX 7 9 1 0
BITMAP
78
FC
CE
1E
1E
C6
CE
FC
78
ENDCHAR
STARTCHAR 044E
ENCODING 1102
SWIDTH 780 0
DWIDTH 13 0
BBX 11 9 1 0
BITMAP
C780
CFC0
CCE0
FC60
F860
DC60
CCE0
CFC0
C780
ENDCHAR
STARTCHAR 044F
ENCODING 1103
SWIDTH 540 0
DWIDTH 9 0
BBX 7 9 1 0
BITMAP
7E
FE
C6
C6
FE
7E
66
66
C6
ENDCHAR
STARTCHAR 0450
ENCODING 1104
SWIDTH 540 0
DWIDTH 9 0
BBX 7 13 1 0
BITMAP
60
30
30
00
38
7C
C6
FE
FE
C0
E4
7E
3C
ENDCHAR
STARTCHAR 0451
ENCODING 1105
SWIDTH 540 0
DWIDTH 9 0
BBX 7 12 1 0
BITMAP
4C
6C
00
38
7C
C6
FE
FE
C0
E4
7E
3C
ENDCHAR
STARTCHAR 0452
ENCODING 1106
SWIDTH 600 0
DWIDTH 10 0
BBX 8 16 1 -3
BITMAP
60
F8
F8
60
6E
7E
67
63
63
63
63
63
63
03
0E
0E
ENDCHAR
STARTCHAR 0453
ENCODING 1107
SWIDTH 480 0
DWIDTH 8 0
BBX 6 13 1 0
BITMAP
18
30
30
00
FC
FC
C0
C0
C0
C0
C0
C0
C0
ENDCHAR
STARTCHAR 0454
ENCODING 1108
SWIDTH 540 0
DWIDTH 9 0
BBX 7 9 1 0
BITMAP
38
7C
E6
C6
F0
F0
C6
7C
38
ENDCHAR
STARTCHAR 0455
ENCODING 1109
SWIDTH 540 0
DWIDTH 9 0
BBX 7 9 1 0
BITMAP
78
FC
CE
E0
7C
1E
C6
FC
78
ENDCHAR
STARTCHAR 0456
ENCODING 1110
SWIDTH 300 0
DWIDTH 5 0
BBX 2 12 1 0
BITMAP
C0
C0
40
C0
C0
C0
C0
C0
C0
C0
C0
C0
ENDCHAR
STARTCHAR 0457
ENCODING 1111
SWIDTH 420 0
DWIDTH 7 0
BBX 5 12 1 0
BITMAP
D8
D8
00
70
70
70
70
70
70
70
70
70
ENDCHAR
STARTCHAR 0458
ENCODING 1112
SWIDTH 360 0
DWIDTH 6 0
BBX 3 15 1 -3
BITMAP
60
60
20
60
60
60
60
60
60
60
60
60
60
E0
C0
ENDCHAR
STARTCHAR 0459
ENCODING 1113
SWIDTH 840 0
DWIDTH 14 0
BBX 12 9 1 0
BITMAP
7E00
7E00
7600
77E0
77F0
6630
6630
E7F0
C7E0
ENDCHAR
STARTCHAR 045A
ENCODING 1114
SWIDTH 840 0
DWIDTH 14 0
BBX 12 9 1 0
BITMAP
C600
C600
C600
FFE0
FFF0
C630
C630
C7F0
C7E0
ENDCHAR
STARTCHAR 045B
ENCODING 1115
SWIDTH 600 0
DWIDTH 10 0
BBX 8 13 1 0
BITMAP
60
F8
F8
60
7E
7E
67
67
67
67
67
67
67
ENDCHAR
STARTCHAR 045C
ENCODING 1116
SWIDTH 540 0
DWIDTH 9 0
BBX 7 13 1 0
BITMAP
0C
18
18
00
C6
CE
DC
F8
F8
FC
CC
CE
C6
ENDCHAR
STARTCHAR 045D
ENCODING 1117
SWIDTH 540 0
DWIDTH 9 0
BBX 7 13 1 0
BITMAP
60
30
10
08
C6
CE
CE
DE
D6
F6
E6
E6
C6
ENDCHAR
STARTCHAR 045E
ENCODING 1118
SWIDTH 540 0
DWIDTH 9 0
BBX 7 16 1 -3
BITMAP
44
7C
38
00
C6
C6
EC
6C
6C
78
38
38
30
30
70
60
ENDCHAR
STARTCHAR 045F
ENCODING 1119
SWIDTH 540 0
DWIDTH 9 0
BBX 7 12 1 -3
BITMAP
C6
C6
C6
C6
C6
C6
C6
FE
FE
18
18
18
ENDCHAR
STARTCHAR 0460
ENCODING 1120
SWIDTH 900 0
DWIDTH 15 0
BBX 12 12 1 0
BITMAP
C630
C630
C630
C630
C630
C630
C630
C630
C630
E730
7FF0
39E0
ENDCHAR
STARTCHAR 0461
ENCODING 1121
SWIDTH 780 0
DWIDTH 13 0
BBX 11 9 1 0
BITMAP
CE60
CE60
CE60
CE60
CE60
CE60
CE60
7FC0
3BC0
ENDCHAR
STARTCHAR 0462
ENCODING 1122
SWIDTH 660 0
DWIDTH 11 0
BBX 9 12 1 0
BITMAP
6000
F800
F800
6000
7E00
7F00
6380
6180
6180
6380
7F00
7E00
ENDCHAR
STARTCHAR 0463
ENCODING 1123
SWIDTH 600 0
DWIDTH 10 0
BBX 8 13 1 0
BITMAP
60
60
F8
F8
60
60
7C
7E
67
63
63
7E
7C
ENDCHAR
STARTCHAR 0464
ENCODING 1124
SWIDTH 840 0
DWIDTH 14 0
BBX 12 12 1 0
BITMAP
C3C0
C7E0
CE70
CC30
CC00
FF80
FF80
CC00
CC30
CE70
C7E0
C3C0
ENDCHAR
STARTCHAR 0465
ENCODING 1125
SWIDTH 720 0
DWIDTH 12 0
BBX 10 9 1 0
BITMAP
C780
CFC0
CCC0
FF00
FF00
D8C0
CCC0
CFC0
C780
ENDCHAR
STARTCHAR 0466
ENCODING 1126
SWIDTH 660 0
DWIDTH 11 0
BBX 9 12 1 0
BITMAP
1C00
1C00
1E00
3E00
3600
3700
3300
7F00
7F00
6D80
CD80
CD80
ENDCHAR
STARTCHAR 0467
ENCODING 1127
SWIDTH 600 0
DWIDTH 10 0
BBX 8 9 1 0
BITMAP
18
38
3C
3C
6C
7E
7E
DE
DB
ENDCHAR
STARTCHAR 0468
ENCODING 1128
SWIDTH 900 0
DWIDTH 15 0
BBX 13 12 1 0
BITMAP
C180
C1C0
C3C0
C3C0
C3E0
C660
C660
FFF0
FFF0
CDB0
CDB8
DD98
ENDCHAR
STARTCHAR 0469
ENCODING 1129
SWIDTH 780 0
DWIDTH 13 0
BBX 11 9 1 0
BITMAP
C300
C780
C780
C780
CCC0
FFC0
FFC0
DBE0
DB60
ENDCHAR
STARTCHAR 046A
ENCODING 1130
SWIDTH 840 0
DWIDTH 14 0
BBX 12 12 1 0
BITMAP
7FC0
3FC0
3980
1980
0F00
3FC0
7FE0
E660
C670
C670
C670
C670
ENDCHAR
STARTCHAR 046B
ENCODING 1131
SWIDTH 660 0
DWIDTH 11 0
BBX 9 9 1 0
BITMAP
7F00
3F00
3600
1E00
7F00
FF80
CD80
CD80
CD80
ENDCHAR
STARTCHAR 046C
ENCODING 1132
SWIDTH 1080 0
DWIDTH 18 0
BBX 16 12 1 0
BITMAP
C3FE
C3FC
C19C
C1D8
C0F8
FFFC
FFFE
CE67
CE63
CC63
CC63
CC63
ENDCHAR
STARTCHAR 046D
ENCODING 1133
SWIDTH 900 0
DWIDTH 15 0
BBX 13 9 1 0
BITMAP
C7F8
C3F0
C370
C1E0
FFF0
FFF8
CCD8
CCD8
CCD8
ENDCHAR
STARTCHAR 046E
ENCODING 1134
SWIDTH 540 0
DWIDTH 9 0
BBX 7 19 1 -3
BITMAP
6C
78
30
00
78
7C
0C
0C
0C
78
7C
0C
06
0E
FC
F8
C0
C0
E0
ENDCHAR
STARTCHAR 046F
ENCODING 1135
SWIDTH 480 0
DWIDTH 8 0
BBX 6 16 1 -3
BITMAP
CC
78
30
00
F8
FC
0C
7C
78
0C
0C
7C
F8
C0
C0
40
ENDCHAR
STARTCHAR 0470
ENCODING 1136
SWIDTH 720 0
DWIDTH 12 0
BBX 10 12 1 0
BITMAP
CCC0
CCC0
CCC0
CCC0
CCC0
CCC0
EDC0
7F80
3F00
0C00
0C00
0C00
ENDCHAR
STARTCHAR 0471
ENCODING 1137
SWIDTH 720 0
DWIDTH 12 0
BBX 10 13 1 -4
BITMAP
CD80
CCC0
CCC0
CCC0
CCC0
CCC0
EDC0
7F80
3F00
0C00
0C00
0C00
0C00
ENDCHAR
STARTCHAR 0472
ENCODING 1138
SWIDTH 660 0
DWIDTH 11 0
BBX 9 12 1 0
BITMAP
3C00
7F00
6300
E380
C180
FF80
FF80
C180
E380
6300
7F00
3E00
ENDCHAR
STARTCHAR 0473
ENCODING 1139
SWIDTH 540 0
DWIDTH 9 0
BBX 7 9 1 0
BITMAP
3C
7E
E6
C6
FE
FE
C6
7E
3C
ENDCHAR
STARTCHAR 0474
ENCODING 1140
SWIDTH 660 0
DWIDTH 11 0
BBX 9 13 1 0
BITMAP
0080
C180
C380
E300
6300
6200
6600
3600
3600
3400
1C00
1C00
1C00
ENDCHAR
STARTCHAR 0475
ENCODING 1141
SWIDTH 540 0
DWIDTH 9 0
BBX 7 9 1 0
BITMAP
C6
C6
CC
6C
6C
78
38
38
30
ENDCHAR
STARTCHAR 0476
ENCODING 1142
SWIDTH 660 0
DWIDTH 11 0
BBX 9 15 1 0
BITMAP
FC00
3C00
0280
C180
C380
E300
6300
6200
6600
3600
3600
3400
1C00
1C00
1C00
ENDCHAR
STARTCHAR 0477
ENCODING 1143
SWIDTH 540 0
DWIDTH 9 0
BBX 8 12 1 0
BITMAP
D8
6C
00
C7
C6
6C
6C
6C
68
38
38
38
ENDCHAR
STARTCHAR 0478
ENCODING 1144
SWIDTH 1140 0
DWIDTH 19 0
BBX 17 15 1 -3
BITMAP
3C0000
7F0000
630000
E3B180
C1B180
C1BB00
C19B00
C19B00
E39E00
630E00
7F0E00
1E0C00
000C00
001C00
001800
ENDCHAR
STARTCHAR 0479
ENCODING 1145
SWIDTH 1020 0
DWIDTH 17 0
BBX 15 12 1 -3
BITMAP
3CC6
7EE6
E666
C66C
C66C
C63C
E638
7E38
3C18
0030
0070
0060
ENDCHAR
STARTCHAR 047A
ENCODING 1146
SWIDTH 660 0
DWIDTH 11 0
BBX 9 14 1 -1
BITMAP
0800
3C00
7F00
6B00
E380
C180
C180
C180
C180
E380
6B00
7F00
3E00
0800
ENDCHAR
STARTCHAR 047B
ENCODING 1147
SWIDTH 540 0
DWIDTH 9 0
BBX 7 11 1 -1
BITMAP
10
3C
7E
F6
C6
C6
C6
F6
7E
3C
10
ENDCHAR
STARTCHAR 047C
ENCODING 1148
SWIDTH 840 0
DWIDTH 14 0
BBX 12 15 1 0
BITMAP
0E00
0980
0200
3260
7470
E030
C030
C030
C630
C630
C630
C630
E730
7FF0
39E0
ENDCHAR
STARTCHAR 047D
ENCODING 1149
SWIDTH 780 0
DWIDTH 13 0
BBX 10 12 1 0
BITMAP
0E00
1380
0400
2580
69C0
C0C0
C0C0
CCC0
CCC0
CCC0
7FC0
7B80
ENDCHAR
STARTCHAR 047E
ENCODING 1150
SWIDTH 900 0
DWIDTH 15 0
BBX 12 15 1 0
BITMAP
1FC0
0200
0000
C630
C630
C630
C630
C630
C630
C630
C630
C630
E730
7FF0
39E0
ENDCHAR
STARTCHAR 047F
ENCODING 1151
SWIDTH 780 0
DWIDTH 13 0
BBX 11 12 1 0
BITMAP
1F80
0400
0000
CE60
CE60
CE60
CE60
CE60
CE60
CE60
7FC0
3BC0
ENDCHAR
STARTCHAR 0480
ENCODING 1152
SWIDTH 600 0
DWIDTH 10 0
BBX 8 15 1 -3
BITMAP
3C
7E
E7
C3
C0
C0
C0
C0
C0
E0
7C
3C
1C
1C
1C
ENDCHAR
STARTCHAR 0481
ENCODING 1153
SWIDTH 540 0
DWIDTH 9 0
BBX 7 12 1 -3
BITMAP
38
7C
E6
C6
C0
C0
C0
78
78
18
18
18
ENDCHAR
STARTCHAR 0482
ENCODING 1154
SWIDTH 540 0
DWIDTH 9 0
BBX 7 11 1 0
BITMAP
02
24
34
0C
1E
90
F0
70
78
40
C0
ENDCHAR
STARTCHAR 0483
ENCODING 1155
SWIDTH 420 0
DWIDTH 7 0
BBX 5 3 1 10
BITMAP
08
F8
80
ENDCHAR
STARTCHAR 0484
ENCODING 1156
SWIDTH 480 0
DWIDTH 8 0
BBX 6 2 1 11
BITMAP
38
EC
ENDCHAR
STARTCHAR 0485
ENCODING 1157
SWIDTH 240 0
DWIDTH 4 0
BBX 2 3 1 11
BITMAP
80
80
40
ENDCHAR
STARTCHAR 0486
ENCODING 1158
SWIDTH 240 0
DWIDTH 4 0
BBX 2 3 1 11
BITMAP
C0
C0
80
ENDCHAR
STARTCHAR 0488
ENCODING 1160
SWIDTH 960 0
DWIDTH 16 0
BBX 14 15 1 -3
BITMAP
0300
0400
3030
5028
0000
0000
C00C
A014
0000
0000
3030
5028
0000
0300
0400
ENDCHAR
STARTCHAR 0489
ENCODING 1161
SWIDTH 900 0
DWIDTH 15 0
BBX 13 15 1 -3
BITMAP
0200
0200
2210
2060
1000
0000
0000
C018
0000
0000
0040
3020
6220
0200
0200
ENDCHAR
STARTCHAR 048A
ENCODING 1162
SWIDTH 720 0
DWIDTH 12 0
BBX 11 19 1 -3
BITMAP
3200
3E00
1C00
0000
C380
C380
C780
C780
CD80
CD80
D980
D980
F180
F180
E1E0
E1E0
0040
00C0
00C0
ENDCHAR
STARTCHAR 048B
ENCODING 1163
SWIDTH 660 0
DWIDTH 11 0
BBX 9 16 1 -3
BITMAP
6400
7C00
3800
0000
C600
CE00
CE00
DE00
D600
F600
E600
E780
C780
0180
0100
0300
ENDCHAR
STARTCHAR 048C
ENCODING 1164
SWIDTH 660 0
DWIDTH 11 0
BBX 9 12 1 0
BITMAP
6000
F800
F800
6000
7E00
7F00
6380
6180
6180
6380
7F00
7E00
ENDCHAR
STARTCHAR 048D
ENCODING 1165
SWIDTH 600 0
DWIDTH 10 0
BBX 8 13 1 0
BITMAP
60
F8
F8
60
60
60
7C
7E
67
63
63
7E
7C
ENDCHAR
STARTCHAR 048E
ENCODING 1166
SWIDTH 600 0
DWIDTH 10 0
BBX 8 12 1 0
BITMAP
FC
FF
C7
C3
CF
C7
FF
FF
C1
C0
C0
C0
ENDCHAR
STARTCHAR 048F
ENCODING 1167
SWIDTH 540 0
DWIDTH 9 0
BBX 7 12 1 -3
BITMAP
DC
FE
E6
C6
C6
CE
EE
FE
DE
C0
C0
C0
ENDCHAR
STARTCHAR 0490
ENCODING 1168
SWIDTH 540 0
DWIDTH 9 0
BBX 7 15 1 0
BITMAP
06
06
06
FE
FE
C0
C0
C0
C0
C0
C0
C0
C0
C0
C0
ENDCHAR
STARTCHAR 0491
ENCODING 1169
SWIDTH 480 0
DWIDTH 8 0
BBX 6 12 1 0
BITMAP
0C
0C
0C
FC
FC
C0
C0
C0
C0
C0
C0
C0
ENDCHAR
STARTCHAR 0492
ENCODING 1170
SWIDTH 600 0
DWIDTH 10 0
BBX 8 12 1 0
BITMAP
7F
7F
60
60
60
F8
F8
60
60
60
60
60
ENDCHAR
STARTCHAR 0493
ENCODING 1171
SWIDTH 540 0
DWIDTH 9 0
BBX 7 9 1 0
BITMAP
7E
7E
60
F8
F8
60
60
60
60
ENDCHAR
STARTCHAR 0494
ENCODING 1172
SWIDTH 600 0
DWIDTH 10 0
BBX 8 15 1 -3
BITMAP
FE
FE
C0
C0
C0
FC
FE
C7
C3
C3
C3
C3
07
0E
0C
ENDCHAR
STARTCHAR 0495
ENCODING 1173
SWIDTH 540 0
DWIDTH 9 0
BBX 7 11 1 -2
BITMAP
FC
FC
C0
F8
FC
CE
C6
C6
CE
1C
08
ENDCHAR
STARTCHAR 0496
ENCODING 1174
SWIDTH 1020 0
DWIDTH 17 0
BBX 16 15 1 -3
BITMAP
E30C
631C
7318
3330
1B30
1FE0
3FF0
3B30
7338
7318
E31F
E30F
0007
0007
0007
ENDCHAR
STARTCHAR 0497
ENCODING 1175
SWIDTH 900 0
DWIDTH 15 0
BBX 13 12 1 -3
BITMAP
E670
6660
76E0
36C0
3FC0
3FC0
76E0
6678
E678
0018
0018
0018
ENDCHAR
STARTCHAR 0498
ENCODING 1176
SWIDTH 600 0
DWIDTH 10 0
BBX 8 16 1 -4
BITMAP
3C
7E
E7
C3
07
1E
1E
07
03
C7
FE
3C
18
18
18
18
ENDCHAR
STARTCHAR 0499
ENCODING 1177
SWIDTH 540 0
DWIDTH 9 0
BBX 7 13 1 -4
BITMAP
78
FC
CC
3C
3C
0E
CE
FC
78
30
30
30
30
ENDCHAR
STARTCHAR 049A
ENCODING 1178
SWIDTH 720 0
DWIDTH 12 0
BBX 10 15 1 -3
BITMAP
C300
C700
C600
CE00
DC00
F800
FC00
CE00
C600
C700
C3C0
C3C0
00C0
00C0
00C0
ENDCHAR
STARTCHAR 049B
ENCODING 1179
SWIDTH 600 0
DWIDTH 10 0
BBX 9 12 1 -3
BITMAP
C600
CE00
DC00
F800
F800
FC00
CC00
CF80
C780
0380
0380
0380
ENDCHAR
STARTCHAR 049C
ENCODING 1180
SWIDTH 660 0
DWIDTH 11 0
BBX 9 12 1 0
BITMAP
C380
C300
C700
D600
D600
FC00
FE00
D600
D700
C300
C380
C380
ENDCHAR
STARTCHAR 049D
ENCODING 1181
SWIDTH 600 0
DWIDTH 10 0
BBX 8 9 1 0
BITMAP
C7
C6
D6
FC
FC
FE
D6
C7
C7
ENDCHAR
STARTCHAR 049E
ENCODING 1182
SWIDTH 720 0
DWIDTH 12 0
BBX 10 12 1 0
BITMAP
6180
FB80
FF00
6600
6E00
7C00
7E00
6600
6700
6380
6380
61C0
ENDCHAR
STARTCHAR 049F
ENCODING 1183
SWIDTH 600 0
DWIDTH 10 0
BBX 8 13 1 0
BITMAP
60
F8
F8
60
67
66
6C
7C
7C
7C
66
67
63
ENDCHAR
STARTCHAR 04A0
ENCODING 1184
SWIDTH 840 0
DWIDTH 14 0
BBX 12 12 1 0
BITMAP
F860
F8E0
18C0
19C0
1B80
1F00
1F80
19C0
19C0
18E0
1860
1870
ENDCHAR
STARTCHAR 04A1
ENCODING 1185
SWIDTH 720 0
DWIDTH 12 0
BBX 10 9 1 0
BITMAP
F9C0
F980
1B80
1F00
1F00
1F00
1B80
1980
19C0
ENDCHAR
STARTCHAR 04A2
ENCODING 1186
SWIDTH 720 0
DWIDTH 12 0
BBX 11 15 1 -3
BITMAP
C180
C180
C180
C180
C180
FF80
FF80
C180
C180
C180
C1E0
C1E0
00E0
00E0
00E0
ENDCHAR
STARTCHAR 04A3
ENCODING 1187
SWIDTH 660 0
DWIDTH 11 0
BBX 9 12 1 -3
BITMAP
C600
C600
C600
C600
FE00
FE00
C600
C780
C780
0180
0180
0180
ENDCHAR
STARTCHAR 04A4
ENCODING 1188
SWIDTH 900 0
DWIDTH 15 0
BBX 13 12 1 0
BITMAP
C1F8
C1F8
C180
C180
C180
FF80
FF80
C180
C180
C180
C180
C180
ENDCHAR
STARTCHAR 04A5
ENCODING 1189
SWIDTH 720 0
DWIDTH 12 0
BBX 10 9 1 0
BITMAP
C7C0
C7C0
C600
C600
FE00
FE00
C600
C600
C600
ENDCHAR
STARTCHAR 04A6
ENCODING 1190
SWIDTH 960 0
DWIDTH 16 0
BBX 14 15 1 -3
BITMAP
FF80
FF80
C180
C180
C180
C1F0
C1F8
C19C
C18C
C18C
C18C
C18C
000C
0038
0030
ENDCHAR
STARTCHAR 04A7
ENCODING 1191
SWIDTH 840 0
DWIDTH 14 0
BBX 12 11 1 -2
BITMAP
FE00
FE00
C600
C7C0
C7E0
C670
C630
C630
C630
00E0
0060
ENDCHAR
STARTCHAR 04A8
ENCODING 1192
SWIDTH 780 0
DWIDTH 13 0
BBX 11 12 1 0
BITMAP
3380
77C0
EEC0
CCC0
CCE0
CCE0
CCE0
CCC0
E6C0
77C0
7FE0
1EE0
ENDCHAR
STARTCHAR 04A9
ENCODING 1193
SWIDTH 660 0
DWIDTH 11 0
BBX 9 9 1 0
BITMAP
6E00
6F00
FB00
DB00
DB00
DB00
EF00
7F80
3F80
ENDCHAR
STARTCHAR 04AA
ENCODING 1194
SWIDTH 660 0
DWIDTH 11 0
BBX 9 16 1 -4
BITMAP
3E00
7F00
6300
C380
C000
C000
C000
C000
C380
6300
7F00
3E00
1800
1800
1800
1800
ENDCHAR
STARTCHAR 04AB
ENCODING 1195
SWIDTH 540 0
DWIDTH 9 0
BBX 7 13 1 -4
BITMAP
38
7C
E6
C6
C0
C0
C6
7C
38
38
38
38
38
ENDCHAR
STARTCHAR 04AC
ENCODING 1196
SWIDTH 600 0
DWIDTH 10 0
BBX 8 15 1 -3
BITMAP
FF
FF
18
18
18
18
18
18
18
18
1E
1E
0E
0E
0E
ENDCHAR
STARTCHAR 04AD
ENCODING 1197
SWIDTH 540 0
DWIDTH 9 0
BBX 7 12 1 -3
BITMAP
FE
FE
30
30
30
30
30
3C
3C
0C
0C
0C
ENDCHAR
STARTCHAR 04AE
ENCODING 1198
SWIDTH 660 0
DWIDTH 11 0
BBX 9 12 1 0
BITMAP
C380
E300
6300
6600
3600
3C00
1C00
1800
1800
1800
1800
1800
ENDCHAR
STARTCHAR 04AF
ENCODING 1199
SWIDTH 540 0
DWIDTH 9 0
BBX 7 12 1 -3
BITMAP
C6
C6
EC
6C
6C
68
38
38
38
38
38
38
ENDCHAR
STARTCHAR 04B0
ENCODING 1200
SWIDTH 660 0
DWIDTH 11 0
BBX 9 12 1 0
BITMAP
C380
E300
6700
7600
3600
3C00
3E00
3E00
1800
1800
1800
1800
ENDCHAR
STARTCHAR 04B1
ENCODING 1201
SWIDTH 540 0
DWIDTH 9 0
BBX 7 12 1 -3
BITMAP
C6
C6
EC
6C
6C
68
38
7C
7C
30
30
30
ENDCHAR
STARTCHAR 04B2
ENCODING 1202
SWIDTH 660 0
DWIDTH 11 0
BBX 9 15 1 -3
BITMAP
E380
6300
7700
3600
3E00
1C00
1C00
3E00
3600
7700
E380
E380
0180
0180
0180
ENDCHAR
STARTCHAR 04B3
ENCODING 1203
SWIDTH 600 0
DWIDTH 10 0
BBX 8 12 1 -3
BITMAP
C6
6C
6C
38
38
38
6C
6F
C7
03
03
03
ENDCHAR
STARTCHAR 04B4
ENCODING 1204
SWIDTH 840 0
DWIDTH 14 0
BBX 12 15 1 -3
BITMAP
FE60
FE60
3060
3060
3060
3060
3060
3060
3060
3060
3FF0
3FF0
0030
0030
0030
ENDCHAR
STARTCHAR 04B5
ENCODING 1205
SWIDTH 660 0
DWIDTH 11 0
BBX 9 12 1 -3
BITMAP
FB00
FB00
7300
7300
7300
7300
7300
7F80
7F80
0180
0180
0180
ENDCHAR
STARTCHAR 04B6
ENCODING 1206
SWIDTH 720 0
DWIDTH 12 0
BBX 10 15 1 -3
BITMAP
C300
C300
C300
C300
C300
E300
7F00
3F00
0300
0300
03C0
03C0
00C0
00C0
00C0
ENDCHAR
STARTCHAR 04B7
ENCODING 1207
SWIDTH 600 0
DWIDTH 10 0
BBX 8 12 1 -3
BITMAP
C6
C6
C6
C6
FE
7E
06
07
07
03
03
03
ENDCHAR
STARTCHAR 04B8
ENCODING 1208
SWIDTH 660 0
DWIDTH 11 0
BBX 8 12 1 0
BITMAP
C3
C3
C3
CB
CB
EB
7F
3F
0B
0B
03
03
ENDCHAR
STARTCHAR 04B9
ENCODING 1209
SWIDTH 540 0
DWIDTH 9 0
BBX 7 9 1 0
BITMAP
C6
C6
D6
D6
FE
7E
16
06
06
ENDCHAR
STARTCHAR 04BA
ENCODING 1210
SWIDTH 660 0
DWIDTH 11 0
BBX 9 12 1 0
BITMAP
C000
C000
C000
C000
FE00
FF00
C300
C380
C380
C380
C380
C380
ENDCHAR
STARTCHAR 04BB
ENCODING 1211
SWIDTH 540 0
DWIDTH 9 0
BBX 7 13 1 0
BITMAP
C0
C0
C0
C0
DC
FE
E6
C6
C6
C6
C6
C6
C6
ENDCHAR
STARTCHAR 04BC
ENCODING 1212
SWIDTH 780 0
DWIDTH 13 0
BBX 11 12 1 0
BITMAP
0F00
1FC0
1DC0
B8C0
F0E0
FFE0
7FE0
3000
3800
1C40
1FC0
07C0
ENDCHAR
STARTCHAR 04BD
ENCODING 1213
SWIDTH 660 0
DWIDTH 11 0
BBX 9 9 1 0
BITMAP
0E00
1F00
B180
FF80
7F80
3000
3900
1F80
0F00
ENDCHAR
STARTCHAR 04BE
ENCODING 1214
SWIDTH 780 0
DWIDTH 13 0
BBX 11 16 1 -4
BITMAP
0F00
1FC0
1DC0
B8C0
F0E0
FFE0
7FE0
3000
3800
1C40
1FC0
07C0
0300
0300
0300
0300
ENDCHAR
STARTCHAR 04BF
ENCODING 1215
SWIDTH 660 0
DWIDTH 11 0
BBX 9 13 1 -4
BITMAP
0E00
1F00
B180
FF80
7F80
3000
3900
1F80
0F00
0600
0600
0600
0600
ENDCHAR
STARTCHAR 04C0
ENCODING 1216
SWIDTH 300 0
DWIDTH 5 0
BBX 2 12 1 0
BITMAP
C0
C0
C0
C0
C0
C0
C0
C0
C0
C0
C0
C0
ENDCHAR
STARTCHAR 04C1
ENCODING 1217
SWIDTH 960 0
DWIDTH 16 0
BBX 14 16 1 0
BITMAP
04C0
07C0
0380
0000
E30C
631C
7318
3330
1B30
1FE0
3FF0
3B30
7338
7318
E31C
E30C
ENDCHAR
STARTCHAR 04C2
ENCODING 1218
SWIDTH 840 0
DWIDTH 14 0
BBX 12 13 1 0
BITMAP
0980
0F00
0F00
0000
E670
6660
76E0
36C0
3FC0
3FC0
76E0
6660
E670
ENDCHAR
STARTCHAR 04C3
ENCODING 1219
SWIDTH 660 0
DWIDTH 11 0
BBX 9 15 1 -3
BITMAP
C300
C700
CE00
CC00
DC00
FE00
FF00
C300
C380
C180
C180
C380
0300
0700
0600
ENDCHAR
STARTCHAR 04C4
ENCODING 1220
SWIDTH 540 0
DWIDTH 9 0
BBX 7 11 1 -2
BITMAP
C6
CE
DC
F8
FC
FE
C6
C6
C6
0E
0C
ENDCHAR
STARTCHAR 04C5
ENCODING 1221
SWIDTH 780 0
DWIDTH 13 0
BBX 11 15 1 -3
BITMAP
3F80
3F80
3180
3180
3180
3180
3180
3180
3180
6180
E1E0
C1E0
0060
0060
00C0
ENDCHAR
STARTCHAR 04C6
ENCODING 1222
SWIDTH 660 0
DWIDTH 11 0
BBX 9 12 1 -3
BITMAP
7E00
7E00
6600
6600
6600
6600
6600
E780
C780
0180
0180
0100
ENDCHAR
STARTCHAR 04C7
ENCODING 1223
SWIDTH 660 0
DWIDTH 11 0
BBX 9 15 1 -3
BITMAP
C180
C180
C180
C180
C180
FF80
FF80
C180
C180
C180
C180
C180
0180
0780
0700
ENDCHAR
STARTCHAR 04C8
ENCODING 1224
SWIDTH 540 0
DWIDTH 9 0
BBX 7 12 1 -3
BITMAP
C6
C6
C6
C6
FE
FE
C6
C6
C6
06
1E
1C
ENDCHAR
STARTCHAR 04C9
ENCODING 1225
SWIDTH 720 0
DWIDTH 12 0
BBX 11 15 1 -3
BITMAP
C180
C180
C180
C180
C180
FF80
FF80
C180
C180
C180
C1E0
C1E0
0040
00C0
00C0
ENDCHAR
STARTCHAR 04CA
ENCODING 1226
SWIDTH 660 0
DWIDTH 11 0
BBX 9 12 1 -3
BITMAP
C600
C600
C600
C600
FE00
FE00
C600
C780
C780
0180
0100
0300
ENDCHAR
STARTCHAR 04CB
ENCODING 1227
SWIDTH 660 0
DWIDTH 11 0
BBX 8 15 1 -3
BITMAP
C3
C3
C3
C3
C3
E3
7F
3F
03
03
07
07
06
06
06
ENDCHAR
STARTCHAR 04CC
ENCODING 1228
SWIDTH 540 0
DWIDTH 9 0
BBX 7 12 1 -3
BITMAP
C6
C6
C6
C6
FE
7E
06
1E
1E
18
18
18
ENDCHAR
STARTCHAR 04CD
ENCODING 1229
SWIDTH 900 0
DWIDTH 15 0
BBX 13 15 1 -3
BITMAP
E0E0
F0E0
F0E0
F1E0
D1E0
D9E0
D960
CB60
CF60
CE60
C678
C678
0018
0018
0010
ENDCHAR
STARTCHAR 04CE
ENCODING 1230
SWIDTH 780 0
DWIDTH 13 0
BBX 11 12 1 -3
BITMAP
E1C0
E3C0
F3C0
F3C0
D7C0
DFC0
DDC0
CDE0
CDE0
0060
0060
0040
ENDCHAR
STARTCHAR 04CF
ENCODING 1231
SWIDTH 300 0
DWIDTH 5 0
BBX 2 12 1 0
BITMAP
C0
C0
C0
C0
C0
C0
C0
C0
C0
C0
C0
C0
ENDCHAR
STARTCHAR 04D0
ENCODING 1232
SWIDTH 720 0
DWIDTH 12 0
BBX 10 16 1 0
BITMAP
3200
3E00
1C00
0000
0C00
1C00
1E00
1E00
3600
3300
3300
7F00
7F80
6180
C180
C1C0
ENDCHAR
STARTCHAR 04D1
ENCODING 1233
SWIDTH 540 0
DWIDTH 9 0
BBX 7 13 1 0
BITMAP
4C
7C
38
00
38
7C
CE
1E
7E
C6
CE
FE
76
ENDCHAR
STARTCHAR 04D2
ENCODING 1234
SWIDTH 720 0
DWIDTH 12 0
BBX 10 15 1 0
BITMAP
3200
3300
0000
0C00
1C00
1E00
1E00
3600
3300
3300
7F00
7F80
6180
C180
C1C0
ENDCHAR
STARTCHAR 04D3
ENCODING 1235
SWIDTH 540 0
DWIDTH 9 0
BBX 7 12 1 0
BITMAP
6C
6C
00
38
7C
CE
1E
7E
C6
CE
FE
76
ENDCHAR
STARTCHAR 04D4
ENCODING 1236
SWIDTH 900 0
DWIDTH 15 0
BBX 13 12 1 0
BITMAP
07F8
07F8
0F80
0F80
1DF0
19F0
3980
3F80
7F80
6180
E1F8
C1F8
ENDCHAR
STARTCHAR 04D5
ENCODING 1237
SWIDTH 840 0
DWIDTH 14 0
BBX 12 9 1 0
BITMAP
3DC0
7FE0
C670
3FF0
FFF0
C600
C700
FFE0
79F0
ENDCHAR
STARTCHAR 04D6
ENCODING 1238
SWIDTH 540 0
DWIDTH 9 0
BBX 7 16 1 0
BITMAP
64
3C
3C
00
FE
FE
C0
C0
C0
FE
FE
C0
C0
C0
FE
FE
ENDCHAR
STARTCHAR 04D7
ENCODING 1239
SWIDTH 540 0
DWIDTH 9 0
BBX 7 13 1 0
BITMAP
4C
7C
38
00
38
7C
C6
FE
FE
C0
E4
7E
3C
ENDCHAR
STARTCHAR 04D8
ENCODING 1240
SWIDTH 660 0
DWIDTH 11 0
BBX 9 12 1 0
BITMAP
7C00
7F00
4700
0380
0180
FF80
FF80
C180
C180
6700
7F00
3E00
ENDCHAR
STARTCHAR 04D9
ENCODING 1241
SWIDTH 540 0
DWIDTH 9 0
BBX 7 9 1 0
BITMAP
78
FC
0E
06
FE
FE
CE
FC
78
ENDCHAR
STARTCHAR 04DA
ENCODING 1242
SWIDTH 660 0
DWIDTH 11 0
BBX 9 15 1 0
BITMAP
2600
6600
0000
7C00
7F00
4700
0380
0180
FF80
FF80
C180
C180
6700
7F00
3E00
ENDCHAR
STARTCHAR 04DB
ENCODING 1243
SWIDTH 540 0
DWIDTH 9 0
BBX 7 12 1 0
BITMAP
4C
6C
00
78
FC
0E
06
FE
FE
CE
FC
78
ENDCHAR
STARTCHAR 04DC
ENCODING 1244
SWIDTH 960 0
DWIDTH 16 0
BBX 14 15 1 0
BITMAP
0CC0
0CC0
0000
E31C
631C
7338
3330
3B70
1FE0
3FF0
3B30
7338
7318
E31C
E30C
ENDCHAR
STARTCHAR 04DD
ENCODING 1245
SWIDTH 840 0
DWIDTH 14 0
BBX 12 12 1 0
BITMAP
1980
1980
0000
E670
6660
76E0
36C0
3FC0
3FC0
76E0
6660
E670
ENDCHAR
STARTCHAR 04DE
ENCODING 1246
SWIDTH 600 0
DWIDTH 10 0
BBX 8 15 1 0
BITMAP
64
66
00
3C
7E
E7
C3
07
1E
1E
07
C3
E7
FE
3C
ENDCHAR
STARTCHAR 04DF
ENCODING 1247
SWIDTH 540 0
DWIDTH 9 0
BBX 7 12 1 0
BITMAP
4C
CC
00
78
FC
CC
3C
3C
0E
CE
FC
78
ENDCHAR
STARTCHAR 04E0
ENCODING 1248
SWIDTH 600 0
DWIDTH 10 0
BBX 8 12 1 0
BITMAP
FE
FE
0E
1C
18
3C
0E
06
C7
E6
FE
3C
ENDCHAR
STARTCHAR 04E1
ENCODING 1249
SWIDTH 540 0
DWIDTH 9 0
BBX 7 12 1 -3
BITMAP
FE
FE
0E
1C
38
3C
0E
06
C6
C6
FE
7C
ENDCHAR
STARTCHAR 04E2
ENCODING 1250
SWIDTH 660 0
DWIDTH 11 0
BBX 9 15 1 0
BITMAP
3E00
3E00
0000
C380
C380
C780
C780
CD80
CD80
D980
D980
F180
F180
E180
E180
ENDCHAR
STARTCHAR 04E3
ENCODING 1251
SWIDTH 540 0
DWIDTH 9 0
BBX 7 12 1 0
BITMAP
7C
7C
00
C6
CE
CE
DE
D6
F6
E6
E6
C6
ENDCHAR
STARTCHAR 04E4
ENCODING 1252
SWIDTH 660 0
DWIDTH 11 0
BBX 9 15 1 0
BITMAP
3600
3600
0000
C380
C380
C780
C780
CD80
CD80
D980
D980
F180
F180
E180
E180
ENDCHAR
STARTCHAR 04E5
ENCODING 1253
SWIDTH 540 0
DWIDTH 9 0
BBX 7 12 1 0
BITMAP
64
6C
00
C6
CE
CE
DE
D6
F6
E6
E6
C6
ENDCHAR
STARTCHAR 04E6
ENCODING 1254
SWIDTH 660 0
DWIDTH 11 0
BBX 9 15 1 0
BITMAP
3600
3600
0000
3C00
7F00
6300
E380
C180
C180
C180
C180
E380
6300
7F00
1E00
ENDCHAR
STARTCHAR 04E7
ENCODING 1255
SWIDTH 540 0
DWIDTH 9 0
BBX 7 12 1 0
BITMAP
64
6C
00
3C
7E
E6
C6
C6
C6
E6
7E
3C
ENDCHAR
STARTCHAR 04E8
ENCODING 1256
SWIDTH 660 0
DWIDTH 11 0
BBX 9 12 1 0
BITMAP
3C00
7F00
6300
E380
C180
FF80
FF80
C180
E380
6300
7F00
1E00
ENDCHAR
STARTCHAR 04E9
ENCODING 1257
SWIDTH 540 0
DWIDTH 9 0
BBX 7 9 1 0
BITMAP
3C
7E
E6
C6
FE
FE
C6
7E
3C
ENDCHAR
STARTCHAR 04EA
ENCODING 1258
SWIDTH 660 0
DWIDTH 11 0
BBX 9 15 1 0
BITMAP
3200
3600
0000
3C00
7F00
6300
E380
C180
FF80
FF80
C180
E380
6300
7F00
1E00
ENDCHAR
STARTCHAR 04EB
ENCODING 1259
SWIDTH 540 0
DWIDTH 9 0
BBX 7 12 1 0
BITMAP
64
6C
00
3C
7E
E6
C6
FE
FE
C6
7E
3C
ENDCHAR
STARTCHAR 04EC
ENCODING 1260
SWIDTH 660 0
DWIDTH 11 0
BBX 9 15 1 0
BITMAP
2600
6600
0000
3C00
7E00
E700
C300
0380
1F80
1F80
0380
C300
E300
7E00
3C00
ENDCHAR
STARTCHAR 04ED
ENCODING 1261
SWIDTH 540 0
DWIDTH 9 0
BBX 7 12 1 0
BITMAP
4C
4C
00
78
FC
CE
1E
1E
C6
CC
FC
78
ENDCHAR
STARTCHAR 04EE
ENCODING 1262
SWIDTH 600 0
DWIDTH 10 0
BBX 9 15 1 0
BITMAP
3E00
3E00
0000
C380
E300
6700
6600
3600
3E00
1C00
1C00
1800
1800
7800
7000
ENDCHAR
STARTCHAR 04EF
ENCODING 1263
SWIDTH 540 0
DWIDTH 9 0
BBX 7 15 1 -3
BITMAP
7C
7C
00
C6
C6
EC
6C
6C
78
38
38
30
30
70
60
ENDCHAR
STARTCHAR 04F0
ENCODING 1264
SWIDTH 600 0
DWIDTH 10 0
BBX 9 15 1 0
BITMAP
2600
2600
0000
C380
E300
6700
6600
3600
3E00
1C00
1C00
1800
1800
7800
7000
ENDCHAR
STARTCHAR 04F1
ENCODING 1265
SWIDTH 540 0
DWIDTH 9 0
BBX 7 15 1 -3
BITMAP
6C
6C
00
C6
C6
EC
6C
6C
78
38
38
30
30
70
60
ENDCHAR
STARTCHAR 04F2
ENCODING 1266
SWIDTH 600 0
DWIDTH 10 0
BBX 9 16 1 0
BITMAP
1B00
1A00
3600
0000
C380
E300
6700
6600
3600
3E00
1C00
1C00
1800
1800
7800
7000
ENDCHAR
STARTCHAR 04F3
ENCODING 1267
SWIDTH 540 0
DWIDTH 9 0
BBX 7 16 1 -3
BITMAP
36
34
6C
00
C6
C6
EC
6C
6C
78
38
38
30
30
70
60
ENDCHAR
STARTCHAR 04F4
ENCODING 1268
SWIDTH 660 0
DWIDTH 11 0
BBX 8 15 1 0
BITMAP
26
36
00
C3
C3
C3
C3
C3
E3
7F
3F
03
03
03
03
ENDCHAR
STARTCHAR 04F5
ENCODING 1269
SWIDTH 540 0
DWIDTH 9 0
BBX 7 12 1 0
BITMAP
6C
6C
00
C6
C6
C6
C6
FE
7E
06
06
06
ENDCHAR
STARTCHAR 04F6
ENCODING 1270
SWIDTH 540 0
DWIDTH 9 0
BBX 7 15 1 -3
BITMAP
FE
FE
C0
C0
C0
C0
C0
C0
C0
C0
F0
F0
30
30
30
ENDCHAR
STARTCHAR 04F7
ENCODING 1271
SWIDTH 480 0
DWIDTH 8 0
BBX 6 12 1 -3
BITMAP
FC
FC
C0
C0
C0
C0
C0
F0
F0
30
30
30
ENDCHAR
STARTCHAR 04F8
ENCODING 1272
SWIDTH 840 0
DWIDTH 14 0
BBX 11 15 1 0
BITMAP
1900
1980
0000
C060
C060
C060
C060
FC60
FE60
C760
C360
C360
C760
FE60
FC60
ENDCHAR
STARTCHAR 04F9
ENCODING 1273
SWIDTH 780 0
DWIDTH 13 0
BBX 11 12 1 0
BITMAP
1B00
1B00
0000
C0E0
C0E0
C0E0
FCE0
FEE0
C6E0
C6E0
FEE0
FCE0
ENDCHAR
STARTCHAR 04FA
ENCODING 1274
SWIDTH 600 0
DWIDTH 10 0
BBX 8 15 1 -3
BITMAP
7F
7F
60
60
60
F8
F8
60
60
60
78
78
18
38
70
ENDCHAR
STARTCHAR 04FB
ENCODING 1275
SWIDTH 540 0
DWIDTH 9 0
BBX 7 13 1 -4
BITMAP
7E
7E
60
F8
F8
60
60
78
78
18
18
78
70
ENDCHAR
STARTCHAR 04FC
ENCODING 1276
SWIDTH 720 0
DWIDTH 12 0
BBX 10 15 1 -3
BITMAP
E380
6300
7700
3600
3E00
1C00
1C00
3E00
3600
7700
E3C0
E3C0
00C0
03C0
0380
ENDCHAR
STARTCHAR 04FD
ENCODING 1277
SWIDTH 600 0
DWIDTH 10 0
BBX 8 12 1 -3
BITMAP
C6
6C
6C
38
38
38
6C
6F
C7
03
0F
0E
ENDCHAR
STARTCHAR 04FE
ENCODING 1278
SWIDTH 660 0
DWIDTH 11 0
BBX 9 12 1 0
BITMAP
E380
6300
7700
3600
3E00
3E00
3E00
3E00
3600
7700
E300
E380
ENDCHAR
STARTCHAR 04FF
ENCODING 1279
SWIDTH 540 0
DWIDTH 9 0
BBX 7 9 1 0
BITMAP
C6
6C
7C
7C
7C
7C
6C
EC
C6
ENDCHAR
STARTCHAR 0500
ENCODING 1280
SWIDTH 600 0
DWIDTH 10 0
BBX 8 12 1 0
BITMAP
03
03
03
03
3F
7F
E3
C3
C3
E3
7F
3F
ENDCHAR
STARTCHAR 0501
ENCODING 1281
SWIDTH 540 0
DWIDTH 9 0
BBX 7 13 1 0
BITMAP
06
06
06
06
36
7E
E6
C6
C6
C6
E6
7E
76
ENDCHAR
STARTCHAR 0502
ENCODING 1282
SWIDTH 840 0
DWIDTH 14 0
BBX 12 12 1 0
BITMAP
0300
0300
0300
0300
3F70
7F30
E330
C330
C330
E370
7FE0
3FC0
ENDCHAR
STARTCHAR 0503
ENCODING 1283
SWIDTH 840 0
DWIDTH 14 0
BBX 12 13 1 0
BITMAP
0600
0600
0600
0600
3600
7E60
E660
C660
C670
C660
E660
7FE0
73C0
ENDCHAR
STARTCHAR 0504
ENCODING 1284
SWIDTH 720 0
DWIDTH 12 0
BBX 10 12 1 0
BITMAP
F800
FC00
0C00
0C00
0CC0
78C0
78C0
1CC0
0CC0
0CC0
0FC0
0700
ENDCHAR
STARTCHAR 0505
ENCODING 1285
SWIDTH 660 0
DWIDTH 11 0
BBX 9 9 1 0
BITMAP
F000
F800
1800
1980
F180
F980
1980
1F80
0F00
ENDCHAR
STARTCHAR 0506
ENCODING 1286
SWIDTH 600 0
DWIDTH 10 0
BBX 8 15 1 -3
BITMAP
F0
F8
1C
0C
1C
F8
F8
1C
0C
0C
0F
0F
02
06
06
ENDCHAR
STARTCHAR 0507
ENCODING 1287
SWIDTH 540 0
DWIDTH 9 0
BBX 7 12 1 -3
BITMAP
F0
F8
18
18
F8
F8
1C
1E
0E
06
06
04
ENDCHAR
STARTCHAR 0508
ENCODING 1288
SWIDTH 960 0
DWIDTH 16 0
BBX 14 12 1 0
BITMAP
3F80
3F80
3180
3180
3198
3198
3198
319C
3198
7198
E1F8
C0F0
ENDCHAR
STARTCHAR 0509
ENCODING 1289
SWIDTH 840 0
DWIDTH 14 0
BBX 12 9 1 0
BITMAP
7E00
7E00
7660
7660
7670
6670
6660
E7E0
C3C0
ENDCHAR
STARTCHAR 050A
ENCODING 1290
SWIDTH 900 0
DWIDTH 15 0
BBX 13 12 1 0
BITMAP
C180
C180
C180
C180
C198
FF98
FF98
C198
C198
C198
C1F8
C0F0
ENDCHAR
STARTCHAR 050B
ENCODING 1291
SWIDTH 780 0
DWIDTH 13 0
BBX 11 9 1 0
BITMAP
C600
C600
C660
FE60
FE60
C660
C660
C7E0
C3C0
ENDCHAR
STARTCHAR 050C
ENCODING 1292
SWIDTH 660 0
DWIDTH 11 0
BBX 9 12 1 0
BITMAP
3E00
7E00
6200
C000
C000
C300
C300
C300
C380
6300
7F00
3E00
ENDCHAR
STARTCHAR 050D
ENCODING 1293
SWIDTH 540 0
DWIDTH 9 0
BBX 7 9 1 0
BITMAP
3C
7C
E0
C0
C6
C6
E6
7E
3C
ENDCHAR
STARTCHAR 050E
ENCODING 1294
SWIDTH 720 0
DWIDTH 12 0
BBX 10 12 1 0
BITMAP
FF00
FF00
1800
1800
1980
1980
19C0
19C0
1980
1980
1F80
0F00
ENDCHAR
STARTCHAR 050F
ENCODING 1295
SWIDTH 600 0
DWIDTH 10 0
BBX 8 9 1 0
BITMAP
FC
FC
30
33
33
33
33
3F
1E
ENDCHAR
STARTCHAR 0510
ENCODING 1296
SWIDTH 600 0
DWIDTH 10 0
BBX 8 12 1 0
BITMAP
3E
7F
E3
C3
E0
7C
7C
C0
C3
E3
7F
3E
ENDCHAR
STARTCHAR 0511
ENCODING 1297
SWIDTH 540 0
DWIDTH 9 0
BBX 7 9 1 0
BITMAP
7C
FE
C6
78
78
C0
C6
FE
7C
ENDCHAR
STARTCHAR 0512
ENCODING 1298
SWIDTH 780 0
DWIDTH 13 0
BBX 11 15 1 -3
BITMAP
3F80
3F80
3180
3180
3180
3180
3180
3180
3180
6180
E1E0
C1E0
0060
00E0
01C0
ENDCHAR
STARTCHAR 0513
ENCODING 1299
SWIDTH 720 0
DWIDTH 12 0
BBX 10 12 1 -3
BITMAP
7E00
7E00
6600
6600
6600
6600
6600
E7C0
C7C0
01C0
0380
0300
ENDCHAR
STARTCHAR 1E00
ENCODING 7680
SWIDTH 720 0
DWIDTH 12 0
BBX 10 15 1 -3
BITMAP
0C00
1C00
1E00
1E00
3600
3300
3300
7F00
7F80
6180
C180
C1C0
0C00
1400
0C00
ENDCHAR
STARTCHAR 1E01
ENCODING 7681
SWIDTH 540 0
DWIDTH 9 0
BBX 7 12 1 -3
BITMAP
38
7C
CE
1E
7E
C6
CE
FE
76
30
50
30
ENDCHAR
STARTCHAR 1E3E
ENCODING 7742
SWIDTH 840 0
DWIDTH 14 0
BBX 11 16 1 0
BITMAP
0300
0300
0600
0000
E0E0
F0E0
F0E0
F1E0
D1E0
D9E0
D960
CB60
CF60
CE60
C660
C660
ENDCHAR
STARTCHAR 1E3F
ENCODING 7743
SWIDTH 840 0
DWIDTH 14 0
BBX 12 13 1 0
BITMAP
0300
0300
0600
0000
DDE0
FFE0
E660
C670
C670
C670
C670
C670
C670
ENDCHAR
STARTCHAR 1E80
ENCODING 7808
SWIDTH 840 0
DWIDTH 14 0
BBX 12 16 1 0
BITMAP
1C00
0C00
0600
0000
C630
C630
C630
CF30
6F60
6F60
6960
6960
79E0
39C0
39C0
30C0
ENDCHAR
STARTCHAR 1E81
ENCODING 7809
SWIDTH 720 0
DWIDTH 12 0
BBX 10 13 1 0
BITMAP
1800
1800
0C00
0000
CCC0
CCC0
CCC0
5EC0
7E80
7380
7380
7380
3300
ENDCHAR
STARTCHAR 1E82
ENCODING 7810
SWIDTH 840 0
DWIDTH 14 0
BBX 12 16 1 0
BITMAP
0380
0300
0600
0000
C630
C630
C630
CF30
6F60
6F60
6960
6960
79E0
39C0
39C0
30C0
ENDCHAR
STARTCHAR 1E83
ENCODING 7811
SWIDTH 720 0
DWIDTH 12 0
BBX 10 13 1 0
BITMAP
0700
0600
0C00
0000
CCC0
CCC0
CCC0
5EC0
7E80
7380
7380
7380
3300
ENDCHAR
STARTCHAR 1E84
ENCODING 7812
SWIDTH 840 0
DWIDTH 14 0
BBX 12 15 1 0
BITMAP
1980
1980
0000
C630
C630
C630
CF30
6F60
6F60
6960
6960
79E0
39C0
39C0
30C0
ENDCHAR
STARTCHAR 1E85
ENCODING 7813
SWIDTH 720 0
DWIDTH 12 0
BBX 10 12 1 0
BITMAP
3300
3300
0000
CCC0
CCC0
CCC0
5EC0
7E80
7380
7380
7380
3300
ENDCHAR
STARTCHAR 1EA0
ENCODING 7840
SWIDTH 720 0
DWIDTH 12 0
BBX 10 15 1 -3
BITMAP
0C00
1C00
1E00
1E00
3600
3300
3300
7F00
7F80
6180
C180
C1C0
0000
0C00
0C00
ENDCHAR
STARTCHAR 1EA1
ENCODING 7841
SWIDTH 540 0
DWIDTH 9 0
BBX 7 12 1 -3
BITMAP
38
7C
CE
1E
7E
C6
CE
FE
76
00
30
30
ENDCHAR
STARTCHAR 1EA2
ENCODING 7842
SWIDTH 720 0
DWIDTH 12 0
BBX 10 16 1 0
BITMAP
0C00
0600
0C00
0000
0C00
1C00
1E00
1E00
3600
3300
3300
7F00
7F80
6180
C180
C1C0
ENDCHAR
STARTCHAR 1EA3
ENCODING 7843
SWIDTH 540 0
DWIDTH 9 0
BBX 7 13 1 0
BITMAP
18
08
10
00
38
FC
CE
1E
7E
C6
CE
FE
76
ENDCHAR
STARTCHAR 1EA4
ENCODING 7844
SWIDTH 720 0
DWIDTH 12 0
BBX 10 16 1 0
BITMAP
00C0
0180
1D00
3200
0C00
1C00
1E00
1E00
3600
3300
3300
7F00
7F80
6180
C180
C1C0
ENDCHAR
STARTCHAR 1EA5
ENCODING 7845
SWIDTH 600 0
DWIDTH 10 0
BBX 8 13 1 0
BITMAP
03
12
68
04
38
FC
CE
1E
7E
C6
CE
FE
76
ENDCHAR
STARTCHAR 1EA6
ENCODING 7846
SWIDTH 720 0
DWIDTH 12 0
BBX 10 16 1 0
BITMAP
C000
4000
7C00
3200
0C00
1C00
1E00
1E00
3600
3300
3300
7F00
7F80
6180
C180
C1C0
ENDCHAR
STARTCHAR 1EA7
ENCODING 7847
SWIDTH 600 0
DWIDTH 10 0
BBX 8 13 1 0
BITMAP
C0
48
16
20
1C
3E
63
0F
3F
63
63
7F
3B
ENDCHAR
STARTCHAR 1EA8
ENCODING 7848
SWIDTH 720 0
DWIDTH 12 0
BBX 10 16 1 0
BITMAP
0180
0080
1D00
3200
0C00
1C00
1E00
1E00
3600
3300
3300
7F00
7F80
6180
C180
C1C0
ENDCHAR
STARTCHAR 1EA9
ENCODING 7849
SWIDTH 540 0
DWIDTH 9 0
BBX 7 14 1 0
BITMAP
06
02
36
6C
00
38
FC
CE
1E
7E
C6
CE
FE
76
ENDCHAR
STARTCHAR 1EAA
ENCODING 7850
SWIDTH 720 0
DWIDTH 12 0
BBX 10 16 1 1
BITMAP
1C00
0000
1C00
3200
0C00
1C00
1E00
1E00
3600
3300
3300
7F00
7F80
6180
C180
C1C0
ENDCHAR
STARTCHAR 1EAB
ENCODING 7851
SWIDTH 540 0
DWIDTH 9 0
BBX 7 14 1 0
BITMAP
30
18
10
68
04
38
FC
CE
1E
7E
C6
CE
FE
76
ENDCHAR
STARTCHAR 1EAC
ENCODING 7852
SWIDTH 720 0
DWIDTH 12 0
BBX 10 19 1 -3
BITMAP
0800
1C00
3600
0000
0C00
1C00
1E00
1E00
3600
3300
3300
7F00
7F80
6180
C180
C1C0
0000
0C00
0C00
ENDCHAR
STARTCHAR 1EAD
ENCODING 7853
SWIDTH 540 0
DWIDTH 9 0
BBX 7 16 1 -3
BITMAP
30
38
6C
00
38
FC
CE
1E
7E
C6
CE
FE
76
00
30
30
ENDCHAR
STARTCHAR 1EAE
ENCODING 7854
SWIDTH 720 0
DWIDTH 12 0
BBX 10 16 1 0
BITMAP
0400
3200
1E00
0000
0C00
1C00
1E00
1E00
3600
3300
3300
7F00
7F80
6180
C180
C1C0
ENDCHAR
STARTCHAR 1EAF
ENCODING 7855
SWIDTH 540 0
DWIDTH 9 0
BBX 7 14 1 0
BITMAP
08
18
4C
78
00
38
FC
CE
1E
7E
C6
CE
FE
76
ENDCHAR
STARTCHAR 1EB0
ENCODING 7856
SWIDTH 720 0
DWIDTH 12 0
BBX 10 18 1 0
BITMAP
1800
1800
3600
3E00
1C00
0000
0C00
1C00
1E00
1E00
3600
3300
3300
7F00
7F80
6180
C180
C1C0
ENDCHAR
STARTCHAR 1EB1
ENCODING 7857
SWIDTH 540 0
DWIDTH 9 0
BBX 7 15 1 0
BITMAP
30
30
4C
7C
10
00
38
FC
CE
1E
7E
C6
CE
FE
76
ENDCHAR
STARTCHAR 1EB2
ENCODING 7858
SWIDTH 720 0
DWIDTH 12 0
BBX 10 18 1 0
BITMAP
0C00
0400
0C00
0200
1E00
0000
0C00
1C00
1E00
1E00
3600
3300
3300
7F00
7F80
6180
C180
C1C0
ENDCHAR
STARTCHAR 1EB3
ENCODING 7859
SWIDTH 540 0
DWIDTH 9 0
BBX 7 15 1 0
BITMAP
18
08
18
4C
78
00
38
FC
CE
1E
7E
C6
CE
FE
76
ENDCHAR
STARTCHAR 1EB4
ENCODING 7860
SWIDTH 720 0
DWIDTH 12 0
BBX 10 17 1 0
BITMAP
1A00
1600
3200
1E00
0000
0C00
1C00
1E00
1E00
3600
3300
3300
7F00
7F80
6180
C180
C1C0
ENDCHAR
STARTCHAR 1EB5
ENCODING 7861
SWIDTH 540 0
DWIDTH 9 0
BBX 7 14 1 1
BITMAP
78
40
4C
78
00
38
FC
CE
1E
7E
C6
CE
FE
76
ENDCHAR
STARTCHAR 1EB6
ENCODING 7862
SWIDTH 720 0
DWIDTH 12 0
BBX 10 19 1 -3
BITMAP
3200
3E00
1C00
0000
0C00
1C00
1E00
1E00
3600
3300
3300
7F00
7F80
6180
C180
C1C0
0000
0C00
0C00
ENDCHAR
STARTCHAR 1EB7
ENCODING 7863
SWIDTH 540 0
DWIDTH 9 0
BBX 7 16 1 -3
BITMAP
4C
7C
38
00
38
FC
CE
1E
7E
C6
CE
FE
76
00
30
30
ENDCHAR
STARTCHAR 1EB8
ENCODING 7864
SWIDTH 540 0
DWIDTH 9 0
BBX 7 15 1 -3
BITMAP
FE
FE
C0
C0
C0
FE
FE
C0
C0
C0
FE
FE
00
18
18
ENDCHAR
STARTCHAR 1EB9
ENCODING 7865
SWIDTH 540 0
DWIDTH 9 0
BBX 7 12 1 -3
BITMAP
38
7C
C6
FE
FE
C0
E4
7E
3C
00
38
18
ENDCHAR
STARTCHAR 1EBA
ENCODING 7866
SWIDTH 540 0
DWIDTH 9 0
BBX 7 16 1 0
BITMAP
18
0C
18
00
FE
FE
C0
C0
C0
FE
FE
C0
C0
C0
FE
FE
ENDCHAR
STARTCHAR 1EBB
ENCODING 7867
SWIDTH 540 0
DWIDTH 9 0
BBX 7 13 1 0
BITMAP
38
18
10
00
38
7C
C6
FE
FE
C0
E4
7E
3C
ENDCHAR
STARTCHAR 1EBC
ENCODING 7868
SWIDTH 540 0
DWIDTH 9 0
BBX 7 15 1 0
BITMAP
3E
7C
00
FE
FE
C0
C0
C0
FE
FE
C0
C0
C0
FE
FE
ENDCHAR
STARTCHAR 1EBD
ENCODING 7869
SWIDTH 540 0
DWIDTH 9 0
BBX 7 13 1 0
BITMAP
24
7C
48
00
38
7C
C6
FE
FE
C0
E4
7E
3C
ENDCHAR
STARTCHAR 1EBE
ENCODING 7870
SWIDTH 660 0
DWIDTH 11 0
BBX 9 16 1 0
BITMAP
0180
0300
3A00
6600
FE00
FE00
C000
C000
C000
FE00
FE00
C000
C000
C000
FE00
FE00
ENDCHAR
STARTCHAR 1EBF
ENCODING 7871
SWIDTH 600 0
DWIDTH 10 0
BBX 8 13 1 0
BITMAP
03
32
68
04
38
7C
C6
FE
FE
C0
E4
7E
3C
ENDCHAR
STARTCHAR 1EC0
ENCODING 7872
SWIDTH 600 0
DWIDTH 10 0
BBX 8 16 1 0
BITMAP
80
C0
7C
32
7F
7F
60
60
60
7E
7E
60
60
60
7F
7F
ENDCHAR
STARTCHAR 1EC1
ENCODING 7873
SWIDTH 600 0
DWIDTH 10 0
BBX 8 13 1 0
BITMAP
C0
48
16
20
1E
3F
73
7F
7F
60
71
3F
1E
ENDCHAR
STARTCHAR 1EC2
ENCODING 7874
SWIDTH 600 0
DWIDTH 10 0
BBX 8 16 1 0
BITMAP
03
01
1A
64
FE
FE
C0
C0
C0
FE
FE
C0
C0
C0
FE
FE
ENDCHAR
STARTCHAR 1EC3
ENCODING 7875
SWIDTH 540 0
DWIDTH 9 0
BBX 7 14 1 0
BITMAP
06
02
36
68
04
38
7C
C6
FE
FE
C0
E4
7E
3C
ENDCHAR
STARTCHAR 1EC4
ENCODING 7876
SWIDTH 540 0
DWIDTH 9 0
BBX 7 16 1 1
BITMAP
3C
00
38
66
FE
FE
C0
C0
C0
FE
FE
C0
C0
C0
FE
FE
ENDCHAR
STARTCHAR 1EC5
ENCODING 7877
SWIDTH 540 0
DWIDTH 9 0
BBX 7 14 1 0
BITMAP
38
18
10
68
04
38
7C
C6
FE
FE
C0
E4
7E
3C
ENDCHAR
STARTCHAR 1EC6
ENCODING 7878
SWIDTH 540 0
DWIDTH 9 0
BBX 7 19 1 -3
BITMAP
18
3C
64
00
FE
FE
C0
C0
C0
FE
FE
C0
C0
C0
FE
FE
00
18
18
ENDCHAR
STARTCHAR 1EC7
ENCODING 7879
SWIDTH 540 0
DWIDTH 9 0
BBX 7 16 1 -3
BITMAP
30
38
6C
00
38
7C
C6
FE
FE
C0
E4
7E
3C
00
38
18
ENDCHAR
STARTCHAR 1EC8
ENCODING 7880
SWIDTH 300 0
DWIDTH 5 0
BBX 3 16 1 0
BITMAP
E0
60
E0
00
C0
C0
C0
C0
C0
C0
C0
C0
C0
C0
C0
C0
ENDCHAR
STARTCHAR 1EC9
ENCODING 7881
SWIDTH 300 0
DWIDTH 5 0
BBX 3 14 1 0
BITMAP
C0
60
60
C0
00
C0
C0
C0
C0
C0
C0
C0
C0
C0
ENDCHAR
STARTCHAR 1ECA
ENCODING 7882
SWIDTH 300 0
DWIDTH 5 0
BBX 2 15 1 -3
BITMAP
C0
C0
C0
C0
C0
C0
C0
C0
C0
C0
C0
C0
00
C0
C0
ENDCHAR
STARTCHAR 1ECB
ENCODING 7883
SWIDTH 300 0
DWIDTH 5 0
BBX 2 15 1 -3
BITMAP
C0
C0
40
C0
C0
C0
C0
C0
C0
C0
C0
C0
00
C0
C0
ENDCHAR
STARTCHAR 1ECC
ENCODING 7884
SWIDTH 660 0
DWIDTH 11 0
BBX 9 15 1 -3
BITMAP
1C00
7F00
6300
E380
C180
C180
C180
C180
E380
6300
7F00
1E00
0000
1C00
0C00
ENDCHAR
STARTCHAR 1ECD
ENCODING 7885
SWIDTH 600 0
DWIDTH 10 0
BBX 7 12 1 -3
BITMAP
3C
7E
E6
C6
C6
C6
E6
7E
3C
00
18
18
ENDCHAR
STARTCHAR 1ECE
ENCODING 7886
SWIDTH 660 0
DWIDTH 11 0
BBX 9 16 1 0
BITMAP
0C00
0400
0C00
0000
1E00
7F00
6300
E380
C180
C180
C180
C180
E380
6300
7F00
1E00
ENDCHAR
STARTCHAR 1ECF
ENCODING 7887
SWIDTH 600 0
DWIDTH 10 0
BBX 7 13 1 0
BITMAP
18
0C
10
00
3C
7E
E6
C6
C6
C6
E6
7E
3C
ENDCHAR
STARTCHAR 1ED0
ENCODING 7888
SWIDTH 660 0
DWIDTH 11 0
BBX 10 16 1 0
BITMAP
00C0
0180
1D00
3600
1E00
7F00
6300
E380
C180
C180
C180
C180
E380
6300
7F00
1E00
ENDCHAR
STARTCHAR 1ED1
ENCODING 7889
SWIDTH 600 0
DWIDTH 10 0
BBX 8 13 1 0
BITMAP
01
1B
2C
40
3C
7E
E6
C6
C6
C6
E6
7E
3C
ENDCHAR
STARTCHAR 1ED2
ENCODING 7890
SWIDTH 660 0
DWIDTH 11 0
BBX 9 16 1 0
BITMAP
8000
C000
7C00
3600
1E00
7F00
7380
E180
C180
C180
C180
C180
E180
7380
7F00
1E00
ENDCHAR
STARTCHAR 1ED3
ENCODING 7891
SWIDTH 600 0
DWIDTH 10 0
BBX 8 13 1 0
BITMAP
C0
48
16
20
1C
3F
73
63
63
63
73
3F
1E
ENDCHAR
STARTCHAR 1ED4
ENCODING 7892
SWIDTH 660 0
DWIDTH 11 0
BBX 9 16 1 0
BITMAP
0300
0180
1F00
3600
1E00
7F00
6300
E380
C180
C180
C180
C180
E380
6300
7F00
1E00
ENDCHAR
STARTCHAR 1ED5
ENCODING 7893
SWIDTH 600 0
DWIDTH 10 0
BBX 8 14 1 0
BITMAP
02
03
1A
2C
40
3C
7E
E6
C6
C6
C6
E6
7E
3C
ENDCHAR
STARTCHAR 1ED6
ENCODING 7894
SWIDTH 660 0
DWIDTH 11 0
BBX 9 16 1 1
BITMAP
1C00
0000
1C00
3600
1E00
7F00
6300
E380
C180
C180
C180
C180
E380
6300
7F00
1E00
ENDCHAR
STARTCHAR 1ED7
ENCODING 7895
SWIDTH 600 0
DWIDTH 10 0
BBX 7 14 1 0
BITMAP
30
28
10
2C
40
3C
7E
E6
C6
C6
C6
E6
7E
3C
ENDCHAR
STARTCHAR 1ED8
ENCODING 7896
SWIDTH 660 0
DWIDTH 11 0
BBX 9 19 1 -3
BITMAP
0800
1C00
3600
0000
1C00
7F00
6300
E380
C180
C180
C180
C180
E380
6300
7F00
1E00
0000
1C00
0C00
ENDCHAR
STARTCHAR 1ED9
ENCODING 7897
SWIDTH 600 0
DWIDTH 10 0
BBX 7 16 1 -3
BITMAP
18
3C
6C
00
3C
7E
E6
C6
C6
C6
E6
7E
3C
00
18
18
ENDCHAR
STARTCHAR 1EDA
ENCODING 7898
SWIDTH 720 0
DWIDTH 12 0
BBX 10 16 1 0
BITMAP
0600
0C00
0C00
0040
1E40
7FC0
6380
E380
C180
C180
C180
C180
E380
6300
7F00
1E00
ENDCHAR
STARTCHAR 1EDB
ENCODING 7899
SWIDTH 600 0
DWIDTH 10 0
BBX 8 13 1 0
BITMAP
0C
18
18
01
3D
7F
E6
C6
C6
C6
E6
7E
3C
ENDCHAR
STARTCHAR 1EDC
ENCODING 7900
SWIDTH 720 0
DWIDTH 12 0
BBX 10 16 1 0
BITMAP
3000
1800
0800
0440
1E40
7FC0
6380
E380
C180
C180
C180
C180
E380
6300
7F00
1E00
ENDCHAR
STARTCHAR 1EDD
ENCODING 7901
SWIDTH 600 0
DWIDTH 10 0
BBX 8 13 1 0
BITMAP
70
30
18
01
3D
7F
E6
C6
C6
C6
E6
7E
3C
ENDCHAR
STARTCHAR 1EDE
ENCODING 7902
SWIDTH 720 0
DWIDTH 12 0
BBX 10 16 1 0
BITMAP
0C00
0400
0C00
0040
1E40
7FC0
6380
E380
C180
C180
C180
C180
E380
6300
7F00
1E00
ENDCHAR
STARTCHAR 1EDF
ENCODING 7903
SWIDTH 600 0
DWIDTH 10 0
BBX 8 13 1 0
BITMAP
18
0C
10
01
3D
7F
E6
C6
C6
C6
E6
7E
3C
ENDCHAR
STARTCHAR 1EE0
ENCODING 7904
SWIDTH 720 0
DWIDTH 12 0
BBX 10 15 1 0
BITMAP
3E00
3E00
0040
1E40
7FC0
6380
E380
C180
C180
C180
C180
E380
6300
7F00
1E00
ENDCHAR
STARTCHAR 1EE1
ENCODING 7905
SWIDTH 600 0
DWIDTH 10 0
BBX 8 13 1 0
BITMAP
24
7C
48
01
3D
7F
E6
C6
C6
C6
E6
7E
3C
ENDCHAR
STARTCHAR 1EE2
ENCODING 7906
SWIDTH 720 0
DWIDTH 12 0
BBX 10 16 1 -3
BITMAP
0040
1E40
7FC0
6380
E380
C180
C180
C180
C180
E380
6300
7F00
1E00
0000
1C00
1800
ENDCHAR
STARTCHAR 1EE3
ENCODING 7907
SWIDTH 600 0
DWIDTH 10 0
BBX 8 13 1 -3
BITMAP
01
3D
7F
E6
C6
C6
C6
E6
7E
3C
00
18
18
ENDCHAR
STARTCHAR 1EE4
ENCODING 7908
SWIDTH 660 0
DWIDTH 11 0
BBX 8 15 1 -3
BITMAP
C3
C3
C3
C3
C3
C3
C3
C3
C3
E7
7E
3C
00
18
18
ENDCHAR
STARTCHAR 1EE5
ENCODING 7909
SWIDTH 540 0
DWIDTH 9 0
BBX 7 12 1 -3
BITMAP
C6
C6
C6
C6
C6
C6
C6
FE
76
00
30
30
ENDCHAR
STARTCHAR 1EE6
ENCODING 7910
SWIDTH 660 0
DWIDTH 11 0
BBX 8 16 1 0
BITMAP
1C
0C
1C
00
C3
C3
C3
C3
C3
C3
C3
C3
C3
E7
7E
3C
ENDCHAR
STARTCHAR 1EE7
ENCODING 7911
SWIDTH 540 0
DWIDTH 9 0
BBX 7 14 1 0
BITMAP
18
18
18
10
00
C6
C6
C6
C6
C6
C6
C6
FE
76
ENDCHAR
STARTCHAR 1EE8
ENCODING 7912
SWIDTH 780 0
DWIDTH 13 0
BBX 11 16 1 0
BITMAP
0600
0C00
0C00
0020
C320
C360
C3C0
C300
C300
C300
C300
C300
C300
E700
7E00
3C00
ENDCHAR
STARTCHAR 1EE9
ENCODING 7913
SWIDTH 660 0
DWIDTH 11 0
BBX 9 12 1 0
BITMAP
0C00
1800
0080
C680
C780
C600
C600
C600
C600
C600
FE00
7600
ENDCHAR
STARTCHAR 1EEA
ENCODING 7914
SWIDTH 780 0
DWIDTH 13 0
BBX 11 16 1 0
BITMAP
3000
1800
1800
0420
C320
C360
C3C0
C300
C300
C300
C300
C300
C300
E700
7E00
3C00
ENDCHAR
STARTCHAR 1EEB
ENCODING 7915
SWIDTH 660 0
DWIDTH 11 0
BBX 9 12 1 0
BITMAP
6000
3000
0880
C680
C780
C600
C600
C600
C600
C600
FE00
7600
ENDCHAR
STARTCHAR 1EEC
ENCODING 7916
SWIDTH 780 0
DWIDTH 13 0
BBX 11 17 1 0
BITMAP
0C00
0400
0C00
0000
0020
C320
C360
C3C0
C300
C300
C300
C300
C300
C300
E700
7E00
3C00
ENDCHAR
STARTCHAR 1EED
ENCODING 7917
SWIDTH 660 0
DWIDTH 11 0
BBX 9 13 1 0
BITMAP
1800
0800
1000
0080
C680
C780
C600
C600
C600
C600
C600
FE00
7600
ENDCHAR
STARTCHAR 1EEE
ENCODING 7918
SWIDTH 780 0
DWIDTH 13 0
BBX 11 16 1 0
BITMAP
1200
3E00
2400
0020
C320
C360
C3C0
C300
C300
C300
C300
C300
C300
E700
7E00
3C00
ENDCHAR
STARTCHAR 1EEF
ENCODING 7919
SWIDTH 660 0
DWIDTH 11 0
BBX 9 12 1 0
BITMAP
7C00
7C00
0080
C680
C780
C600
C600
C600
C600
C600
FE00
7600
ENDCHAR
STARTCHAR 1EF0
ENCODING 7920
SWIDTH 780 0
DWIDTH 13 0
BBX 11 16 1 -3
BITMAP
0020
C320
C360
C3C0
C300
C300
C300
C300
C300
C300
E700
7E00
3C00
0000
1C00
0800
ENDCHAR
STARTCHAR 1EF1
ENCODING 7921
SWIDTH 660 0
DWIDTH 11 0
BBX 9 13 1 -3
BITMAP
0080
C680
C780
C600
C600
C600
C600
C600
FE00
7600
0000
3000
3000
ENDCHAR
STARTCHAR 1EF2
ENCODING 7922
SWIDTH 660 0
DWIDTH 11 0
BBX 9 16 1 0
BITMAP
3000
3800
1800
0000
C380
E300
6300
7600
3600
3C00
1C00
1800
1800
1800
1800
1800
ENDCHAR
STARTCHAR 1EF3
ENCODING 7923
SWIDTH 540 0
DWIDTH 9 0
BBX 7 16 1 -3
BITMAP
60
30
10
08
C6
C6
6C
6C
6C
38
38
38
10
30
70
60
ENDCHAR
STARTCHAR 1EF4
ENCODING 7924
SWIDTH 660 0
DWIDTH 11 0
BBX 9 15 1 -3
BITMAP
C380
E300
6300
7600
3600
3C00
1C00
1800
1800
1800
1800
1800
0000
1800
1800
ENDCHAR
STARTCHAR 1EF5
ENCODING 7925
SWIDTH 540 0
DWIDTH 9 0
BBX 7 12 1 -3
BITMAP
C6
C6
6C
6C
6C
38
38
38
10
30
76
6E
ENDCHAR
STARTCHAR 1EF6
ENCODING 7926
SWIDTH 660 0
DWIDTH 11 0
BBX 9 16 1 0
BITMAP
1C00
0C00
1C00
0000
C380
E300
6300
7600
3600
3C00
1C00
1800
1800
1800
1800
1800
ENDCHAR
STARTCHAR 1EF7
ENCODING 7927
SWIDTH 540 0
DWIDTH 9 0
BBX 7 17 1 -3
BITMAP
18
18
18
10
00
C6
C6
6C
6C
6C
38
38
38
10
30
70
60
ENDCHAR
STARTCHAR 1EF8
ENCODING 7928
SWIDTH 660 0
DWIDTH 11 0
BBX 9 15 1 0
BITMAP
3E00
3C00
0000
C380
E300
6300
7600
3600
3C00
1C00
1800
1800
1800
1800
1800
ENDCHAR
STARTCHAR 1EF9
ENCODING 7929
SWIDTH 540 0
DWIDTH 9 0
BBX 7 16 1 -3
BITMAP
24
7C
48
00
C6
C6
6C
6C
6C
38
38
38
10
30
70
60
ENDCHAR
STARTCHAR 1F4D
ENCODING 8013
SWIDTH 780 0
DWIDTH 13 0
BBX 11 14 1 0
BITMAP
1000
E000
A780
1FC0
18C0
3860
3060
3060
3060
3060
3860
18C0
1FC0
0780
ENDCHAR
STARTCHAR 2000
ENCODING 8192
SWIDTH 180 0
DWIDTH 3 0
BBX 0 0 0 0
BITMAP
ENDCHAR
STARTCHAR 2001
ENCODING 8193
SWIDTH 180 0
DWIDTH 3 0
BBX 0 0 0 0
BITMAP
ENDCHAR
STARTCHAR 2002
ENCODING 8194
SWIDTH 180 0
DWIDTH 3 0
BBX 0 0 0 0
BITMAP
ENDCHAR
STARTCHAR 2003
ENCODING 8195
SWIDTH 180 0
DWIDTH 3 0
BBX 0 0 0 0
BITMAP
ENDCHAR
STARTCHAR 2004
ENCODING 8196
SWIDTH 180 0
DWIDTH 3 0
BBX 0 0 0 0
BITMAP
ENDCHAR
STARTCHAR 2005
ENCODING 8197
SWIDTH 180 0
DWIDTH 3 0
BBX 0 0 0 0
BITMAP
ENDCHAR
STARTCHAR 2006
ENCODING 8198
SWIDTH 180 0
DWIDTH 3 0
BBX 0 0 0 0
BITMAP
ENDCHAR
STARTCHAR 2007
ENCODING 8199
SWIDTH 180 0
DWIDTH 3 0
BBX 0 0 0 0
BITMAP
ENDCHAR
STARTCHAR 2008
ENCODING 8200
SWIDTH 180 0
DWIDTH 3 0
BBX 0 0 0 0
BITMAP
ENDCHAR
STARTCHAR 2009
ENCODING 8201
SWIDTH 180 0
DWIDTH 3 0
BBX 0 0 0 0
BITMAP
ENDCHAR
STARTCHAR 200A
ENCODING 8202
SWIDTH 180 0
DWIDTH 3 0
BBX 0 0 0 0
BITMAP
ENDCHAR
STARTCHAR 200B
ENCODING 8203
SWIDTH 180 0
DWIDTH 3 0
BBX 0 0 0 0
BITMAP
ENDCHAR
STARTCHAR 2013
ENCODING 8211
SWIDTH 600 0
DWIDTH 10 0
BBX 8 2 1 5
BITMAP
FF
FF
ENDCHAR
STARTCHAR 2014
ENCODING 8212
SWIDTH 720 0
DWIDTH 12 0
BBX 10 2 1 5
BITMAP
FFC0
FFC0
ENDCHAR
STARTCHAR 2015
ENCODING 8213
SWIDTH 720 0
DWIDTH 12 0
BBX 10 2 1 5
BITMAP
FFC0
FFC0
ENDCHAR
STARTCHAR 2017
ENCODING 8215
SWIDTH 540 0
DWIDTH 9 0
BBX 7 5 1 -4
BITMAP
FE
FE
00
FE
FE
ENDCHAR
STARTCHAR 2018
ENCODING 8216
SWIDTH 240 0
DWIDTH 4 0
BBX 2 4 1 9
BITMAP
40
C0
C0
C0
ENDCHAR
STARTCHAR 2019
ENCODING 8217
SWIDTH 240 0
DWIDTH 4 0
BBX 2 4 1 9
BITMAP
40
40
C0
C0
ENDCHAR
STARTCHAR 201A
ENCODING 8218
SWIDTH 240 0
DWIDTH 4 0
BBX 2 4 1 -3
BITMAP
40
40
C0
C0
ENDCHAR
STARTCHAR 201B
ENCODING 8219
SWIDTH 240 0
DWIDTH 4 0
BBX 2 5 1 8
BITMAP
C0
C0
C0
C0
40
ENDCHAR
STARTCHAR 201C
ENCODING 8220
SWIDTH 420 0
DWIDTH 7 0
BBX 5 4 1 9
BITMAP
58
D8
D0
D0
ENDCHAR
STARTCHAR 201D
ENCODING 8221
SWIDTH 420 0
DWIDTH 7 0
BBX 5 4 1 9
BITMAP
58
58
D8
F0
ENDCHAR
STARTCHAR 201E
ENCODING 8222
SWIDTH 420 0
DWIDTH 7 0
BBX 5 5 1 -3
BITMAP
58
58
58
D0
B0
ENDCHAR
STARTCHAR 2020
ENCODING 8224
SWIDTH 540 0
DWIDTH 9 0
BBX 7 12 1 0
BITMAP
38
38
38
FE
FE
38
38
38
38
38
38
38
ENDCHAR
STARTCHAR 2021
ENCODING 8225
SWIDTH 540 0
DWIDTH 9 0
BBX 7 15 1 -3
BITMAP
38
38
38
FE
FE
38
38
38
38
38
FE
FE
38
38
38
ENDCHAR
STARTCHAR 2022
ENCODING 8226
SWIDTH 360 0
DWIDTH 6 0
BBX 4 4 1 4
BITMAP
E0
F0
F0
60
ENDCHAR
STARTCHAR 2025
ENCODING 8229
SWIDTH 480 0
DWIDTH 8 0
BBX 6 3 1 0
BITMAP
48
CC
CC
ENDCHAR
STARTCHAR 2026
ENCODING 8230
SWIDTH 660 0
DWIDTH 11 0
BBX 9 3 1 0
BITMAP
4880
CD80
CD80
ENDCHAR
STARTCHAR 2030
ENCODING 8240
SWIDTH 900 0
DWIDTH 15 0
BBX 13 12 1 0
BITMAP
6000
F000
9300
9200
F400
2C00
0920
1BF8
16C8
26C8
27F8
03B0
ENDCHAR
STARTCHAR 2032
ENCODING 8242
SWIDTH 240 0
DWIDTH 4 0
BBX 2 4 1 8
BITMAP
C0
80
80
80
ENDCHAR
STARTCHAR 2033
ENCODING 8243
SWIDTH 360 0
DWIDTH 6 0
BBX 4 4 1 8
BITMAP
F0
B0
B0
B0
ENDCHAR
STARTCHAR 2034
ENCODING 8244
SWIDTH 480 0
DWIDTH 8 0
BBX 6 4 1 8
BITMAP
F4
B4
B4
B4
ENDCHAR
STARTCHAR 2039
ENCODING 8249
SWIDTH 300 0
DWIDTH 5 0
BBX 3 7 1 1
BITMAP
20
60
40
C0
C0
60
20
ENDCHAR
STARTCHAR 203A
ENCODING 8250
SWIDTH 300 0
DWIDTH 5 0
BBX 3 7 1 1
BITMAP
C0
40
60
20
60
40
C0
ENDCHAR
STARTCHAR 203C
ENCODING 8252
SWIDTH 540 0
DWIDTH 9 0
BBX 7 12 1 0
BITMAP
CC
CC
CC
CC
CC
CC
CC
CC
00
44
CE
CC
ENDCHAR
STARTCHAR 203D
ENCODING 8253
SWIDTH 480 0
DWIDTH 8 0
BBX 6 13 1 0
BITMAP
30
78
FC
FC
3C
1C
18
30
30
00
30
30
30
ENDCHAR
STARTCHAR 2044
ENCODING 8260
SWIDTH 480 0
DWIDTH 8 0
BBX 6 10 1 1
BITMAP
04
0C
08
18
10
20
60
40
C0
80
ENDCHAR
STARTCHAR 2074
ENCODING 8308
SWIDTH 420 0
DWIDTH 7 0
BBX 5 7 1 5
BITMAP
30
30
50
D0
F8
F8
10
ENDCHAR
STARTCHAR 207F
ENCODING 8319
SWIDTH 420 0
DWIDTH 7 0
BBX 5 7 1 5
BITMAP
B8
F8
C8
C8
C8
C8
C8
ENDCHAR
STARTCHAR 20A3
ENCODING 8355
SWIDTH 600 0
DWIDTH 10 0
BBX 8 12 1 0
BITMAP
7F
7F
60
60
60
7E
7E
60
F8
F8
60
60
ENDCHAR
STARTCHAR 20A4
ENCODING 8356
SWIDTH 600 0
DWIDTH 10 0
BBX 8 12 1 0
BITMAP
1C
3E
77
60
60
F8
60
F8
60
60
FF
FF
ENDCHAR
STARTCHAR 20A7
ENCODING 8359
SWIDTH 780 0
DWIDTH 13 0
BBX 11 12 1 0
BITMAP
F800
FCC0
CEC0
C7E0
C7E0
CEC0
FCC0
F8C0
C0C0
C0C0
C0E0
C0E0
ENDCHAR
STARTCHAR 20AB
ENCODING 8363
SWIDTH 600 0
DWIDTH 10 0
BBX 8 16 1 -3
BITMAP
06
1F
1F
06
36
7E
E6
C6
C6
C6
E6
7E
76
00
7E
7E
ENDCHAR
STARTCHAR 20AC
ENCODING 8364
SWIDTH 540 0
DWIDTH 9 0
BBX 7 12 1 0
BITMAP
1E
3E
30
60
FC
60
60
FC
60
30
3E
1E
ENDCHAR
STARTCHAR 20BD
ENCODING 8381
SWIDTH 660 0
DWIDTH 11 0
BBX 10 12 1 0
BITMAP
7F00
7F80
7180
7180
71C0
7180
FF80
FF00
7000
F800
F800
7000
ENDCHAR
STARTCHAR 2105
ENCODING 8453
SWIDTH 660 0
DWIDTH 11 0
BBX 10 12 1 0
BITMAP
6000
F000
8200
9600
F400
2C00
0900
1780
34C0
24C0
2780
0380
ENDCHAR
STARTCHAR 2113
ENCODING 8467
SWIDTH 480 0
DWIDTH 8 0
BBX 6 12 1 0
BITMAP
38
3C
7C
64
6C
6C
78
F0
E0
70
38
18
ENDCHAR
STARTCHAR 2116
ENCODING 8470
SWIDTH 960 0
DWIDTH 16 0
BBX 14 12 1 0
BITMAP
E338
E36C
F34C
F34C
F34C
DB78
DB00
CF78
CF00
CF00
C700
C700
ENDCHAR
STARTCHAR 2121
ENCODING 8481
SWIDTH 1020 0
DWIDTH 17 0
BBX 15 13 1 0
BITMAP
000E
FF8E
FF8E
180E
19EE
1BFE
1B3E
1FFE
1FFE
1F0E
1B1E
1BFE
19EE
ENDCHAR
STARTCHAR 2122
ENCODING 8482
SWIDTH 600 0
DWIDTH 10 0
BBX 7 5 1 7
BITMAP
FA
5A
5E
56
54
ENDCHAR
STARTCHAR 2126
ENCODING 8486
SWIDTH 660 0
DWIDTH 11 0
BBX 8 12 1 0
BITMAP
3C
7E
E7
C3
C3
C3
C3
C3
E7
66
FF
FF
ENDCHAR
STARTCHAR 212E
ENCODING 8494
SWIDTH 540 0
DWIDTH 9 0
BBX 7 9 1 0
BITMAP
3C
46
C2
C2
FE
C0
C0
42
3C
ENDCHAR
STARTCHAR 215B
ENCODING 8539
SWIDTH 720 0
DWIDTH 12 0
BBX 10 12 1 0
BITMAP
6000
E300
6200
6400
6C00
6B80
1BC0
12C0
33C0
23C0
63C0
0380
ENDCHAR
STARTCHAR 215C
ENCODING 8540
SWIDTH 780 0
DWIDTH 13 0
BBX 11 12 1 0
BITMAP
7000
F000
1180
7100
9A00
F640
25E0
0DA0
09E0
19E0
11E0
00E0
ENDCHAR
STARTCHAR 215D
ENCODING 8541
SWIDTH 780 0
DWIDTH 13 0
BBX 11 13 1 0
BITMAP
F000
F000
C180
F100
1300
9200
F5C0
2DE0
0920
19E0
11E0
11E0
01E0
ENDCHAR
STARTCHAR 215E
ENCODING 8542
SWIDTH 780 0
DWIDTH 13 0
BBX 11 12 1 0
BITMAP
F800
F100
3300
2200
6400
4DC0
0BE0
1B60
11C0
33E0
23E0
01C0
ENDCHAR
STARTCHAR 2160
ENCODING 8544
SWIDTH 300 0
DWIDTH 5 0
BBX 2 12 1 0
BITMAP
C0
C0
C0
C0
C0
C0
C0
C0
C0
C0
C0
C0
ENDCHAR
STARTCHAR 2161
ENCODING 8545
SWIDTH 540 0
DWIDTH 9 0
BBX 7 12 1 0
BITMAP
C6
C6
C6
C6
C6
C6
C6
C6
C6
C6
C6
C6
ENDCHAR
STARTCHAR 2162
ENCODING 8546
SWIDTH 780 0
DWIDTH 13 0
BBX 11 12 1 0
BITMAP
C660
C660
C660
C660
C660
C660
C660
C660
C660
C660
C660
C660
ENDCHAR
STARTCHAR 2163
ENCODING 8547
SWIDTH 900 0
DWIDTH 15 0
BBX 13 12 1 0
BITMAP
CC18
CC38
CE30
C630
C630
C670
C360
C360
C360
C3C0
C1C0
C1C0
ENDCHAR
STARTCHAR 2164
ENCODING 8548
SWIDTH 660 0
DWIDTH 11 0
BBX 9 12 1 0
BITMAP
C180
E180
6380
6300
6300
7300
3600
3600
3600
1E00
1C00
1C00
ENDCHAR
STARTCHAR 2165
ENCODING 8549
SWIDTH 900 0
DWIDTH 15 0
BBX 13 12 1 0
BITMAP
C198
E198
6398
6318
6318
7318
3618
3618
3618
1E18
1C18
1C18
ENDCHAR
STARTCHAR 2166
ENCODING 8550
SWIDTH 1140 0
DWIDTH 19 0
BBX 17 12 1 0
BITMAP
C19980
E19980
639980
631980
631980
731980
361980
361980
361980
1E1980
1C1980
1C1980
ENDCHAR
STARTCHAR 2167
ENCODING 8551
SWIDTH 1440 0
DWIDTH 24 0
BBX 22 12 1 0
BITMAP
C1999C
E1999C
63999C
63199C
63199C
73199C
36199C
36199C
36199C
1E199C
1C199C
1C199C
ENDCHAR
STARTCHAR 2168
ENCODING 8552
SWIDTH 900 0
DWIDTH 15 0
BBX 13 12 1 0
BITMAP
CC38
CE30
C670
C360
C3E0
C1C0
C1C0
C3E0
C760
C670
CE30
CC38
ENDCHAR
STARTCHAR 2169
ENCODING 8553
SWIDTH 660 0
DWIDTH 11 0
BBX 9 12 1 0
BITMAP
E380
6300
7700
3600
3E00
1C00
1C00
3E00
3600
7700
6300
E380
ENDCHAR
STARTCHAR 216A
ENCODING 8554
SWIDTH 900 0
DWIDTH 15 0
BBX 12 12 1 0
BITMAP
E3B0
6330
7730
3630
3E30
1C30
1C30
3E30
3630
7730
6330
E3B0
ENDCHAR
STARTCHAR 216B
ENCODING 8555
SWIDTH 1140 0
DWIDTH 19 0
BBX 17 12 1 0
BITMAP
E3B180
633180
773180
363180
3E3180
1C3180
1C3180
3E3180
363180
773180
633180
E3B180
ENDCHAR
STARTCHAR 216C
ENCODING 8556
SWIDTH 540 0
DWIDTH 9 0
BBX 7 12 1 0
BITMAP
C0
C0
C0
C0
C0
C0
C0
C0
C0
C0
FE
FE
ENDCHAR
STARTCHAR 216D
ENCODING 8557
SWIDTH 660 0
DWIDTH 11 0
BBX 9 12 1 0
BITMAP
3E00
7F00
6300
C380
C000
C000
C000
C000
C380
6300
7F00
3E00
ENDCHAR
STARTCHAR 216E
ENCODING 8558
SWIDTH 600 0
DWIDTH 10 0
BBX 8 12 1 0
BITMAP
FC
FE
C7
C3
C3
C3
C3
C3
C3
C7
FE
FC
ENDCHAR
STARTCHAR 216F
ENCODING 8559
SWIDTH 840 0
DWIDTH 14 0
BBX 11 12 1 0
BITMAP
E0E0
F0E0
F0E0
F0E0
D9E0
D9E0
D960
CB60
CF60
CE60
C660
C660
ENDCHAR
STARTCHAR 2183
ENCODING 8579
SWIDTH 660 0
DWIDTH 11 0
BBX 9 12 1 0
BITMAP
3C00
7E00
E700
C300
0380
0380
0380
0380
C300
E700
7E00
3C00
ENDCHAR
STARTCHAR 2202
ENCODING 8706
SWIDTH 540 0
DWIDTH 9 0
BBX 7 13 1 0
BITMAP
78
7C
0E
06
3E
7E
E6
C6
C6
C6
E6
7C
38
ENDCHAR
STARTCHAR 2206
ENCODING 8710
SWIDTH 720 0
DWIDTH 12 0
BBX 10 12 1 0
BITMAP
0C00
0E00
1E00
1F00
3B00
3300
3380
7180
6180
61C0
FFC0
FFC0
ENDCHAR
STARTCHAR 220F
ENCODING 8719
SWIDTH 660 0
DWIDTH 11 0
BBX 8 14 1 -2
BITMAP
FF
FF
C3
C3
C3
C3
C3
C3
C3
C3
C3
C3
C3
C3
ENDCHAR
STARTCHAR 2211
ENCODING 8721
SWIDTH 600 0
DWIDTH 10 0
BBX 9 14 1 -2
BITMAP
FF00
FF00
6000
7000
3800
1800
0C00
0C00
1800
3800
7000
6000
FF80
FF80
ENDCHAR
STARTCHAR 2212
ENCODING 8722
SWIDTH 540 0
DWIDTH 9 0
BBX 6 2 1 5
BITMAP
FC
FC
ENDCHAR
STARTCHAR 221A
ENCODING 8730
SWIDTH 600 0
DWIDTH 10 0
BBX 8 12 1 0
BITMAP
03
02
02
06
06
04
E4
EC
2C
38
38
18
ENDCHAR
STARTCHAR 221E
ENCODING 8734
SWIDTH 960 0
DWIDTH 16 0
BBX 14 9 1 0
BITMAP
3C70
7EF8
E79C
C38C
C30C
C38C
E78C
7CF8
3870
ENDCHAR
STARTCHAR 222B
ENCODING 8747
SWIDTH 420 0
DWIDTH 7 0
BBX 5 16 1 -3
BITMAP
18
38
70
70
70
70
70
70
70
70
70
70
70
60
E0
C0
ENDCHAR
STARTCHAR 2248
ENCODING 8776
SWIDTH 540 0
DWIDTH 9 0
BBX 7 7 1 2
BITMAP
60
F8
9E
0E
70
FE
8E
ENDCHAR
STARTCHAR 2260
ENCODING 8800
SWIDTH 540 0
DWIDTH 9 0
BBX 7 8 1 2
BITMAP
08
FE
FE
10
FE
FE
40
40
ENDCHAR
STARTCHAR 2264
ENCODING 8804
SWIDTH 540 0
DWIDTH 9 0
BBX 6 9 1 0
BITMAP
0C
3C
F0
E0
7C
1C
00
FC
FC
ENDCHAR
STARTCHAR 2265
ENCODING 8805
SWIDTH 540 0
DWIDTH 9 0
BBX 7 9 1 0
BITMAP
C0
F8
3E
1E
FC
E0
80
FC
FC
ENDCHAR
STARTCHAR 25CA
ENCODING 9674
SWIDTH 540 0
DWIDTH 9 0
BBX 7 12 1 0
BITMAP
30
38
78
6C
6C
C6
C6
EC
6C
78
38
30
ENDCHAR
STARTCHAR EE01
ENCODING 60929
SWIDTH 240 0
DWIDTH 4 0
BBX 2 10 1 1
BITMAP
40
C0
C0
00
00
00
00
C0
C0
40
ENDCHAR
STARTCHAR EE02
ENCODING 60930
SWIDTH 360 0
DWIDTH 6 0
BBX 4 4 1 5
BITMAP
B0
B0
B0
B0
ENDCHAR
STARTCHAR F6C3
ENCODING 63171
SWIDTH 240 0
DWIDTH 4 0
BBX 2 4 1 -1
BITMAP
40
40
C0
80
ENDCHAR
STARTCHAR FB01
ENCODING 64257
SWIDTH 600 0
DWIDTH 10 0
BBX 8 13 1 0
BITMAP
3E
7E
72
60
FB
FB
63
63
63
63
63
63
63
ENDCHAR
STARTCHAR FB02
ENCODING 64258
SWIDTH 600 0
DWIDTH 10 0
BBX 8 13 1 0
BITMAP
3B
7B
63
63
FB
FB
63
63
63
63
63
63
63
ENDCHAR
STARTCHAR FB03
ENCODING 64259
SWIDTH 900 0
DWIDTH 15 0
BBX 13 13 1 0
BITMAP
38F0
79F0
6390
6300
FFD8
FFD8
6318
6318
6318
6318
6318
6318
6318
ENDCHAR
STARTCHAR FB04
ENCODING 64260
SWIDTH 960 0
DWIDTH 16 0
BBX 13 13 1 0
BITMAP
38D8
79D8
6398
6318
FFD8
FFD8
6318
6318
6318
6318
6318
6318
6318
ENDCHAR
STARTCHAR FEFF
ENCODING 65279
SWIDTH 180 0
DWIDTH 3 0
BBX 0 0 0 0
BITMAP
ENDCHAR
STARTCHAR FFFC
ENCODING 65532
SWIDTH 1020 0
DWIDTH 17 0
BBX 14 15 1 -3
BITMAP
DB6C
8004
8000
8004
8004
1B08
AA88
A78C
A68C
1BB0
8004
8004
8000
8004
DB6C
ENDCHAR
STARTCHAR FFFD
ENCODING 65533
SWIDTH 960 0
DWIDTH 16 0
BBX 13 15 1 1
BITMAP
0200
0700
0F80
0FC0
1FE0
3870
7B78
FE78
FEF8
7DF0
3FF0
1DE0
0FC0
0780
0300
ENDCHAR
ENDFONT
